<?xml version="1.0" encoding="utf-8"?>
<!-- Generator: Adobe Illustrator 24.2.0, SVG Export Plug-In . SVG Version: 6.00 Build 0)  -->
<!DOCTYPE svg PUBLIC "-//W3C//DTD SVG 1.1//EN" "http://www.w3.org/Graphics/SVG/1.1/DTD/svg11.dtd" [
	<!ENTITY ns_extend "http://ns.adobe.com/Extensibility/1.0/">
	<!ENTITY ns_ai "http://ns.adobe.com/AdobeIllustrator/10.0/">
	<!ENTITY ns_graphs "http://ns.adobe.com/Graphs/1.0/">
	<!ENTITY ns_vars "http://ns.adobe.com/Variables/1.0/">
	<!ENTITY ns_imrep "http://ns.adobe.com/ImageReplacement/1.0/">
	<!ENTITY ns_sfw "http://ns.adobe.com/SaveForWeb/1.0/">
	<!ENTITY ns_custom "http://ns.adobe.com/GenericCustomNamespace/1.0/">
	<!ENTITY ns_adobe_xpath "http://ns.adobe.com/XPath/1.0/">
]>
<svg version="1.1" id="Layer_1" xmlns:x="&ns_extend;" xmlns:i="&ns_ai;" xmlns:graph="&ns_graphs;"
	 xmlns="http://www.w3.org/2000/svg" xmlns:xlink="http://www.w3.org/1999/xlink" x="0px" y="0px" viewBox="0 0 140.1 140.1"
	 style="enable-background:new 0 0 140.1 140.1;" xml:space="preserve">
<style type="text/css">
	.st0{fill:#00316F;}
	.st1{fill:url(#SVGID_1_);}
	.st2{fill:#FFFFFF;}
</style>
<metadata>
	<sfw  xmlns="&ns_sfw;">
		<slices></slices>
		<sliceSourceBounds  bottomLeftOrigin="true" height="140.1" width="140.1" x="-149" y="-21.3"></sliceSourceBounds>
	</sfw>
</metadata>
<circle class="st0" cx="70" cy="70" r="70"/>
<g>
	<g>
		<g>
			<g>
				<linearGradient id="SVGID_1_" gradientUnits="userSpaceOnUse" x1="74.4271" y1="88.9229" x2="77.9403" y2="88.9229">
					<stop  offset="0" style="stop-color:#32FFC2"/>
					<stop  offset="1" style="stop-color:#00A9EB"/>
				</linearGradient>
				<path class="st1" d="M77.5,93l-2.7-8.3l-0.4-1.1c0.5,3.8,1.7,7.4,3.5,10.6L77.5,93z"/>
			</g>
			<path class="st2" d="M112.9,69.3C112.9,69.3,112.9,69.3,112.9,69.3c0-0.9,0-1.8-0.1-2.6c0,0,0,0,0,0c0-0.8-0.1-1.6-0.2-2.4
				c-0.4-3.1-1.1-6.1-2.2-9c-0.5-1.3-1-2.6-1.6-3.9c-0.6-1.3-1.3-2.5-2-3.7c-2.9-4.9-6.8-9.1-11.4-12.4h0c-0.7-0.5-1.4-1-2.1-1.4
				c0,0,0,0,0,0c-0.7-0.5-1.5-0.9-2.2-1.3c0,0,0,0,0,0c-6.2-3.4-13.3-5.4-20.9-5.4c-23.8-0.1-43,19-43,42.9
				c0,23.8,19.1,43,42.9,42.9c7.8,0,15.1-2.1,21.4-5.7c1.2-0.7,2.4-1.5,3.6-2.3c1-0.7,2-1.5,3-2.4c9.1-7.8,14.9-19.5,14.9-32.5
				C112.9,69.8,112.9,69.6,112.9,69.3z M93,100.3c-0.9,0.7-1.9,1.4-2.9,2c-1.1,0.7-2.3,1.3-3.5,1.9c-5,2.5-10.7,3.8-16.7,3.8
				C49,108.1,31.9,91,32,70c0-21,17.1-38,38.1-38c6.3,0,12.3,1.6,17.6,4.4c0,0,0,0,0,0c0.7,0.4,1.4,0.8,2.1,1.2c0,0,0,0,0,0
				c0.7,0.4,1.4,0.9,2,1.3c3.6,2.5,6.7,5.6,9.2,9.2c0.8,1.1,1.5,2.2,2.1,3.3c0.7,1.1,1.2,2.3,1.8,3.5c1.5,3.4,2.5,7,2.9,10.8
				c0.1,0.7,0.2,1.5,0.2,2.2c0,0,0,0,0,0.1c0,0.7,0,1.4,0,2.1v0.3c0,0,0,0,0,0.1C108,82.6,102.1,93.4,93,100.3z"/>
			<g id="XMLID_4_">
				<path class="st2" d="M80.7,101.9c-3.4,1.1-7,1.8-10.8,1.7c-4.1,0-7.9-0.8-11.5-2.1L62.7,90l2.9-7.7l2.9-8.5l1-2.8l0.2-0.3
					c0,0,0.1-0.1,0.1-0.2l0.1-0.1h0.1l0.1,0.1l0.2,0.2l0.3,0.8l0.6,1.6l2,6.1l1.4,4.3l0.4,1.1l2.7,8.3l0.4,1.2l1.7,4.6L80.7,101.9z"
					/>
				<path class="st2" d="M103.4,70.4L103.4,70.4c-0.1,9.5-4,17.9-10.3,23.9L89,88.2l-2.7-4.6l-2.7-5.4l-2-4l-0.3-0.7l-1.8-4.3
					L79.5,69l-1.4-4.1l-0.3-0.7l-1.1-3.4l-1.5-4.7l-1.5-4.9l-1.3-4.9L71,40.9l-0.8-2.6l-1.6,5.1l-2.2,7.2l-1.8,5.5l-2.1,6.1l-1.8,5
					l-1.9,4.8l-2.1,4.6l-2.5,4.9l-7.3,12.6c0-0.1-0.1-0.1-0.2-0.2c-6.2-6.2-9.9-14.6-9.9-24C37,51.6,52,36.6,70.4,36.8
					c5.4,0,10.5,1.4,15,3.7h0c0.7,0.4,1.4,0.8,2.1,1.2c0,0,0,0,0,0c0.7,0.4,1.4,0.9,2.1,1.4c2.4,1.7,4.6,3.8,6.4,6.1
					c0.8,1,1.5,2,2.2,3c0.7,1,1.3,2.1,1.8,3.2c1.6,3.2,2.6,6.6,3.1,10.3c0.1,0.7,0.2,1.5,0.2,2.3c0,0,0,0,0,0.1
					C103.4,68.8,103.4,69.6,103.4,70.4z"/>
			</g>
			<g>
				<path class="st2" d="M57.6,101.2c0.3,0.1,0.5,0.2,0.8,0.3v0C58.1,101.4,57.9,101.3,57.6,101.2z"/>
			</g>
		</g>
	</g>
</g>
</svg>
