<?xml version="1.0" encoding="utf-8"?>
<!-- Generator: Adobe Illustrator 23.0.3, SVG Export Plug-In . SVG Version: 6.00 Build 0)  -->
<!DOCTYPE svg PUBLIC "-//W3C//DTD SVG 1.1//EN" "http://www.w3.org/Graphics/SVG/1.1/DTD/svg11.dtd" [
	<!ENTITY ns_extend "http://ns.adobe.com/Extensibility/1.0/">
	<!ENTITY ns_ai "http://ns.adobe.com/AdobeIllustrator/10.0/">
	<!ENTITY ns_graphs "http://ns.adobe.com/Graphs/1.0/">
	<!ENTITY ns_vars "http://ns.adobe.com/Variables/1.0/">
	<!ENTITY ns_imrep "http://ns.adobe.com/ImageReplacement/1.0/">
	<!ENTITY ns_sfw "http://ns.adobe.com/SaveForWeb/1.0/">
	<!ENTITY ns_custom "http://ns.adobe.com/GenericCustomNamespace/1.0/">
	<!ENTITY ns_adobe_xpath "http://ns.adobe.com/XPath/1.0/">
]>
<svg version="1.1" id="Layer_1" xmlns:x="&ns_extend;" xmlns:i="&ns_ai;" xmlns:graph="&ns_graphs;"
	 xmlns="http://www.w3.org/2000/svg" xmlns:xlink="http://www.w3.org/1999/xlink" x="0px" y="0px" viewBox="0 0 77.8 112"
	 style="enable-background:new 0 0 77.8 112;" xml:space="preserve">
<style type="text/css">
	.st0{opacity:0.25;fill:none;stroke:#000000;stroke-width:2;stroke-miterlimit:10;}
	.st1{opacity:0.25;}
</style>
<metadata>
	<sfw  xmlns="&ns_sfw;">
		<slices></slices>
		<sliceSourceBounds  bottomLeftOrigin="true" height="111.9" width="77.7" x="10.6" y="6.9"></sliceSourceBounds>
	</sfw>
</metadata>
<circle class="st0" cx="39.4" cy="101.2" r="5.4"/>
<g class="st1">
	<path d="M14.4,24.6c-1.3,0-2.4-1.1-2.4-2.4c0-1.3,1.1-2.4,2.4-2.4c1.3,0,2.4,1.1,2.4,2.4C16.8,23.5,15.7,24.6,14.4,24.6z
		 M14.4,21.6c-0.4,0-0.6,0.3-0.6,0.6c0,0.4,0.3,0.6,0.6,0.6c0.4,0,0.6-0.3,0.6-0.6C15,21.9,14.7,21.6,14.4,21.6z"/>
</g>
<g class="st1">
	<path d="M19.9,24.6c-1.3,0-2.4-1.1-2.4-2.4c0-1.3,1.1-2.4,2.4-2.4c1.3,0,2.4,1.1,2.4,2.4C22.3,23.5,21.2,24.6,19.9,24.6z
		 M19.9,21.6c-0.4,0-0.6,0.3-0.6,0.6c0,0.4,0.3,0.6,0.6,0.6s0.6-0.3,0.6-0.6C20.5,21.9,20.3,21.6,19.9,21.6z"/>
</g>
<g class="st1">
	<path d="M25.4,24.6c-1.3,0-2.4-1.1-2.4-2.4c0-1.3,1.1-2.4,2.4-2.4c1.3,0,2.4,1.1,2.4,2.4C27.8,23.5,26.8,24.6,25.4,24.6z
		 M25.4,21.6c-0.4,0-0.6,0.3-0.6,0.6c0,0.4,0.3,0.6,0.6,0.6c0.4,0,0.6-0.3,0.6-0.6C26.1,21.9,25.8,21.6,25.4,21.6z"/>
</g>
<g class="st1">
	<path d="M64.8,40.4H13.6c-0.6,0-1.1-0.5-1.1-1.1c0-0.6,0.5-1.1,1.1-1.1h51.2c0.6,0,1.1,0.5,1.1,1.1C65.9,39.9,65.4,40.4,64.8,40.4z
		"/>
</g>
<g class="st1">
	<path d="M48.5,9.4H29.8c-0.2,0-0.4-0.5-0.4-1.1s0.2-1.1,0.4-1.1h18.7c0.2,0,0.4,0.5,0.4,1.1S48.7,9.4,48.5,9.4z"/>
</g>
<g class="st1">
	<path d="M58.8,45.6H18.8c-0.6,0-1.1-0.5-1.1-1.1c0-0.6,0.5-1.1,1.1-1.1h40.1c0.6,0,1.1,0.5,1.1,1.1C60,45.1,59.5,45.6,58.8,45.6z"
		/>
</g>
<path class="st1" d="M35.8,68.1l-0.6,3.7c0,0.2,0.1,0.5,0.3,0.6c0.2,0.1,0.5,0.2,0.7,0l3.3-1.7l3.3,1.7c0.1,0,0.2,0.1,0.3,0.1
	c0.1,0,0.3,0,0.4-0.1c0.2-0.1,0.3-0.4,0.3-0.6L43,68.1l2.7-2.6c0.2-0.2,0.2-0.4,0.2-0.7c-0.1-0.2-0.3-0.4-0.5-0.4l-3.7-0.5L40,60.5
	c-0.1-0.2-0.3-0.4-0.6-0.4c-0.2,0-0.5,0.1-0.6,0.4l-1.6,3.3l-3.7,0.5c-0.2,0-0.4,0.2-0.5,0.4c-0.1,0.2,0,0.5,0.2,0.7L35.8,68.1z
	 M37.7,65.1c0.2,0,0.4-0.2,0.5-0.4l1.2-2.5l1.2,2.5c0.1,0.2,0.3,0.3,0.5,0.4l2.7,0.4l-2,1.9c-0.2,0.1-0.2,0.4-0.2,0.6l0.5,2.7
	l-2.4-1.3c-0.2-0.1-0.4-0.1-0.6,0l-2.4,1.3l0.5-2.7c0-0.2,0-0.4-0.2-0.6l-2-1.9L37.7,65.1z"/>
<path class="st0" d="M59.1,76H19.7c-1.8,0-3.2-1.5-3.2-3.2V60.2c0-1.8,1.5-3.2,3.2-3.2h39.4c1.8,0,3.2,1.5,3.2,3.2v12.5
	C62.3,74.5,60.9,76,59.1,76z"/>
<path class="st0" d="M66.5,110.9H11.1c-5.6,0-10.1-4.6-10.1-10.1V11.2C1,5.6,5.6,1,11.1,1h55.4c5.6,0,10.1,4.6,10.1,10.1v89.6
	C76.7,106.4,72.1,110.9,66.5,110.9z"/>
<path class="st0" d="M66.8,90.7H10.9c-1.8,0-3.2-1.5-3.2-3.2V18.9c0-1.8,1.5-3.2,3.2-3.2h55.9c1.8,0,3.2,1.5,3.2,3.2v68.5
	C70,89.3,68.6,90.7,66.8,90.7z"/>
</svg>
