<?xml version="1.0" encoding="utf-8"?>
<!-- Generator: Adobe Illustrator 23.0.1, SVG Export Plug-In . SVG Version: 6.00 Build 0)  -->
<svg version="1.1" id="Layer_1" xmlns="http://www.w3.org/2000/svg" xmlns:xlink="http://www.w3.org/1999/xlink" x="0px" y="0px"
	 viewBox="0 0 26 32" style="enable-background:new 0 0 26 32;" xml:space="preserve">
<style type="text/css">
	.st0{fill:#002248;}
</style>
<g>
	<g>
		<path class="st0" d="M13,23c-0.3,0-0.5-0.1-0.7-0.3l-4-4c-0.4-0.4-0.4-1,0-1.4s1-0.4,1.4,0l3.3,3.3l3.3-3.3c0.4-0.4,1-0.4,1.4,0
			s0.4,1,0,1.4l-4,4C13.5,22.9,13.3,23,13,23z"/>
		<path class="st0" d="M13,23c-0.6,0-1-0.4-1-1V12c0-0.6,0.4-1,1-1s1,0.4,1,1v10C14,22.6,13.6,23,13,23z"/>
		<path class="st0" d="M19,27H7c-0.6,0-1-0.4-1-1s0.4-1,1-1h12c0.6,0,1,0.4,1,1S19.6,27,19,27z"/>
		<path class="st0" d="M23.4,32H2.6C1.2,32,0,30.9,0,29.5V9c0-0.9,0.4-1.7,1-2.3L6.6,1C7.2,0.3,8.1,0,9,0h14.5C24.8,0,26,1.1,26,2.5
			v27C26,30.9,24.9,32,23.4,32z M9,2C8.6,2,8.3,2.1,8,2.4L2.4,8C2.1,8.3,2,8.6,2,9v20.5C2,29.8,2.3,30,2.6,30h20.9
			c0.3,0,0.6-0.2,0.6-0.5v-27C24,2.2,23.7,2,23.4,2H9z"/>
		<path class="st0" d="M7.5,10H4c-0.6,0-1-0.4-1-1s0.4-1,1-1h3.5C7.8,8,8,7.8,8,7.5V4c0-0.6,0.4-1,1-1s1,0.4,1,1v3.5
			C10,8.9,8.9,10,7.5,10z"/>
	</g>
</g>
</svg>
