<?xml version="1.0" encoding="utf-8"?>
<!-- Generator: Adobe Illustrator 23.0.3, SVG Export Plug-In . SVG Version: 6.00 Build 0)  -->
<!DOCTYPE svg PUBLIC "-//W3C//DTD SVG 1.1//EN" "http://www.w3.org/Graphics/SVG/1.1/DTD/svg11.dtd" [
	<!ENTITY ns_extend "http://ns.adobe.com/Extensibility/1.0/">
	<!ENTITY ns_ai "http://ns.adobe.com/AdobeIllustrator/10.0/">
	<!ENTITY ns_graphs "http://ns.adobe.com/Graphs/1.0/">
	<!ENTITY ns_vars "http://ns.adobe.com/Variables/1.0/">
	<!ENTITY ns_imrep "http://ns.adobe.com/ImageReplacement/1.0/">
	<!ENTITY ns_sfw "http://ns.adobe.com/SaveForWeb/1.0/">
	<!ENTITY ns_custom "http://ns.adobe.com/GenericCustomNamespace/1.0/">
	<!ENTITY ns_adobe_xpath "http://ns.adobe.com/XPath/1.0/">
]>
<svg version="1.1" id="Layer_1" xmlns:x="&ns_extend;" xmlns:i="&ns_ai;" xmlns:graph="&ns_graphs;"
	 xmlns="http://www.w3.org/2000/svg" xmlns:xlink="http://www.w3.org/1999/xlink" x="0px" y="0px" viewBox="0 0 77.7 112"
	 style="enable-background:new 0 0 77.7 112;" xml:space="preserve">
<style type="text/css">
	.st0{opacity:0.25;fill:none;stroke:#000000;stroke-width:2;stroke-miterlimit:10;}
	.st1{opacity:0.25;}
</style>
<metadata>
	<sfw  xmlns="&ns_sfw;">
		<slices></slices>
		<sliceSourceBounds  bottomLeftOrigin="true" height="111.9" width="77.7" x="10.6" y="6.9"></sliceSourceBounds>
	</sfw>
</metadata>
<circle class="st0" cx="39.4" cy="101.2" r="5.4"/>
<g class="st1">
	<path d="M14.4,24.6c-1.3,0-2.4-1.1-2.4-2.4c0-1.3,1.1-2.4,2.4-2.4c1.3,0,2.4,1.1,2.4,2.4C16.8,23.5,15.7,24.6,14.4,24.6z
		 M14.4,21.6c-0.4,0-0.6,0.3-0.6,0.6c0,0.4,0.3,0.6,0.6,0.6c0.4,0,0.6-0.3,0.6-0.6C15,21.9,14.7,21.6,14.4,21.6z"/>
</g>
<g class="st1">
	<path d="M19.9,24.6c-1.3,0-2.4-1.1-2.4-2.4c0-1.3,1.1-2.4,2.4-2.4c1.3,0,2.4,1.1,2.4,2.4C22.3,23.5,21.2,24.6,19.9,24.6z
		 M19.9,21.6c-0.4,0-0.6,0.3-0.6,0.6c0,0.4,0.3,0.6,0.6,0.6s0.6-0.3,0.6-0.6C20.5,21.9,20.3,21.6,19.9,21.6z"/>
</g>
<g class="st1">
	<path d="M25.4,24.6c-1.3,0-2.4-1.1-2.4-2.4c0-1.3,1.1-2.4,2.4-2.4c1.3,0,2.4,1.1,2.4,2.4C27.8,23.5,26.8,24.6,25.4,24.6z
		 M25.4,21.6c-0.4,0-0.6,0.3-0.6,0.6c0,0.4,0.3,0.6,0.6,0.6c0.4,0,0.6-0.3,0.6-0.6C26.1,21.9,25.8,21.6,25.4,21.6z"/>
</g>
<g class="st1">
	<path d="M55.9,75.3h-35c-0.4,0-0.8-0.3-0.8-0.8s0.3-0.8,0.8-0.8h35c0.4,0,0.8,0.3,0.8,0.8S56.3,75.3,55.9,75.3z"/>
</g>
<g class="st1">
	<path d="M48.5,9.4H29.8c-0.2,0-0.4-0.5-0.4-1.1s0.2-1.1,0.4-1.1h18.7c0.2,0,0.4,0.5,0.4,1.1S48.7,9.4,48.5,9.4z"/>
</g>
<g class="st1">
	<path d="M51.8,78.8H24.5c-0.4,0-0.8-0.3-0.8-0.8c0-0.4,0.3-0.8,0.8-0.8h27.4c0.4,0,0.8,0.3,0.8,0.8C52.6,78.5,52.2,78.8,51.8,78.8z
		"/>
</g>
<path class="st1" d="M30.4,54.1l-1.5,8.8c-0.1,0.6,0.1,1.2,0.6,1.5c0.5,0.3,1.1,0.4,1.6,0.1l7.9-4.1l7.9,4.1
	c0.2,0.1,0.5,0.2,0.7,0.2c0.3,0,0.6-0.1,0.9-0.3c0.5-0.3,0.7-0.9,0.6-1.5l-1.5-8.8l6.4-6.2c0.4-0.4,0.6-1,0.4-1.6
	c-0.2-0.6-0.7-1-1.2-1.1L44.4,44l-3.9-8c-0.3-0.5-0.8-0.9-1.4-0.9c-0.6,0-1.1,0.3-1.4,0.9l-3.9,8l-8.8,1.3c-0.6,0.1-1.1,0.5-1.2,1.1
	c-0.2,0.6,0,1.2,0.4,1.6L30.4,54.1z M35,47c0.5-0.1,0.9-0.4,1.2-0.8l2.9-5.9l2.9,5.9c0.2,0.5,0.7,0.8,1.2,0.8l6.5,0.9l-4.7,4.6
	c-0.4,0.4-0.5,0.9-0.4,1.4l1.1,6.5l-5.8-3.1c-0.4-0.2-1-0.2-1.4,0l-5.8,3.1l1.1-6.5c0.1-0.5-0.1-1-0.4-1.4l-4.7-4.6L35,47z"/>
<path class="st0" d="M59.1,84.9H19.7c-1.8,0-3.2-1.5-3.2-3.2V31.9c0-1.8,1.5-3.2,3.2-3.2h39.4c1.8,0,3.2,1.5,3.2,3.2v49.9
	C62.3,83.5,60.9,84.9,59.1,84.9z"/>
<path class="st0" d="M66.5,111H11.1C5.6,111,1,106.4,1,100.8V11.2C1,5.6,5.6,1.1,11.1,1.1h55.4c5.6,0,10.1,4.6,10.1,10.1v89.6
	C76.7,106.4,72.1,111,66.5,111z"/>
<path class="st0" d="M66.8,90.7H10.9c-1.8,0-3.2-1.5-3.2-3.2V19c0-1.8,1.5-3.2,3.2-3.2h55.9c1.8,0,3.2,1.5,3.2,3.2v68.5
	C70,89.3,68.6,90.7,66.8,90.7z"/>
</svg>
