<?xml version="1.0" encoding="utf-8"?>
<!-- Generator: Adobe Illustrator 23.0.3, SVG Export Plug-In . SVG Version: 6.00 Build 0)  -->
<!DOCTYPE svg PUBLIC "-//W3C//DTD SVG 1.1//EN" "http://www.w3.org/Graphics/SVG/1.1/DTD/svg11.dtd" [
	<!ENTITY ns_extend "http://ns.adobe.com/Extensibility/1.0/">
	<!ENTITY ns_ai "http://ns.adobe.com/AdobeIllustrator/10.0/">
	<!ENTITY ns_graphs "http://ns.adobe.com/Graphs/1.0/">
	<!ENTITY ns_vars "http://ns.adobe.com/Variables/1.0/">
	<!ENTITY ns_imrep "http://ns.adobe.com/ImageReplacement/1.0/">
	<!ENTITY ns_sfw "http://ns.adobe.com/SaveForWeb/1.0/">
	<!ENTITY ns_custom "http://ns.adobe.com/GenericCustomNamespace/1.0/">
	<!ENTITY ns_adobe_xpath "http://ns.adobe.com/XPath/1.0/">
]>
<svg version="1.1" id="Isolation_Mode" xmlns:x="&ns_extend;" xmlns:i="&ns_ai;" xmlns:graph="&ns_graphs;"
	 xmlns="http://www.w3.org/2000/svg" xmlns:xlink="http://www.w3.org/1999/xlink" x="0px" y="0px" viewBox="0 0 60 60"
	 style="enable-background:new 0 0 60 60;" xml:space="preserve">
<style type="text/css">
	.st0{opacity:0.25;}
	.st1{fill:#010101;}
	.st2{fill:#FFFFFF;}
</style>
<metadata>
	<sfw  xmlns="&ns_sfw;">
		<slices></slices>
		<sliceSourceBounds  bottomLeftOrigin="true" height="60" width="60" x="2" y="18"></sliceSourceBounds>
	</sfw>
</metadata>
<g class="st0">
	<path d="M59,26h-2V12.8c1.2-0.4,2-1.5,2-2.8c0-1.7-1.3-3-3-3s-3,1.3-3,3c0,1.3,0.8,2.4,2,2.8v7c-2.7-6.7-8-12-14.8-14.8h7
		c0.4,1.2,1.5,2,2.8,2c1.7,0,3-1.3,3-3s-1.3-3-3-3c-1.3,0-2.4,0.8-2.8,2H34V1c0-0.6-0.4-1-1-1h-6c-0.6,0-1,0.4-1,1v2H12.8
		c-0.4-1.2-1.5-2-2.8-2C8.3,1,7,2.4,7,4s1.3,3,3,3c1.3,0,2.4-0.8,2.8-2h7C13,7.7,7.7,13.1,5,19.8v-7c1.2-0.4,2-1.5,2-2.8
		c0-1.7-1.3-3-3-3s-3,1.3-3,3c0,1.3,0.8,2.4,2,2.8V26H1c-0.6,0-1,0.4-1,1v6c0,0.6,0.4,1,1,1h2v13.2c-1.2,0.4-2,1.5-2,2.8
		c0,1.7,1.3,3,3,3s3-1.3,3-3c0-1.3-0.8-2.4-2-2.8v-7C7.7,47,13,52.3,19.8,55h-7c-0.4-1.2-1.5-2-2.8-2c-1.7,0-3,1.3-3,3s1.3,3,3,3
		c1.3,0,2.4-0.8,2.8-2H26v2c0,0.6,0.4,1,1,1h6c0.6,0,1-0.4,1-1v-2h13.2c0.4,1.2,1.5,2,2.8,2c1.7,0,3-1.3,3-3s-1.3-3-3-3
		c-1.3,0-2.4,0.8-2.8,2h-7c6.7-2.7,12-8,14.8-14.8v7c-1.2,0.4-2,1.5-2,2.8c0,1.7,1.3,3,3,3s3-1.3,3-3c0-1.3-0.8-2.4-2-2.8V34h2
		c0.6,0,1-0.4,1-1v-6C60,26.5,59.5,26,59,26z M56,9c0.6,0,1,0.4,1,1s-0.4,1-1,1s-1-0.4-1-1S55.4,9,56,9z M50,3c0.6,0,1,0.4,1,1
		s-0.4,1-1,1s-1-0.4-1-1S49.4,3,50,3z M28,2h4v4h-4V2z M10,5C9.4,5,9,4.6,9,4s0.4-1,1-1s1,0.4,1,1S10.5,5,10,5z M4,9
		c0.6,0,1,0.4,1,1s-0.4,1-1,1s-1-0.4-1-1S3.4,9,4,9z M2,28h4v4H2V28z M4,51c-0.6,0-1-0.4-1-1s0.4-1,1-1s1,0.4,1,1S4.5,51,4,51z
		 M10,57c-0.6,0-1-0.4-1-1s0.4-1,1-1s1,0.4,1,1S10.5,57,10,57z M32,58h-4v-4h4V58z M50,55c0.6,0,1,0.4,1,1s-0.4,1-1,1s-1-0.4-1-1
		S49.4,55,50,55z M34,54.7V53c0-0.6-0.4-1-1-1h-6c-0.6,0-1,0.4-1,1v1.7C15.3,53,7,44.7,5.3,34H7c0.6,0,1-0.4,1-1v-6c0-0.6-0.4-1-1-1
		H5.3C7,15.3,15.3,7.1,26,5.4V7c0,0.6,0.4,1,1,1h6c0.6,0,1-0.4,1-1V5.4c10.5,1.7,19,10.1,20.7,20.7H53c-0.6,0-1,0.4-1,1v6
		c0,0.6,0.4,1,1,1h1.7C52.9,44.5,44.5,53,34,54.7z M56,51c-0.6,0-1-0.4-1-1s0.4-1,1-1s1,0.4,1,1S56.5,51,56,51z M58,32h-4v-4h4V32z"
		/>
</g>
<g class="st0">
	<g>
		<g>
			<g id="XMLID_26_">
				<path class="st1" d="M44.9,30.6c-0.1,8.2-6.7,14.8-14.9,14.8c-4.1,0-7.7-1.7-10.3-4.3c-2.7-2.7-4.4-6.5-4.4-10.7
					c0.1-8.2,6.7-14.8,14.9-14.8S44.9,22.3,44.9,30.6z"/>
			</g>
			<g>
				<path class="st2" d="M23,35.5l-3.3,5.6c0,0,1.3,1.8,5.1,3.3l1.9-5.1l1.3-3.4l1.3-3.8l0.5-1.2l0.1-0.1c0,0,0,0,0-0.1l0,0l0,0h0h0
					l0,0l0.1,0.1l0.1,0.4l0.3,0.7l0.9,2.7l0.8,2.4l1.2,3.7l0.9,2.6l0.5,1.4c0,0,3-0.8,5.6-3.4l-1.9-2.8l-1.2-2.1L36.1,34l-1-2.1
					L34.3,30l-0.7-1.9L33,26.3l-0.7-2.1L31.7,22l-0.6-2.2l-0.7-2.4l-0.4-1.2l-0.7,2.3l-1,3.2l-0.8,2.5l-0.9,2.7l-0.8,2.2L25,31.3
					l-0.9,2.1L23,35.5z"/>
			</g>
		</g>
	</g>
</g>
</svg>
