<?xml version="1.0" encoding="utf-8"?>
<!-- Generator: Adobe Illustrator 23.0.3, SVG Export Plug-In . SVG Version: 6.00 Build 0)  -->
<!DOCTYPE svg PUBLIC "-//W3C//DTD SVG 1.1//EN" "http://www.w3.org/Graphics/SVG/1.1/DTD/svg11.dtd" [
	<!ENTITY ns_extend "http://ns.adobe.com/Extensibility/1.0/">
	<!ENTITY ns_ai "http://ns.adobe.com/AdobeIllustrator/10.0/">
	<!ENTITY ns_graphs "http://ns.adobe.com/Graphs/1.0/">
	<!ENTITY ns_vars "http://ns.adobe.com/Variables/1.0/">
	<!ENTITY ns_imrep "http://ns.adobe.com/ImageReplacement/1.0/">
	<!ENTITY ns_sfw "http://ns.adobe.com/SaveForWeb/1.0/">
	<!ENTITY ns_custom "http://ns.adobe.com/GenericCustomNamespace/1.0/">
	<!ENTITY ns_adobe_xpath "http://ns.adobe.com/XPath/1.0/">
]>
<svg version="1.1" id="Layer_1" xmlns:x="&ns_extend;" xmlns:i="&ns_ai;" xmlns:graph="&ns_graphs;"
	 xmlns="http://www.w3.org/2000/svg" xmlns:xlink="http://www.w3.org/1999/xlink" x="0px" y="0px" viewBox="0 0 65.7 90"
	 style="enable-background:new 0 0 65.7 90;" xml:space="preserve">
<style type="text/css">
	.st0{opacity:0.25;}
</style>
<metadata>
	<sfw  xmlns="&ns_sfw;">
		<slices></slices>
		<sliceSourceBounds  bottomLeftOrigin="true" height="90" width="65.7" x="17.2" y="30"></sliceSourceBounds>
	</sfw>
</metadata>
<path class="st0" d="M24.7,36.8l-1.4,8.3c-0.1,0.5,0.1,1.1,0.6,1.4c0.4,0.3,1,0.4,1.5,0.1l7.4-3.9l7.4,3.9c0.2,0.1,0.4,0.2,0.7,0.2
	c0.3,0,0.6-0.1,0.9-0.3c0.4-0.3,0.7-0.9,0.6-1.4l-1.4-8.3l6-5.8c0.4-0.4,0.5-1,0.4-1.5c-0.2-0.5-0.6-0.9-1.2-1l-8.3-1.2l-3.7-7.5
	c-0.2-0.5-0.7-0.8-1.3-0.8c-0.6,0-1.1,0.3-1.3,0.8l-3.7,7.5l-8.3,1.2c-0.5,0.1-1,0.5-1.2,1c-0.2,0.5,0,1.1,0.4,1.5L24.7,36.8z
	 M29,30.1c0.5-0.1,0.9-0.4,1.1-0.8l2.7-5.6l2.7,5.6c0.2,0.4,0.6,0.7,1.1,0.8l6.1,0.9l-4.4,4.3c-0.3,0.3-0.5,0.8-0.4,1.3l1,6.1
	l-5.5-2.9c-0.4-0.2-0.9-0.2-1.4,0l-5.5,2.9l1-6.1c0.1-0.5-0.1-1-0.4-1.3L22.9,31L29,30.1z"/>
<path class="st0" d="M4.9,38.4l-2.4,5.9c-0.3,0.7,0,1.6,0.8,1.9l5.9,2.4v6.4c0,0.8,0.6,1.5,1.5,1.5H17l2.3,5.6l-3.2,26.3
	c-0.1,0.5,0.2,1.1,0.6,1.4c0.4,0.3,1,0.4,1.5,0.1l14.5-7.1l14.5,7.1c0.2,0.1,0.4,0.1,0.6,0.1c0.3,0,0.6-0.1,0.8-0.3
	c0.4-0.3,0.7-0.8,0.6-1.4l-3.1-26.3l2.3-5.6H55c0.8,0,1.5-0.7,1.5-1.5v-6.4l5.9-2.4c0.4-0.1,0.6-0.4,0.8-0.8s0.1-0.8,0-1.1l-2.4-5.9
	l4.5-4.5c0.6-0.6,0.6-1.5,0-2.1l-4.5-4.5l2.4-5.9c0.1-0.4,0.1-0.8,0-1.1c-0.1-0.4-0.4-0.6-0.8-0.8l-5.9-2.4l0-6.4
	c0-0.4-0.2-0.8-0.4-1c-0.3-0.3-0.6-0.4-1-0.4h-6.4l-2.4-5.9C46,3,45.7,2.7,45.4,2.5s-0.8-0.1-1.1,0L38.4,5l-4.5-4.5
	c-0.6-0.6-1.5-0.6-2.1,0L27.3,5l-5.9-2.4c-0.7-0.3-1.6,0-1.9,0.8L17,9.2h-6.4c-0.8,0-1.5,0.6-1.5,1.5v6.4l-5.9,2.4
	c-0.4,0.1-0.6,0.4-0.8,0.8s-0.1,0.8,0,1.1l2.4,5.9l-4.5,4.5c-0.6,0.6-0.6,1.5,0,2.1L4.9,38.4z M33.4,79.9c-0.4-0.2-0.9-0.2-1.3,0
	l-12.8,6.3l2.8-23.2l5.1-2.1l4.5,4.5c0.3,0.3,0.6,0.4,1,0.4s0.8-0.2,1-0.4l4.5-4.5l5.1,2.1l2.7,23.2L33.4,79.9z M7.7,28.7
	c0.4-0.4,0.5-1,0.3-1.6l-2.3-5.5l5.5-2.3c0.5-0.2,0.9-0.8,0.9-1.3v-5.9H18c0.6,0,1.1-0.4,1.3-0.9l2.3-5.5l5.5,2.3
	c0.5,0.2,1.2,0.1,1.6-0.3l4.2-4.2L37,7.7c0.4,0.4,1,0.5,1.6,0.3L44,5.8l2.3,5.5c0.2,0.5,0.8,0.9,1.3,0.9h5.9l0,5.9
	c0,0.6,0.4,1.1,0.9,1.3l5.5,2.3l-2.3,5.5c-0.2,0.5-0.1,1.2,0.3,1.6l4.2,4.2L58,37.1c-0.4,0.4-0.5,1-0.3,1.6l2.3,5.5l-5.5,2.3
	c-0.5,0.2-0.9,0.8-0.9,1.3v5.9h-5.9c-0.6,0-1.1,0.4-1.3,0.9L44,60l-5.5-2.3C38,57.5,37.4,57.6,37,58l-4.2,4.2L28.6,58
	c-0.3-0.3-0.6-0.4-1-0.4c-0.2,0-0.4,0-0.6,0.1L21.6,60l-2.3-5.5c-0.2-0.5-0.8-0.9-1.3-0.9h-5.9v-5.9c0-0.6-0.4-1.1-0.9-1.3l-5.5-2.3
	L8,38.7c0.2-0.5,0.1-1.2-0.3-1.6l-4.2-4.2L7.7,28.7z"/>
</svg>
