<?xml version="1.0" encoding="utf-8"?>
<!-- Generator: Adobe Illustrator 23.0.3, SVG Export Plug-In . SVG Version: 6.00 Build 0)  -->
<!DOCTYPE svg PUBLIC "-//W3C//DTD SVG 1.1//EN" "http://www.w3.org/Graphics/SVG/1.1/DTD/svg11.dtd" [
	<!ENTITY ns_extend "http://ns.adobe.com/Extensibility/1.0/">
	<!ENTITY ns_ai "http://ns.adobe.com/AdobeIllustrator/10.0/">
	<!ENTITY ns_graphs "http://ns.adobe.com/Graphs/1.0/">
	<!ENTITY ns_vars "http://ns.adobe.com/Variables/1.0/">
	<!ENTITY ns_imrep "http://ns.adobe.com/ImageReplacement/1.0/">
	<!ENTITY ns_sfw "http://ns.adobe.com/SaveForWeb/1.0/">
	<!ENTITY ns_custom "http://ns.adobe.com/GenericCustomNamespace/1.0/">
	<!ENTITY ns_adobe_xpath "http://ns.adobe.com/XPath/1.0/">
]>
<svg version="1.1" id="Isolation_Mode" xmlns:x="&ns_extend;" xmlns:i="&ns_ai;" xmlns:graph="&ns_graphs;"
	 xmlns="http://www.w3.org/2000/svg" xmlns:xlink="http://www.w3.org/1999/xlink" x="0px" y="0px" viewBox="0 0 62.5 86.2"
	 style="enable-background:new 0 0 62.5 86.2;" xml:space="preserve">
<style type="text/css">
	.st0{opacity:0.25;}
</style>
<metadata>
	<sfw  xmlns="&ns_sfw;">
		<slices></slices>
		<sliceSourceBounds  bottomLeftOrigin="true" height="85.7" width="63.4" x="0.9" y="21.1"></sliceSourceBounds>
	</sfw>
</metadata>
<g class="st0">
	<path d="M57,12.2V0.3l0,0H6.5C2.9,0.3,0,3.2,0,6.8v60.8c0,3.5,2.8,6.4,6.4,6.5v5.4V86h6.5h27.3h16.7c3.6,0,6.5-2.9,6.5-6.5V18.7
		C63.4,15.1,60.5,12.2,57,12.2z M6.4,13.5v5.2v53.2c-2.5-0.1-4.5-2.1-4.5-4.7V7.1c0-2.6,2.1-4.7,4.7-4.7h2.2l0,0h39L6.4,12.2V13.5z
		 M54.8,3v9.2H40.2H16L54.8,3z M61.5,79.1c0,2.6-2.1,4.7-4.7,4.7H12.9l0,0H8.3v-4.7V19v-4.7h46.3l0,0h2.2c2.6,0,4.7,2.1,4.7,4.7
		V79.1z"/>
	<path d="M50.8,66.9H19.4c-0.5,0-0.9,0.4-0.9,0.9s0.4,0.9,0.9,0.9h31.4c0.5,0,0.9-0.4,0.9-0.9S51.3,66.9,50.8,66.9z"/>
	<path d="M50.8,72.2H19.4c-0.5,0-0.9,0.4-0.9,0.9s0.4,0.9,0.9,0.9h31.4c0.5,0,0.9-0.4,0.9-0.9S51.3,72.2,50.8,72.2z"/>
	<path d="M50.8,25.3H19.4c-0.5,0-0.9,0.4-0.9,0.9s0.4,0.9,0.9,0.9h31.4c0.5,0,0.9-0.4,0.9-0.9S51.3,25.3,50.8,25.3z"/>
	<path d="M50.8,30.6H19.4c-0.5,0-0.9,0.4-0.9,0.9s0.4,0.9,0.9,0.9h31.4c0.5,0,0.9-0.4,0.9-0.9C51.7,30.9,51.3,30.6,50.8,30.6z"/>
	<path d="M23.8,38.1v22.3h22.1V38.1H23.8z M44.4,58.8H25.3v-19h19.1L44.4,58.8z"/>
	<path d="M31.2,50.1c0.1,0.1,0.2,0.3,0.2,0.4l-0.5,3.4c-0.1,0.4,0.4,0.7,0.7,0.5l3-1.6c0.1-0.1,0.3-0.1,0.5,0l3.1,1.5
		c0.4,0.2,0.8-0.1,0.7-0.5l-0.6-3.4c0-0.2,0-0.3,0.1-0.5l2.4-2.4c0.3-0.3,0.1-0.8-0.3-0.9l-3.4-0.4c-0.2,0-0.3-0.1-0.4-0.3l-1.6-3
		c-0.2-0.4-0.7-0.4-0.9,0L32.7,46c-0.1,0.2-0.2,0.3-0.4,0.3l-3.4,0.6c-0.4,0.1-0.6,0.6-0.3,0.9L31.2,50.1z M30.5,47.6l2.5-0.4
		c0.1,0,0.2-0.1,0.3-0.2l1.1-2.3c0.1-0.3,0.5-0.3,0.7,0l1.1,2.2c0.1,0.1,0.2,0.2,0.3,0.2l2.5,0.3c0.3,0,0.4,0.4,0.2,0.6l-1.8,1.8
		c-0.1,0.1-0.1,0.2-0.1,0.3l0.5,2.5c0.1,0.3-0.3,0.5-0.5,0.4l-2.2-1.1c-0.1-0.1-0.2-0.1-0.3,0l-2.2,1.2c-0.3,0.1-0.6-0.1-0.5-0.4
		l0.4-2.5c0-0.1,0-0.2-0.1-0.3l-1.8-1.7C30.1,48,30.2,47.6,30.5,47.6z"/>
</g>
</svg>
