<?xml version="1.0" encoding="utf-8"?>
<!-- Generator: Adobe Illustrator 23.0.3, SVG Export Plug-In . SVG Version: 6.00 Build 0)  -->
<!DOCTYPE svg PUBLIC "-//W3C//DTD SVG 1.1//EN" "http://www.w3.org/Graphics/SVG/1.1/DTD/svg11.dtd" [
	<!ENTITY ns_extend "http://ns.adobe.com/Extensibility/1.0/">
	<!ENTITY ns_ai "http://ns.adobe.com/AdobeIllustrator/10.0/">
	<!ENTITY ns_graphs "http://ns.adobe.com/Graphs/1.0/">
	<!ENTITY ns_vars "http://ns.adobe.com/Variables/1.0/">
	<!ENTITY ns_imrep "http://ns.adobe.com/ImageReplacement/1.0/">
	<!ENTITY ns_sfw "http://ns.adobe.com/SaveForWeb/1.0/">
	<!ENTITY ns_custom "http://ns.adobe.com/GenericCustomNamespace/1.0/">
	<!ENTITY ns_adobe_xpath "http://ns.adobe.com/XPath/1.0/">
]>
<svg version="1.1" id="Layer_1" xmlns:x="&ns_extend;" xmlns:i="&ns_ai;" xmlns:graph="&ns_graphs;"
	 xmlns="http://www.w3.org/2000/svg" xmlns:xlink="http://www.w3.org/1999/xlink" x="0px" y="0px" viewBox="0 0 77.7 111.9"
	 style="enable-background:new 0 0 77.7 111.9;" xml:space="preserve">
<style type="text/css">
	.st0{opacity:0.25;fill:none;stroke:#000000;stroke-width:2;stroke-miterlimit:10;}
	.st1{opacity:0.25;}
</style>
<metadata>
	<sfw  xmlns="&ns_sfw;">
		<slices></slices>
		<sliceSourceBounds  bottomLeftOrigin="true" height="111.9" width="77.7" x="10.6" y="6.9"></sliceSourceBounds>
	</sfw>
</metadata>
<circle class="st0" cx="39.4" cy="101.2" r="5.4"/>
<g class="st1">
	<path d="M14.4,24.6c-1.3,0-2.4-1.1-2.4-2.4c0-1.3,1.1-2.4,2.4-2.4c1.3,0,2.4,1.1,2.4,2.4C16.8,23.5,15.7,24.6,14.4,24.6z
		 M14.4,21.6c-0.4,0-0.6,0.3-0.6,0.6c0,0.4,0.3,0.6,0.6,0.6c0.4,0,0.6-0.3,0.6-0.6C15,21.9,14.7,21.6,14.4,21.6z"/>
</g>
<g class="st1">
	<path d="M19.9,24.6c-1.3,0-2.4-1.1-2.4-2.4c0-1.3,1.1-2.4,2.4-2.4c1.3,0,2.4,1.1,2.4,2.4C22.3,23.5,21.2,24.6,19.9,24.6z
		 M19.9,21.6c-0.4,0-0.6,0.3-0.6,0.6c0,0.4,0.3,0.6,0.6,0.6s0.6-0.3,0.6-0.6C20.5,21.9,20.3,21.6,19.9,21.6z"/>
</g>
<g class="st1">
	<path d="M25.4,24.6c-1.3,0-2.4-1.1-2.4-2.4c0-1.3,1.1-2.4,2.4-2.4c1.3,0,2.4,1.1,2.4,2.4C27.8,23.5,26.8,24.6,25.4,24.6z
		 M25.4,21.6c-0.4,0-0.6,0.3-0.6,0.6c0,0.4,0.3,0.6,0.6,0.6c0.4,0,0.6-0.3,0.6-0.6C26.1,21.9,25.8,21.6,25.4,21.6z"/>
</g>
<g class="st1">
	<path d="M64.8,74H13.6c-0.6,0-1.1-0.5-1.1-1.1c0-0.6,0.5-1.1,1.1-1.1h51.2c0.6,0,1.1,0.5,1.1,1.1C65.9,73.5,65.4,74,64.8,74z"/>
</g>
<g class="st1">
	<path d="M48.5,9.4H29.8c-0.2,0-0.4-0.5-0.4-1.1s0.2-1.1,0.4-1.1h18.7c0.2,0,0.4,0.5,0.4,1.1S48.7,9.4,48.5,9.4z"/>
</g>
<g class="st1">
	<path d="M58.8,79.2H18.8c-0.6,0-1.1-0.5-1.1-1.1s0.5-1.1,1.1-1.1h40.1c0.6,0,1.1,0.5,1.1,1.1S59.5,79.2,58.8,79.2z"/>
</g>
<path class="st1" d="M35.2,38.6l-0.6,3.8c0,0.3,0.1,0.5,0.3,0.7c0.2,0.1,0.5,0.2,0.7,0.1l3.4-1.8l3.4,1.8c0.1,0.1,0.2,0.1,0.3,0.1
	c0.1,0,0.3,0,0.4-0.1c0.2-0.1,0.3-0.4,0.3-0.7l-0.7-3.8l2.8-2.7c0.2-0.2,0.2-0.4,0.2-0.7c-0.1-0.2-0.3-0.4-0.5-0.5l-3.8-0.6
	l-1.7-3.4c-0.1-0.2-0.3-0.4-0.6-0.4c-0.3,0-0.5,0.1-0.6,0.4l-1.7,3.4l-3.8,0.6c-0.3,0-0.5,0.2-0.5,0.5c-0.1,0.2,0,0.5,0.2,0.7
	L35.2,38.6z M37.1,35.5c0.2,0,0.4-0.2,0.5-0.4l1.3-2.5l1.3,2.5c0.1,0.2,0.3,0.3,0.5,0.4l2.8,0.4l-2,2c-0.2,0.2-0.2,0.4-0.2,0.6
	l0.5,2.8L39.2,40c-0.2-0.1-0.4-0.1-0.6,0l-2.5,1.3l0.5-2.8c0-0.2,0-0.4-0.2-0.6l-2-2L37.1,35.5z"/>
<path class="st0" d="M63.9,45.7H14.3c-1.8,0-3.2-1.5-3.2-3.2v-11c0-1.8,1.5-3.2,3.2-3.2h49.6c1.8,0,3.2,1.5,3.2,3.2v11
	C67.1,44.2,65.6,45.7,63.9,45.7z"/>
<path class="st0" d="M46.4,67.8H32.2c-1.8,0-3.2-1.5-3.2-3.2v-11c0-1.8,1.5-3.2,3.2-3.2h14.2c1.8,0,3.2,1.5,3.2,3.2v11
	C49.7,66.3,48.2,67.8,46.4,67.8z"/>
<path class="st0" d="M66.5,110.9H11.1c-5.6,0-10.1-4.6-10.1-10.1V11.2C1,5.6,5.6,1,11.1,1h55.4c5.6,0,10.1,4.6,10.1,10.1v89.6
	C76.7,106.4,72.1,110.9,66.5,110.9z"/>
<path class="st0" d="M66.8,90.7H10.9c-1.8,0-3.2-1.5-3.2-3.2V18.9c0-1.8,1.5-3.2,3.2-3.2h55.9c1.8,0,3.2,1.5,3.2,3.2v68.5
	C70,89.3,68.6,90.7,66.8,90.7z"/>
</svg>
