<?xml version="1.0" encoding="utf-8"?>
<!-- Generator: Adobe Illustrator 23.0.1, SVG Export Plug-In . SVG Version: 6.00 Build 0)  -->
<svg version="1.1" id="Layer_1" xmlns="http://www.w3.org/2000/svg" xmlns:xlink="http://www.w3.org/1999/xlink" x="0px" y="0px"
	 viewBox="0 0 45.6 32" style="enable-background:new 0 0 45.6 32;" xml:space="preserve">
<style type="text/css">
	.st0{fill:#002248;}
</style>
<g>
	<path class="st0" d="M38,0H7.5C3.4,0,0,3.4,0,7.5v17.1C0,28.6,3.4,32,7.5,32h30.6c4.1,0,7.5-3.4,7.5-7.5V7.5C45.5,3.4,42.2,0,38,0z
		 M42.4,24.5c0,2.4-2,4.4-4.4,4.4H7.5c-2.4,0-4.4-2-4.4-4.4V7.5c0-2.4,2-4.4,4.4-4.4h30.6c2.4,0,4.4,2,4.4,4.4L42.4,24.5L42.4,24.5z
		"/>
	<path class="st0" d="M28.8,15l-9.4-6.2c-0.8-0.5-1.9,0-1.9,1v12.5c0,1,1.1,1.5,1.9,1l9.4-6.2C29.5,16.5,29.5,15.5,28.8,15z"/>
</g>
</svg>
