<?xml version="1.0" encoding="utf-8"?>
<!-- Generator: Adobe Illustrator 23.0.1, SVG Export Plug-In . SVG Version: 6.00 Build 0)  -->
<svg version="1.1" id="Layer_1" xmlns="http://www.w3.org/2000/svg" xmlns:xlink="http://www.w3.org/1999/xlink" x="0px" y="0px"
	 viewBox="0 0 45.6 42.3" style="enable-background:new 0 0 45.6 42.3;" xml:space="preserve">
<style type="text/css">
	.st0{fill:#002248;}
</style>
<g>
	<path class="st0" d="M24.3,0C12.8,0.1,3.4,9.6,3.4,21.1c0,3.7,1,7.2,2.7,10.2c-0.4,1.1-1.1,2.1-1.9,3.1C3.6,35,3,35.6,2.3,36
		c-0.7,0.4-1.4,0.9-2.2,1.2c-0.2,0.1-0.1,0.3,0.1,0.4c0.3,0.1,0.5,0.2,0.8,0.4c0.5,0.2,1.1,0.4,1.7,0.5c1,0.3,2,0.4,3.1,0.4
		c1.1,0.1,2.2-0.1,3.2-0.2c1-0.1,1.9-0.4,2.8-0.7c3.5,2.7,8,4.3,12.7,4.3c11.6,0,21.1-9.5,21.1-21.1C45.6,9.4,36.1-0.1,24.3,0z
		 M24.4,33.4c-1.2,0-2.2-1-2.2-2.2c0-1.2,1-2.2,2.2-2.2c1.3,0,2.2,0.9,2.2,2.1C26.6,32.4,25.7,33.4,24.4,33.4z M28.2,21.5
		c-0.7,0.7-1.5,1.3-1.7,2.4c0,0.7-0.1,1.6-0.1,2.4c0,0.4-0.1,0.6-0.6,0.6c-0.5,0-1,0-1.5,0c-0.6,0-1.2,0-1.7,0
		c-0.3,0-0.4-0.1-0.4-0.4c-0.1-1.6-0.1-3.7,0.6-5.2c0.9-1.9,2.9-2.4,4.1-4.1c2.9-4-4.5-6.7-6-1.8c-0.2,0.7-0.3,0.7-1,0.7
		c-1-0.1-1.9-0.2-2.9-0.4c-0.4-0.1-0.5-0.1-0.4-0.5c0.6-6.3,9.5-8.1,13.8-4.3c1.3,1.1,2.1,2.8,2.1,4.5C32.4,18,30,19.9,28.2,21.5z"
		/>
</g>
</svg>
