<?xml version="1.0" encoding="utf-8"?>
<!-- Generator: Adobe Illustrator 23.0.1, SVG Export Plug-In . SVG Version: 6.00 Build 0)  -->
<svg version="1.1" id="Layer_1" xmlns="http://www.w3.org/2000/svg" xmlns:xlink="http://www.w3.org/1999/xlink" x="0px" y="0px"
	 viewBox="0 0 45.6 46.9" style="enable-background:new 0 0 45.6 46.9;" xml:space="preserve">
<style type="text/css">
	.st0{fill:#002248;}
</style>
<g>
	<g>
		<rect x="24.4" y="23.6" class="st0" width="7.3" height="4.9"/>
		<rect x="24.4" y="17.1" class="st0" width="7.3" height="4.9"/>
		<rect x="33.4" y="30.1" class="st0" width="7.3" height="4.9"/>
		<rect x="15.5" y="17.1" class="st0" width="7.3" height="4.9"/>
		<rect x="33.4" y="17.1" class="st0" width="7.3" height="4.9"/>
		<path class="st0" d="M44.7,5.7h-0.8V0.8c0-0.4-0.4-0.8-0.8-0.8c-0.4,0-0.8,0.4-0.8,0.8v4.9h-4.1V0.8c0-0.4-0.4-0.8-0.8-0.8
			s-0.8,0.4-0.8,0.8v4.9h-4.1V0.8c0-0.4-0.4-0.8-0.8-0.8c-0.4,0-0.8,0.4-0.8,0.8v4.9h-4.1V0.8C26.8,0.4,26.5,0,26,0
			c-0.4,0-0.8,0.4-0.8,0.8v4.9h-4.1V0.8c0-0.4-0.4-0.8-0.8-0.8s-0.8,0.4-0.8,0.8v4.9h-4.1V0.8c0-0.4-0.4-0.8-0.8-0.8
			c-0.4,0-0.8,0.4-0.8,0.8v4.9H9.8V0.8C9.8,0.4,9.4,0,8.9,0S8.1,0.4,8.1,0.8v4.9H7.3c-0.4,0-0.8,0.4-0.8,0.8v4.1h35.8
			c0.4,0,0.8,0.4,0.8,0.8s-0.4,0.8-0.8,0.8H6.5v7.3c0,0,0,0.1,0,0.1l3.5,5.2c0.6,0.9,0.4,2.1-0.5,2.8l-2.3,1.8
			C7,29.6,7,29.9,7.1,30.1l0.2,0.3c1.1,2,2.5,3.8,4.2,5.3c1.5,1.7,3.3,3.1,5.2,4.1h1.1l1.7-2.2c0.7-0.9,1.9-1.1,2.8-0.5l4,2.7h18.5
			c0.4,0,0.8-0.4,0.8-0.8V6.5C45.6,6.1,45.2,5.7,44.7,5.7z M9.5,8.7L9.4,8.8c0,0-0.1,0.1-0.1,0.1c0,0-0.1,0-0.2,0
			c-0.1,0-0.1,0-0.2,0c-0.2,0-0.4-0.1-0.6-0.2c-0.3-0.3-0.3-0.8,0-1.2l0.1-0.1c0,0,0.1-0.1,0.1-0.1c0,0,0.1,0,0.1,0
			c0.1,0,0.2,0,0.3,0c0.1,0,0.1,0,0.2,0c0.1,0,0.1,0,0.1,0.1l0.1,0.1C9.8,7.9,9.8,8.4,9.5,8.7z M15.2,8.7l-0.1,0.1
			c0,0-0.1,0.1-0.1,0.1c0,0-0.1,0-0.2,0c-0.1,0-0.1,0-0.2,0c-0.2,0-0.4-0.1-0.6-0.2c-0.3-0.3-0.3-0.8,0-1.2l0.1-0.1
			c0,0,0.1-0.1,0.1-0.1c0,0,0.1,0,0.1,0c0.1,0,0.2,0,0.3,0c0.1,0,0.1,0,0.2,0c0.1,0,0.1,0,0.1,0.1l0.1,0.1
			C15.5,7.9,15.5,8.4,15.2,8.7z M20.9,8.7l-0.1,0.1c0,0-0.1,0.1-0.1,0.1c0,0-0.1,0-0.2,0c-0.1,0-0.1,0-0.2,0c-0.2,0-0.4-0.1-0.6-0.2
			c-0.3-0.3-0.3-0.8,0-1.2l0.1-0.1c0,0,0.1-0.1,0.1-0.1c0,0,0.1,0,0.1,0c0.1,0,0.2,0,0.3,0c0.1,0,0.1,0,0.2,0c0.1,0,0.1,0,0.1,0.1
			l0.1,0.1C21.2,7.9,21.2,8.4,20.9,8.7z M26.6,8.7l-0.1,0.1c0,0-0.1,0.1-0.1,0.1c0,0-0.1,0-0.2,0c-0.1,0-0.1,0-0.2,0
			c-0.2,0-0.4-0.1-0.6-0.2c-0.3-0.3-0.3-0.8,0-1.2l0.1-0.1c0,0,0.1-0.1,0.1-0.1c0,0,0.1,0,0.1,0c0.1,0,0.2,0,0.3,0
			c0.1,0,0.1,0,0.2,0c0.1,0,0.1,0,0.1,0.1l0.1,0.1C26.9,7.9,26.9,8.4,26.6,8.7z M32.3,8.7l-0.1,0.1c0,0-0.1,0.1-0.1,0.1
			c0,0-0.1,0-0.2,0c-0.1,0-0.1,0-0.2,0c-0.2,0-0.4-0.1-0.6-0.2c-0.3-0.3-0.3-0.8,0-1.2l0.1-0.1c0,0,0.1-0.1,0.1-0.1c0,0,0.1,0,0.1,0
			c0.1,0,0.2,0,0.3,0c0.1,0,0.1,0,0.2,0c0.1,0,0.1,0,0.1,0.1l0.1,0.1C32.6,7.9,32.6,8.4,32.3,8.7z M38,8.7l-0.1,0.1
			c0,0-0.1,0.1-0.1,0.1c0,0-0.1,0-0.2,0c-0.1,0-0.1,0-0.2,0c-0.2,0-0.4-0.1-0.6-0.2c-0.3-0.3-0.3-0.8,0-1.2L37,7.5
			c0,0,0.1-0.1,0.1-0.1c0,0,0.1,0,0.1,0c0.1,0,0.2,0,0.3,0c0.1,0,0.1,0,0.2,0c0.1,0,0.1,0,0.1,0.1L38,7.6C38.3,7.9,38.3,8.4,38,8.7z
			 M42.3,35.8c0,0.4-0.4,0.8-0.8,0.8H29.3c-0.4,0-0.8-0.4-0.8-0.8s0.4-0.8,0.8-0.8h2.4v-4.9h-8.1c-0.4,0-0.8-0.4-0.8-0.8v-5.7H13
			c-0.4,0-0.8-0.4-0.8-0.8c0-0.4,0.4-0.8,0.8-0.8h0.8v-4.9H13c-0.4,0-0.8-0.4-0.8-0.8c0-0.4,0.4-0.8,0.8-0.8h28.5
			c0.4,0,0.8,0.4,0.8,0.8V35.8z M43.7,8.7l-0.1,0.1c0,0-0.1,0.1-0.1,0.1c0,0-0.1,0-0.2,0c-0.1,0-0.1,0-0.2,0c-0.2,0-0.4-0.1-0.6-0.2
			c-0.3-0.3-0.3-0.8,0-1.2l0.1-0.1c0,0,0.1-0.1,0.1-0.1c0,0,0.1,0,0.1,0c0.1,0,0.2,0,0.3,0c0.1,0,0.1,0,0.2,0c0.1,0,0.1,0,0.1,0.1
			l0.1,0.1C44,7.9,44,8.4,43.7,8.7z"/>
		<rect x="33.4" y="23.6" class="st0" width="7.3" height="4.9"/>
		<path class="st0" d="M27.5,42.7l-6.1-4.1c-0.2-0.1-0.5-0.1-0.6,0.1L18.9,41c-0.1,0.1-0.2,0.2-0.3,0.3c0,0,0,0,0,0
			c-0.7,0.6-1.6,0.6-2.3,0.2L16,41.3c-2.1-1.2-4-2.7-5.7-4.4c-1.8-1.6-3.3-3.5-4.4-5.7l-0.2-0.3c-0.5-0.9-0.3-2,0.5-2.7l2.3-1.8
			c0.2-0.2,0.2-0.4,0.1-0.6l-4.1-6.1c-0.1-0.2-0.4-0.3-0.6-0.1l-2.6,1.5c-0.5,0.3-0.9,0.8-1.1,1.4c-1.2,4.3,1.7,10.1,8,16.5
			s12.2,9.2,16.5,8c0.6-0.2,1.1-0.5,1.4-1.1l1.5-2.6C27.8,43.1,27.7,42.8,27.5,42.7z"/>
	</g>
</g>
</svg>
