<?xml version="1.0" encoding="utf-8"?>
<!-- Generator: Adobe Illustrator 23.0.1, SVG Export Plug-In . SVG Version: 6.00 Build 0)  -->
<svg version="1.1" id="Layer_1" xmlns="http://www.w3.org/2000/svg" xmlns:xlink="http://www.w3.org/1999/xlink" x="0px" y="0px"
	 viewBox="0 0 60.3 63.6" style="enable-background:new 0 0 60.3 63.6;" xml:space="preserve">
<style type="text/css">
	.st0{fill:#002248;}
</style>
<g>
	<g>
		<g>
			<g>
				<path class="st0" d="M17.7,41.1l6.3-0.5c3.7-0.3,7.1-2.4,9-5.6c1.4-2.4,3-4.3,3.9-5c0,0,9.7-6.7,12.2-11.5
					c0.3-0.6,1.1-0.9,1.7-0.6c0.8,0.4,1.6,1.3,1.4,3.4s-1.2,4.1-2.7,5.6c-2.2,2.2-5.7,5.8-5.9,6.9c0,0,8.7-0.4,11.1,0.2
					c5,1.1,6,2.2,4.5,6.1c-0.2,0.5,0,1.1,0.4,1.4c1.7,1.7,0.1,6.4-2.1,6.5c-0.2,0-0.4,0.2-0.3,0.4c0.7,1.2,2,4.4-2,5.9
					c0,0-0.1,0.2,0,0.3c0.3,1,1,4.5-5.3,4.9c0,0-0.2,0.8-2.3,0.8c0,0-11.6-1.2-15.5-1.9c-3.8-0.7-7.2-0.1-10.1,0.3
					c-0.7,0.1-2.2,0.4-4,0.8c-0.5,0.1-1-0.3-1-0.8V41.9C17,41.5,17.3,41.2,17.7,41.1z"/>
			</g>
			<g>
				<path class="st0" d="M0,38.6l0,22.5c0,1.4,1.1,2.5,2.5,2.5h10.2c1.4,0,2.5-1.1,2.5-2.5V38.6c0-1.4-1.1-2.5-2.5-2.5H2.5
					C1.1,36.1,0,37.3,0,38.6z M5.7,59.7c0-1,0.8-1.9,1.9-1.9c1,0,1.9,0.8,1.9,1.9c0,1-0.8,1.9-1.9,1.9C6.5,61.6,5.6,60.7,5.7,59.7z"
					/>
			</g>
		</g>
		<g>
			<g>
				<path class="st0" d="M30.2,0.7l-2.3,4.7c-0.1,0.1-0.2,0.2-0.4,0.3l-5.2,0.8C21.9,6.6,21.8,7,22,7.3l3.7,3.7
					c0.1,0.1,0.2,0.3,0.1,0.4l-0.9,5.2c-0.1,0.4,0.3,0.7,0.7,0.5l4.6-2.4c0.1-0.1,0.3-0.1,0.4,0l4.6,2.4c0.3,0.2,0.8-0.1,0.7-0.5
					L35,11.4c0-0.2,0-0.3,0.1-0.4l3.7-3.7c0.3-0.3,0.1-0.8-0.3-0.8l-5.2-0.8c-0.2,0-0.3-0.1-0.4-0.3l-2.3-4.7
					C30.8,0.3,30.3,0.3,30.2,0.7z"/>
			</g>
			<g>
				<path class="st0" d="M46.5,4.6l-1.6,3.3c0,0.1-0.1,0.2-0.2,0.2l-3.6,0.5c-0.3,0-0.4,0.4-0.2,0.6l2.6,2.5
					c0.1,0.1,0.1,0.2,0.1,0.3L43,15.6c0,0.3,0.2,0.5,0.5,0.3l3.2-1.7c0.1-0.1,0.2-0.1,0.3,0l3.2,1.7c0.2,0.1,0.5-0.1,0.5-0.3
					L50.1,12c0-0.1,0-0.2,0.1-0.3l2.6-2.5C53,9,52.9,8.6,52.6,8.6L49,8.1c-0.1,0-0.2-0.1-0.2-0.2l-1.6-3.3C47,4.4,46.7,4.4,46.5,4.6
					z"/>
			</g>
			<g>
				<path class="st0" d="M13.3,4.6l-1.6,3.3c0,0.1-0.1,0.2-0.2,0.2L7.9,8.6C7.6,8.6,7.5,9,7.7,9.2l2.5,2.5c0.1,0.1,0.1,0.2,0.1,0.3
					l-0.6,3.6c0,0.3,0.2,0.5,0.5,0.3l3.2-1.7c0.1-0.1,0.2-0.1,0.3,0l3.2,1.7c0.2,0.1,0.5-0.1,0.5-0.3L16.8,12c0-0.1,0-0.2,0.1-0.3
					l2.6-2.5c0.2-0.2,0.1-0.5-0.2-0.6l-3.6-0.5c-0.1,0-0.2-0.1-0.2-0.2l-1.6-3.3C13.7,4.4,13.4,4.4,13.3,4.6z"/>
			</g>
		</g>
	</g>
</g>
</svg>
