<?xml version="1.0" encoding="utf-8"?>
<!-- Generator: Adobe Illustrator 23.0.1, SVG Export Plug-In . SVG Version: 6.00 Build 0)  -->
<svg version="1.1" id="Layer_1" xmlns="http://www.w3.org/2000/svg" xmlns:xlink="http://www.w3.org/1999/xlink" x="0px" y="0px"
	 viewBox="0 0 90 67.4" style="enable-background:new 0 0 90 67.4;" xml:space="preserve">
<style type="text/css">
	.st0{fill:#002248;}
</style>
<g>
	<path class="st0" d="M74,56.3l1.5,0.4c0.1,0,0.2,0,0.3,0h0.9c0.1,0,0.3,0,0.4-0.1c-0.5-1-1.9-1.8-3.6-1.8c-0.6,0-1.3,0.1-1.8,0.3
		l2.1,1C73.8,56.3,73.9,56.3,74,56.3z"/>
	<path class="st0" d="M68.6,56.5l-1.7,0c-0.1,0-0.1,0-0.2,0l-1.5,0.2c-0.2,0-0.5,0.1-0.8,0.1c0.4,5.9,5.3,10.6,11.4,10.6
		c6.3,0,11.4-5.1,11.4-11.4c0-2.3-0.7-4.5-1.9-6.4c-1.4-2.2-3.6-3.8-6-4.5c-2.2-0.7-4.5-0.7-6.7,0c0.8,0.4,1.5,0.9,2.2,1.5l1.5,1
		c0.8,0.6,1.5,1.2,2.1,2l0.2,0.2c1.1,1.4,1.7,3.1,1.8,4.9l0.1,1.3c0,0.2,0,0.4-0.1,0.6L79.9,57c-0.3,0.4-0.6,0.8-0.9,1.1
		c-0.6,0.5-1.6,0.7-2.2,0.7h-0.9c-0.2,0-0.5,0-0.9-0.1l-1.4-0.3c-0.3-0.1-0.5-0.2-0.7-0.3l-2.1-1C70.1,56.7,69.3,56.6,68.6,56.5z"/>
	<path class="st0" d="M25,28.3c-0.1,0.7-0.4,1.4-0.7,2l0.8,0.6c0,0,0.1,0.1,0.1,0.1l6,5.7c0.7,0.6,1.6,1.3,2.6,1.9l6.8,4.2l13.6,7
		l7.4,4.2c0.5,0.3,1.2,0.4,1.9,0.5c0.5,0.1,1,0.1,1.5,0l1.6-0.2c0,0,0.1,0,0.1,0c0.1,0,0.1,0,0.2,0l1.8,0c0.1,0,0.3,0,0.4,0
		c1.1-1.1,2.8-1.7,4.5-1.7c1.9,0,3.5,0.7,4.6,1.8C78,53.3,77.5,52,76.7,51l-0.2-0.2c-0.4-0.6-1-1.1-1.6-1.5l-1.5-1
		c0,0-0.1,0-0.1-0.1c-0.9-0.7-1.9-1.3-2.9-1.8l-2.3-1c-0.4-0.2-0.8-0.3-1.2-0.5L63.6,43c-1-0.6-2-1.2-2.8-2l-3-2.8
		c-0.5-0.5-0.8-1.2-0.8-1.9c0-0.7,0.3-1.4,0.9-1.8l4.9-4.4c1.2-1.1,2.8-1.5,4.4-1.3l4.6,0.7c0.5,0.1,1.1,0.3,1.5,0.6l6.1,4
		c0.8,0.5,1.3,1.4,1.3,2.3l0.2,5.2c0,0.5-0.1,1-0.4,1.5l-0.1,0.3c2,0.9,4.3,2.4,5.7,4.1l1.3-1.3c0.7-0.7,1.1-1.7,1.3-2.7l1.2-11
		c0.2-1.9-0.6-3.8-2-5.1L70,11.7c-0.2-0.2-0.4-0.3-0.6-0.3l-40.9-6c0.1,0.5,0.1,1.1,0,1.7L25,28.3z"/>
	<path class="st0" d="M3,28.3l15.9,2.6c2,0.3,3.7-1,4-2.9l3.5-21.3c0.3-1.9-1-3.7-2.9-4L7.6,0C7.4,0,7.2,0,7,0
		C5.3,0,3.8,1.2,3.5,2.9L0,24.2c-0.1,0.9,0.1,1.9,0.6,2.6C1.2,27.6,2,28.1,3,28.3z"/>
</g>
</svg>
