<?xml version="1.0" encoding="utf-8"?>
<!-- Generator: Adobe Illustrator 23.0.1, SVG Export Plug-In . SVG Version: 6.00 Build 0)  -->
<svg version="1.1" id="Layer_1" xmlns="http://www.w3.org/2000/svg" xmlns:xlink="http://www.w3.org/1999/xlink" x="0px" y="0px"
	 viewBox="0 0 135.3 101.7" style="enable-background:new 0 0 135.3 101.7;" xml:space="preserve">
<style type="text/css">
	.st0{fill:#002248;}
	.st1{fill:#002248;stroke:#002248;stroke-miterlimit:10;}
</style>
<path class="st0" d="M60.9,38.6c-0.1-0.1-0.3-0.2-0.4-0.3c-1.5-1.2-2.6-2.6-3.2-4.2v24.8c1,0.6,2.1,1.2,3.2,1.7c2.9,1.3,6,2,9.2,2.2
	V39.7C66.9,40.7,63.5,40.4,60.9,38.6z M131.8,78.5L99.1,45.8c-1.1-1.1-1.6-2.7-1.3-4.2c1.4-6.4,0.5-13.3-2.9-19.2
	c-0.9-1.6-2-3-3.2-4.5c-1-1.1-2-2.1-3.2-3.1c-0.3-0.3-0.7-0.5-1-0.8c-3.4-2.5-7.3-4.2-11.4-4.8C75.1,9.1,74,9,72.9,8.9
	c-1.1-0.1-2.1-0.1-3.2,0c-5.4,0.4-10.7,2.3-15.1,5.8c-3.9,3.1-6.7,7-8.4,11.3c-0.5,1.2-0.9,2.5-1.2,3.8c-0.3,1.2-0.5,2.5-0.6,3.8
	c-0.7,7.6,1.9,15.5,7.8,21.4c0.6,0.6,1.2,1.1,1.8,1.7c1,0.9,2.1,1.6,3.2,2.3c1,0.6,2.1,1.2,3.2,1.7c2.9,1.3,6,2,9.2,2.2
	c1.1,0.1,2.1,0.1,3.2,0c1.1-0.1,2.1-0.2,3.2-0.4c0.8-0.2,1.6-0.3,2.4-0.5c1.6-0.4,3.2,0.1,4.3,1.2l1.9,1.9l3.8-1.8l3.2-1.6l-3.2,6
	l-0.4,0.8l0.2,0.2l0.5,0.5l1.1-0.6l1.8-0.9l1.4-0.7l0.6-0.3l1.2-0.6l0.7-0.4l-0.7,1.4l-1.8,3.5l-1,2l0.7,0.7l0.3-0.2l1.8-0.9
	l4.9-2.5l-3.5,6.1L96,76.2l0.8,0.8l7.8-3.1l-3.7,7.2l0.8,0.8l7.1-3.5l-0.8,1.5l-2.9,5.4l0.4,0.4l0.3,0.3l7-3.6l-1.8,3.5l-1.8,3.5
	l0.9,0.9l0.4-0.2l6.7-3.3l-2,3.8l-1.7,3.1l0.7,0.7l1.4-0.7l5.6-2.9l-2.8,5.5l-0.6,1.1c0.8,0.5,1.7,0.8,2.6,1.1
	c4.9,1.4,10.4-0.4,13.5-5.5C136.7,88.3,135.6,82.3,131.8,78.5z M71.7,38.6c-0.6,0.4-1.3,0.8-2,1c-2.9,1.1-6.2,0.7-8.8-1
	c-0.1-0.1-0.3-0.2-0.4-0.3c-1.5-1.2-2.6-2.6-3.2-4.2c-0.5-1.4-0.8-2.9-0.7-4.3c0.1-1.3,0.4-2.6,1-3.7c0.7-1.4,1.8-2.7,3.2-3.6
	c2.6-1.8,5.9-2.1,8.8-1c0.7,0.3,1.4,0.6,2,1c0.4,0.3,0.8,0.6,1.2,1c0.6,0.5,1,1.1,1.4,1.7c0.1,0.1,0.2,0.2,0.2,0.3c0,0,0,0,0,0
	c2.3,3.9,1.8,9-1.7,12.2C72.6,38,72.2,38.3,71.7,38.6z"/>
<g>
	<path class="st1" d="M99.2,94.2h-2.8v3.3c0,0.2,0,0.3,0,0.5h2.8h-2.8c0,0,0,0,0,0c-0.2,1.9-1.5,3.3-3.2,3.3H74.4
		c-1.6,0-3-1.4-3.2-3.3c0,0,0,0,0,0h-9.2c0,0,0,0,0,0c-0.2,1.9-1.5,3.3-3.2,3.3H40c-1.6,0-3-1.4-3.2-3.3c0,0,0,0,0,0h-8.7
		c0,0,0,0,0,0c-0.5,1.4-1.6,2.3-3,2.3H6.4c-1.3,0-2.5-1-3-2.3c0,0,0,0,0,0H3.2h0.2c-0.2-0.4-0.2-0.9-0.2-1.4v-2.3
		C1.4,94.2,0,95.9,0,98c0,2.1,1.4,3.8,3.2,3.8h96c1.8,0,3.2-1.7,3.2-3.8C102.4,95.9,100.9,94.2,99.2,94.2z"/>
	<path class="st1" d="M61.9,98h9.2c0-0.2,0-0.3,0-0.5v-3.3H62v3.3C62,97.7,62,97.8,61.9,98z"/>
	<path class="st1" d="M28.1,98h8.7c0-0.2,0-0.3,0-0.5v-3.3h-8.4v2.3C28.4,97.1,28.3,97.5,28.1,98z"/>
	<rect x="9.6" y="62.2" class="st1" width="12.4" height="30.6"/>
	<path class="st1" d="M6.4,94.2V58.4h18.8v35.8h3.2V58.4c0-2.1-1.4-3.8-3.2-3.8H6.4c-1.8,0-3.2,1.7-3.2,3.8v35.8c0,0,0,0,0,0H6.4z"
		/>
	<path class="st1" d="M3.4,98c0.5,1.4,1.6,2.3,3,2.3h18.8c1.3,0,2.5-1,3-2.3c0,0,0,0,0,0L3.4,98C3.4,98,3.4,98,3.4,98z"/>
	<path class="st1" d="M3.4,98h24.7c0.2-0.4,0.2-0.9,0.2-1.4v-2.3h-3.2v2.4H6.4v-2.4H3.2c0,0,0,0,0,0v2.3C3.2,97.1,3.3,97.5,3.4,98z"
		/>
	<path class="st1" d="M6.4,58.4v35.8h18.8V58.4H6.4z M9.6,92.8V62.2H22v30.6H9.6z"/>
	<rect x="6.4" y="94.2" class="st1" width="18.8" height="2.4"/>
	<path class="st1" d="M55.6,93.8v-31c0,0,0,0-0.1,0c-1.3-0.8-2.5-1.6-3.6-2.6c-0.7-0.6-1.4-1.2-2-1.9c-3-3-5.2-6.4-6.7-10.1v45.6
		H55.6z"/>
	<path class="st1" d="M62,94.2V65.7c-1-0.3-1.9-0.7-2.9-1.1c-0.1,0-0.2-0.1-0.3-0.2v29.8H62z"/>
	<path class="st1" d="M40,31.6h1.4c0.1-0.5,0.2-1.1,0.3-1.6c0.2-0.7,0.4-1.5,0.6-2.2H40c-1.8,0-3.2,1.7-3.2,3.8v62.6H40V31.6z"/>
	<path class="st1" d="M36.8,98h25.1c0-0.2,0-0.3,0-0.5v-3.3h-3.2v3.3H40v-3.3h-3.2v3.3C36.8,97.7,36.8,97.8,36.8,98z"/>
	<path class="st1" d="M36.8,98c0.2,1.9,1.5,3.3,3.2,3.3h18.8c1.6,0,3-1.4,3.2-3.3c0,0,0,0,0,0L36.8,98C36.8,98,36.8,98,36.8,98z"/>
	<path class="st1" d="M40,94.2h18.8V64.4c-1.1-0.5-2.2-1-3.2-1.7v31H43.2V48.2c-1.8-4.5-2.5-9.2-2.1-13.9c0.1-0.9,0.2-1.8,0.3-2.6
		H40V94.2z"/>
	<rect x="40" y="94.2" class="st1" width="18.8" height="3.3"/>
	<path class="st1" d="M82.5,7.5c2.5,0.9,4.8,2.2,7,3.8c0.2,0.1,0.3,0.3,0.5,0.4V7.5H82.5z"/>
	<path class="st1" d="M90,93.8V73.3l-3.7-3.8l-2.1-2.1c-1.2-1.2-3-1.8-4.8-1.4c-0.6,0.2-1.2,0.3-1.8,0.4v27.3H90z"/>
	<path class="st1" d="M74.4,5.6V3.8h18.8v10.9c0.4,0.4,0.7,0.7,1,1.1c0.8,0.9,1.5,1.8,2.2,2.8V3.8c0-2.1-1.4-3.8-3.2-3.8H74.4
		c-1.8,0-3.2,1.7-3.2,3.8v1.8c0.6,0,1.3,0,1.9,0C73.5,5.6,73.9,5.6,74.4,5.6z"/>
	<polygon class="st1" points="93.2,94.2 96.4,94.2 96.4,79.9 93.2,76.6 	"/>
	<path class="st1" d="M74.4,67c-0.4,0-0.9,0.1-1.3,0.1c-0.6,0-1.3,0.1-1.9,0.1v27.1h3.2V67z"/>
	<path class="st1" d="M71.2,98h25.1c0-0.2,0-0.3,0-0.5v-3.3h-3.2v3.3H74.4v-3.3h-3.2v3.3C71.2,97.7,71.2,97.8,71.2,98z"/>
	<path class="st1" d="M71.2,98c0.2,1.9,1.5,3.3,3.2,3.3h18.8c1.6,0,3-1.4,3.2-3.3c0,0,0,0,0,0L71.2,98C71.2,98,71.2,98,71.2,98z"/>
	<path class="st1" d="M74.4,3.8v1.9c0.8,0.1,1.5,0.2,2.3,0.3c2,0.3,4,0.9,5.8,1.6H90v4.2c0.2,0.2,0.4,0.3,0.6,0.5
		c0.9,0.8,1.8,1.5,2.6,2.4V3.8H74.4z"/>
	<path class="st1" d="M93.2,94.2V76.6L90,73.3v20.5H77.6V66.5c-0.3,0.1-0.6,0.1-0.9,0.2c-0.8,0.1-1.5,0.3-2.3,0.3v27.3H93.2z"/>
	<rect x="74.4" y="94.2" class="st1" width="18.8" height="3.3"/>
</g>
</svg>
