<?xml version="1.0" encoding="utf-8"?>
<!-- Generator: Adobe Illustrator 23.0.1, SVG Export Plug-In . SVG Version: 6.00 Build 0)  -->
<svg version="1.1" id="Layer_1" xmlns="http://www.w3.org/2000/svg" xmlns:xlink="http://www.w3.org/1999/xlink" x="0px" y="0px"
	 viewBox="0 0 54 46.1" style="enable-background:new 0 0 54 46.1;" xml:space="preserve">
<style type="text/css">
	.st0{fill:#002248;}
</style>
<g>
	<g>
		<path class="st0" d="M48.7,16.3h-4.9l0,2l0,0L44,44.2H10.8V32.5H6.4v2.8c0,0.6-0.4,1-1,1s-1-0.4-1-1v-2.8H1.8c-0.6,0-1-0.4-1-1
			V18.8C0.3,19.6,0,20.5,0,21.5v19.4c0,2.9,2.3,5.2,5.2,5.2h43.6c2.9,0,5.2-2.3,5.2-5.2V21.5C53.9,18.7,51.6,16.3,48.7,16.3z
			 M48.4,33.8c-1.2,0-2.1-1-2.1-2.1c0-1.2,1-2.1,2.1-2.1c1.2,0,2.1,1,2.1,2.1C50.6,32.9,49.6,33.8,48.4,33.8z"/>
	</g>
	<g>
		<path class="st0" d="M2.9,31.6h24.4l7.7,6.9c0.3,0.2,0.7,0.3,1.1,0.2c0.4-0.2,0.6-0.5,0.6-0.9v-6.1h5c0.5,0,1-0.4,1-1V1
			c0-0.6-0.5-1-1-1H2.9c-0.6,0-1,0.4-1,1v29.6C1.9,31.2,2.3,31.6,2.9,31.6z M11.5,13.5c0-0.4,0.3-0.7,0.7-0.7h3.5
			c0.3,0,0.6,0.2,0.7,0.5l0.2-0.1c5.7-1.8,4.9-6.1,5-6.2c0-1.1,0.9-2,2-2c2.4,0,2.8,4.1,2.2,6.4H31c1.8,0,2.7,2.3,1.3,3.5
			c0.5,0.8,0.3,1.9-0.5,2.5c0.5,0.8,0.3,1.9-0.5,2.5c0.8,1.3-0.2,3-1.7,3H16.4c0,0.4-0.3,0.7-0.7,0.7h-3.5c-0.4,0-0.7-0.3-0.7-0.7
			C11.5,22.9,11.5,13.5,11.5,13.5z"/>
	</g>
</g>
</svg>
