<?xml version="1.0" encoding="utf-8"?>
<!-- Generator: Adobe Illustrator 24.2.0, SVG Export Plug-In . SVG Version: 6.00 Build 0)  -->
<!DOCTYPE svg PUBLIC "-//W3C//DTD SVG 1.1//EN" "http://www.w3.org/Graphics/SVG/1.1/DTD/svg11.dtd" [
	<!ENTITY ns_extend "http://ns.adobe.com/Extensibility/1.0/">
	<!ENTITY ns_ai "http://ns.adobe.com/AdobeIllustrator/10.0/">
	<!ENTITY ns_graphs "http://ns.adobe.com/Graphs/1.0/">
	<!ENTITY ns_vars "http://ns.adobe.com/Variables/1.0/">
	<!ENTITY ns_imrep "http://ns.adobe.com/ImageReplacement/1.0/">
	<!ENTITY ns_sfw "http://ns.adobe.com/SaveForWeb/1.0/">
	<!ENTITY ns_custom "http://ns.adobe.com/GenericCustomNamespace/1.0/">
	<!ENTITY ns_adobe_xpath "http://ns.adobe.com/XPath/1.0/">
]>
<svg version="1.1" id="Layer_1" xmlns:x="&ns_extend;" xmlns:i="&ns_ai;" xmlns:graph="&ns_graphs;"
	 xmlns="http://www.w3.org/2000/svg" xmlns:xlink="http://www.w3.org/1999/xlink" x="0px" y="0px" viewBox="0 0 140.1 140.1"
	 style="enable-background:new 0 0 140.1 140.1;" xml:space="preserve">
<style type="text/css">
	.st0{fill:#00316F;}
	.st1{enable-background:new    ;}
	.st2{fill:#FFFFFF;}
</style>
<metadata>
	<sfw  xmlns="&ns_sfw;">
		<slices></slices>
		<sliceSourceBounds  bottomLeftOrigin="true" height="140" width="140" x="0" y="0.1"></sliceSourceBounds>
	</sfw>
</metadata>
<circle class="st0" cx="70" cy="70" r="70"/>
<g>
	<g class="st1">
		<path class="st2" d="M27.9,50.5h17.4v7.9h-7.1v7.5h6.3v7.5h-6.3V90H27.9V50.5z"/>
		<path class="st2" d="M47.8,50.5h7.3c4.8,0,8.1,0.2,9.8,0.6c1.7,0.4,3.1,1.3,4.2,2.9c1.1,1.5,1.6,4,1.6,7.4c0,3.1-0.4,5.1-1.1,6.2
			c-0.8,1.1-2.3,1.7-4.5,1.9c2,0.5,3.4,1.2,4.1,2c0.7,0.8,1.1,1.6,1.3,2.3s0.3,2.7,0.3,5.8V90h-9.5V76.9c0-2.1-0.2-3.4-0.5-3.9
			c-0.3-0.5-1.2-0.8-2.6-0.8V90H47.8V50.5z M58.1,57.3v8.8c1.2,0,2-0.2,2.4-0.5c0.5-0.3,0.7-1.3,0.7-3.1v-2.2c0-1.3-0.2-2.1-0.7-2.5
			C60.1,57.5,59.3,57.3,58.1,57.3z"/>
		<path class="st2" d="M74.7,50.5h17.1v7.9H85v7.5h6.4v7.5H85v8.7h7.5V90H74.7V50.5z"/>
		<path class="st2" d="M95.5,50.5h17.1v7.9h-6.9v7.5h6.4v7.5h-6.4v8.7h7.5V90H95.5V50.5z"/>
	</g>
</g>
</svg>
