<?xml version="1.0" encoding="utf-8"?>
<!-- Generator: Adobe Illustrator 23.0.3, SVG Export Plug-In . SVG Version: 6.00 Build 0)  -->
<!DOCTYPE svg PUBLIC "-//W3C//DTD SVG 1.1//EN" "http://www.w3.org/Graphics/SVG/1.1/DTD/svg11.dtd" [
	<!ENTITY ns_extend "http://ns.adobe.com/Extensibility/1.0/">
	<!ENTITY ns_ai "http://ns.adobe.com/AdobeIllustrator/10.0/">
	<!ENTITY ns_graphs "http://ns.adobe.com/Graphs/1.0/">
	<!ENTITY ns_vars "http://ns.adobe.com/Variables/1.0/">
	<!ENTITY ns_imrep "http://ns.adobe.com/ImageReplacement/1.0/">
	<!ENTITY ns_sfw "http://ns.adobe.com/SaveForWeb/1.0/">
	<!ENTITY ns_custom "http://ns.adobe.com/GenericCustomNamespace/1.0/">
	<!ENTITY ns_adobe_xpath "http://ns.adobe.com/XPath/1.0/">
]>
<svg version="1.1" id="Layer_1" xmlns:x="&ns_extend;" xmlns:i="&ns_ai;" xmlns:graph="&ns_graphs;"
	 xmlns="http://www.w3.org/2000/svg" xmlns:xlink="http://www.w3.org/1999/xlink" x="0px" y="0px" viewBox="0 0 561.1 207.2"
	 style="enable-background:new 0 0 561.1 207.2;" xml:space="preserve">
<style type="text/css">
	.st0{display:none;}
	.st1{display:inline;fill:url(#SVGID_1_);}
	.st2{display:inline;}
	.st3{fill:url(#SVGID_2_);}
	.st4{fill:url(#SVGID_3_);}
	.st5{fill:url(#SVGID_4_);}
	.st6{fill:url(#SVGID_5_);}
	.st7{fill:url(#SVGID_6_);}
	.st8{fill:url(#SVGID_7_);}
	.st9{fill:url(#SVGID_8_);}
	.st10{fill:url(#SVGID_9_);}
	.st11{fill:url(#SVGID_10_);}
	.st12{fill:url(#SVGID_11_);}
	.st13{fill:url(#SVGID_12_);}
	.st14{fill:url(#SVGID_13_);}
	.st15{display:inline;fill:#77CBED;}
	.st16{display:inline;fill:#4BB8E3;}
	.st17{display:inline;fill:#0096C8;}
	.st18{display:inline;fill:#1C77BD;}
	.st19{display:inline;fill:#205DB0;}
	.st20{display:inline;fill:#152D73;}
	.st21{fill:url(#SVGID_14_);}
	.st22{fill:url(#SVGID_15_);}
	.st23{fill:url(#SVGID_16_);}
	.st24{fill:url(#SVGID_17_);}
	.st25{fill:url(#SVGID_18_);}
	.st26{fill:url(#SVGID_19_);}
	.st27{fill:url(#SVGID_20_);}
	.st28{fill:url(#SVGID_21_);}
	.st29{fill:url(#SVGID_22_);}
	.st30{fill:url(#SVGID_23_);}
	.st31{fill:url(#SVGID_24_);}
	.st32{fill:url(#SVGID_25_);}
	.st33{fill:url(#SVGID_26_);}
	.st34{fill:url(#SVGID_27_);}
	.st35{display:inline;fill:url(#SVGID_28_);}
</style>
<metadata>
	<sfw  xmlns="&ns_sfw;">
		<slices></slices>
		<sliceSourceBounds  bottomLeftOrigin="true" height="207.2" width="561.1" x="33" y="227.7"></sliceSourceBounds>
	</sfw>
</metadata>
<g>
	<g id="DentaVox">
		<g>
			<path d="M278,117.8c-0.1,0.2-0.1,0.3-0.1,0.5c-0.8,1.7-1.7,3.4-2.6,5.1c-0.1,0.3-0.3,0.4-0.6,0.4c-0.4,0-1,0-1.4,0
				c-6.6,0-13.1,0-19.7,0c-38.8,0-77.6,0-116.4,0c-39.1,0-78.2-0.1-117.3-0.1c-0.4,0-0.8,0-1.3,0c-0.2,0-0.4-0.2-0.4-0.4
				c0-0.1-0.1-0.2-0.1-0.3c0-1.5,0-3.1,0-4.6c0-0.1,0-0.2,0-0.3c0-0.2,0.3-0.4,0.4-0.4c0.1,0,0.3,0,0.4,0c0.4,0,0.8,0,1.3,0
				c42,0,84,0,125.9,0c0.5,0,1,0,1.6,0c0.4,0,0.6,0.2,0.6,0.6c0.1,0.7,0.1,1.3,0.1,2.1c0,0.1,0.1,0.1,0.1,0.1c0.1,0.1,0.2,0,0.3-0.1
				s0.1-0.2,0.2-0.3c0.5-0.8,0.9-1.5,1.5-2.2c0.9-0.3,1.9-0.1,2.8-0.1c14.8,0,29.7,0,44.5,0c26,0,52,0,78,0c0.5,0,1,0,1.6,0
				C277.7,117.7,277.8,117.7,278,117.8z"/>
			<path d="M134.9,52.1c9.1,0,18.2,0,27.3,0c21.7,0,43.3,0,65,0c0.4,0,1,0,1.4,0c0.2,0,0.4,0.1,0.5,0.3c0.1,0.1,0.1,0.2,0.2,0.3
				c0.9,1.7,1.8,3.3,2.7,5c0.1,0.3-0.1,0.5-0.4,0.5c-0.1,0-0.3,0-0.5,0c-0.4,0-1,0-1.4,0c-19.8,0-39.6,0-59.5,0
				c-0.7,0-1.5-0.1-2.2,0.1c-0.3,0.1-0.5,0-0.8,0s-0.6,0-1,0c-41.1,0-82.2,0-123.3,0c-0.6,0-1.2,0-1.7-0.1c-0.2,0-0.4-0.3-0.4-0.4
				c0-0.1,0-0.2,0-0.3c0-1.6,0-3.1,0-4.8c0-0.1,0-0.2,0-0.3c0-0.2,0.2-0.4,0.4-0.4c0.1,0,0.3,0,0.4,0c0.4,0,1,0,1.4,0
				C73.7,52.1,104.3,52.1,134.9,52.1z"/>
			<path d="M224.7,44.7c-0.1,0.1-0.3,0.1-0.4,0.1c-0.5,0-0.8,0-1.3,0c-19.4,0-38.8,0-58.2,0c-14.1,0-28.1,0.1-42.2,0.1
				c-0.6,0-1.2,0.1-1.7,0.1s-1.2,0.1-1.7,0.1c-19.3,0.1-38.7,0.1-58,0.1c-6.2,0-12.3,0-18.5,0c-0.4,0-1,0-1.4-0.1
				c-0.2,0-0.4-0.2-0.4-0.4c0-0.1,0-0.1,0-0.1c0-1.7,0-3.5,0-5.2c0-0.1,0-0.2,0.1-0.3s0.1-0.2,0.3-0.2c0.1-0.1,0.3-0.1,0.4-0.1
				c0.5,0,1,0,1.6,0c30,0,60,0,90.1,0c16.5,0,33.1,0,49.6,0c12.3,0,24.7,0,37.1,0c0.4,0,1,0,1.4,0c0.3,0,0.5,0.1,0.6,0.4
				c0.9,1.7,1.8,3.5,2.7,5.2C224.7,44.4,224.7,44.5,224.7,44.7z"/>
			<path d="M129.4,31.7c-28.7,0-57.5,0-86.2,0c-2.6,0-2.2,0.4-2.3-2.2c0-1.2,0-2.4,0-3.7c0-0.3,0.2-0.4,0.5-0.4c0.1,0,0.3,0,0.4,0
				c0.4,0,1,0,1.4,0c35.6,0,71.2,0,106.8,0c20.9,0,41.8,0,62.7,0c0.5,0,1,0,1.6,0c0.2,0,0.4,0.1,0.5,0.3c0.4,0.8,0.8,1.6,1.2,2.4
				c0.5,1,1,2.1,1.5,3.1c0.1,0.2-0.1,0.4-0.3,0.4c-0.5,0-1,0-1.6,0c-11.4,0-22.7-0.1-34.1,0c-8.7,0.1-17.5,0-26.3,0.1
				C146.8,31.8,138.1,31.7,129.4,31.7z"/>
			<path d="M125.9,18.1c-27.6,0-55.2,0-82.7,0c-0.5,0-1,0-1.6,0c-0.5,0-0.7-0.2-0.7-0.6c0-1.6,0-3.1,0-4.8c0-0.1,0-0.2,0.1-0.3
				s0.1-0.2,0.2-0.2c0.1-0.1,0.2-0.1,0.3-0.1c0.5,0,1,0,1.6,0c54.1,0,108.2,0,162.3,0c0.5,0,1,0,1.6,0c0.4,0,0.7,0.2,0.9,0.5
				c0.3,0.5,0.6,1.1,1,1.6c0.6,1.2,1.3,2.3,2,3.4c0.1,0.1-0.1,0.3-0.3,0.3c-0.1,0-0.3,0-0.4,0c-0.4,0-1,0-1.4,0
				c-14.5,0-28.9,0-43.5,0C152.1,18.1,139,18.1,125.9,18.1z"/>
			<path d="M96.7,157.2c21.9,0,43.7,0,65.6,0c0.6,0,1.3,0,1.9-0.1c0.4-0.1,0.8-0.1,1.3-0.1c7.3,0,14.6,0,21.9,0
				c0.4,0,0.7,0.1,1.1,0.1c0.1,0,0.3,0.3,0.2,0.4c-0.3,0.3-0.4,0.7-0.8,1c-1,1.2-2.1,2.4-3.1,3.6c-0.1,0.1-0.1,0.1-0.2,0.3
				c-1.3,1.5-0.9,1.3-2.8,1.3c-11.4,0-22.9-0.1-34.4-0.1c-0.7,0-1.3,0-2.1-0.1c-0.5-0.1-1-0.1-1.6-0.1c-14.2-0.1-28.4-0.1-42.6-0.1
				c-11.4,0-22.8-0.1-34.3-0.1c-0.8,0-1.7,0-2.5-0.1c-0.4-0.1-1,0-1.4,0c-10.5,0-21.1-0.1-31.7-0.1c-0.5,0-1,0-1.6-0.1
				c-0.2,0-0.4-0.2-0.4-0.4c0-0.7,0-1.5,0-2.2c0-0.8,0-1.7,0-2.5c0-0.4,0.2-0.6,0.6-0.6c0.4,0,1,0,1.4,0c21.8,0,43.6,0,65.4,0
				C96.7,157.3,96.7,157.3,96.7,157.2z"/>
			<path d="M119.6,144.4c25.5,0,51,0,76.6,0c0.5,0,1,0,1.6,0c0.2,0,0.3,0.2,0.2,0.3c-0.1,0.1-0.1,0.3-0.2,0.5c-1,1.5-2.1,3-3.1,4.6
				c-0.1,0.1-0.1,0.2-0.2,0.3c-0.2,0.2-0.4,0.3-0.6,0.4c-0.1,0-0.3,0-0.4,0c-0.4,0-0.8,0-1.3,0c-49.6,0-99.3,0-148.8,0
				c-0.6,0-1.2,0-1.7,0c-0.3,0-0.6-0.3-0.6-0.6c0-1.5,0-3.1,0-4.6c0-0.1,0-0.3,0.1-0.4s0.1-0.2,0.3-0.2c0.1-0.1,0.3-0.1,0.4-0.1
				c0.5,0,1,0,1.6,0C68.7,144.4,94.2,144.4,119.6,144.4z"/>
			<path d="M223.3,91.4c22.1,0,44.3,0,66.4,0c0.6,0,1.2,0,1.7,0.1c0.1,0,0.3,0.3,0.2,0.4c-0.4,0.8-0.8,1.5-1.2,2.2
				c-0.6,1.1-1.2,2.2-1.9,3.3c-0.1,0.3-0.4,0.4-0.6,0.4c-0.4,0-0.8,0-1.3,0c-43.1,0-86.1,0-129.2,0c-0.1,0-0.3,0-0.4,0
				c-1.5,0-1.2,0.1-1.5-1.3c0-0.1,0-0.1,0-0.1c-0.1-1.4-0.4-2.8-0.6-4.2c0-0.1,0-0.2,0-0.3c0.1-0.1,0.1-0.2,0.2-0.3
				c0.1-0.1,0.3-0.1,0.4-0.1c0.5,0,1,0,1.6,0C179.1,91.4,201.2,91.4,223.3,91.4L223.3,91.4z"/>
			<path d="M224,78.3c24.2,0,48.4,0,72.6,0c0.6,0,1.2,0,1.7,0.1c0.1,0,0.2,0.1,0.1,0.2c0,0.1,0,0.1-0.1,0.1
				c-0.9,1.7-1.9,3.3-2.8,4.9c-0.2,0.3-0.5,0.5-0.8,0.5c-0.5,0-1,0-1.4,0c-15.9,0-31.7,0-47.6,0c-19.7,0-39.3,0-58.9,0
				c-11.1,0-22.2,0-33.3,0c-0.2,0-0.4,0-0.6,0c-0.8,0-0.9-0.1-1.3-0.8c-0.6-1.4-1.3-2.8-2.1-4.1c-0.1-0.2-0.2-0.4-0.3-0.6
				c-0.1-0.1,0-0.2,0.1-0.3c0.1-0.1,0.3-0.1,0.4-0.1c0.4,0,1,0,1.4,0c18,0,36.1,0,54.1,0C211.7,78.3,217.8,78.3,224,78.3L224,78.3z"
				/>
			<path d="M108.2,170.4c21.7,0,43.5,0,65.2,0c0.5,0,1,0,1.6,0c0.1,0,0.2,0.1,0.2,0.2s0,0.1-0.1,0.1c-0.2,0.2-0.4,0.4-0.6,0.5
				c-2.2,1.6-4.5,3.2-6.7,4.8c-0.3,0.2-0.6,0.3-0.9,0.3c-0.4,0-1,0-1.4,0c-40.9,0-81.7,0-122.6,0c-2.4,0-2.1,0.3-2.1-2.1
				c0-1,0-1.9,0-2.8c0-0.1,0-0.3,0-0.5c0-0.3,0.3-0.5,0.5-0.5c0.6,0,1.2,0,1.7,0c21.4,0,42.8,0,64.2,0
				C107.6,170.4,107.9,170.4,108.2,170.4z"/>
			<path d="M217.7,110.7c-20.7,0-41.5,0-62.2,0c-0.5,0-1,0-1.6,0c-0.3,0-0.4-0.2-0.3-0.4c0.1-0.3,0.1-0.6,0.3-0.9
				c0.3-1,0.6-2.1,0.6-3.1c0-0.3,0.1-0.5,0.1-0.8c0.1-0.7,0.3-0.8,1-0.8c0.4,0,1,0,1.4,0c16.9,0,33.8,0,50.7,0c0.8,0,1.7,0,2.5,0.1
				c0.5,0.1,1,0,1.6,0c21.2,0,42.5,0,63.7,0c2.5,0,5.1,0,7.6,0c0.3,0,0.6,0,1,0.1c0.1,0,0.1,0.1,0.2,0.2c0,0.1-0.1,0.2-0.1,0.3
				c-0.7,1.6-1.5,3.1-2.2,4.8c-0.2,0.4-0.4,0.5-0.9,0.5s-1,0-1.4,0C259.1,110.7,238.4,110.7,217.7,110.7L217.7,110.7z"/>
			<path d="M57.7,78.1c18.6,0,37.2,0,55.8,0c0.5,0,1,0,1.6,0c0.3,0,0.6,0.3,0.6,0.6c0,0.8,0,1.7,0,2.5c0,0.7,0,1.3,0,2.1
				c0,0.2-0.1,0.5-0.1,0.6s-0.3,0.4-0.4,0.4c-0.1,0-0.3,0.1-0.4,0.1c-0.5,0-1,0-1.6,0c-36.9,0-73.7,0-110.6,0c-2.4,0-2.4,0-2.4-0.2
				c-0.3-0.8-0.1-1.5-0.1-2.3c-0.1-0.9,0-1.8,0-2.7c0-0.2,0-0.4,0.1-0.6c0-0.2,0.2-0.4,0.4-0.4c0.4,0,1,0,1.4,0c6.2,0,12.5,0,18.7,0
				C32.9,78.1,45.3,78.1,57.7,78.1z"/>
			<path d="M66.9,137.1c-17.9,0-35.8,0-53.7,0c-2.4,0-2.1,0.3-2.1-2.1c0-1.2,0-2.3,0-3.5c0-0.1,0.1-0.3,0.1-0.4
				c0.1-0.1,0.1-0.2,0.2-0.2c0.1-0.1,0.2-0.1,0.3-0.1c0.5,0,1,0,1.6,0c35.8,0,71.7,0,107.5,0c0.6,0,1.2,0,1.7,0.1
				c0.2,0,0.4,0.3,0.4,0.4s0.1,0.1,0.1,0.1c0,1.7,0,3.5,0,5.2c0,0.2-0.2,0.5-0.4,0.5c-0.1,0-0.3,0-0.4,0.1c-0.4,0-1,0-1.4,0
				C102.8,137.1,84.8,137.1,66.9,137.1z"/>
			<path d="M91.3,97.8c-16.1,0-32.3,0-48.5,0c-0.5,0-1,0-1.6-0.1c-0.2,0-0.4-0.2-0.4-0.5c0-1.8,0-3.6,0-5.4c0-0.3,0.3-0.5,0.5-0.5
				c0.1,0,0.3,0,0.4,0c0.3,0,0.6,0,1,0c32.4,0,64.9,0,97.3,0c0.4,0,1,0,1.4,0c0.2,0,0.4,0.2,0.4,0.4c0,0.1,0.1,0.2,0.1,0.3
				c0,1.7,0,3.4,0,5.1c0,0.1,0,0.2-0.1,0.3c-0.1,0.1-0.1,0.2-0.3,0.2c-0.5,0.1-1,0.1-1.6,0.1C123.9,97.8,107.6,97.8,91.3,97.8z"/>
			<path d="M78.5,104.7c15.9,0,31.9,0,47.9,0c0.5,0,1,0,1.6,0c0.2,0,0.4,0.2,0.4,0.4c0,1.7,0,3.5,0,5.2c0,0.3-0.3,0.5-0.5,0.5
				c-0.1,0-0.3,0.1-0.4,0.1c-0.4,0-0.8,0-1.3,0c-31.8,0-63.6,0-95.4,0c-0.6,0-1.2,0-1.7-0.1c-0.3,0-0.5-0.3-0.5-0.5
				c0-1.3,0-2.8,0-4.1c0-0.4,0-0.7,0-1.1c0-0.2,0.2-0.4,0.4-0.4c0.5,0,1,0,1.6,0c10.4,0,20.8,0,31.2,0
				C67.4,104.7,73,104.7,78.5,104.7z"/>
			<path d="M186.4,65c15.9,0,31.9,0,47.9,0c0.5,0,1,0,1.4,0c0.3,0,0.6,0.1,0.8,0.4c0.9,1.8,1.8,3.6,2.6,5.4c0.1,0.1,0.1,0.2,0.1,0.3
				c0,0.1-0.1,0.2-0.2,0.2c-0.3,0.1-0.6,0.1-1,0.1c-2.6,0-5.3,0-7.9,0c-28.1,0-56.2,0-84.3,0c-0.5,0-1,0-1.6,0
				c-0.3,0-0.6-0.1-0.8-0.3c-0.8-0.7-1.6-1.3-2.4-2.1c-1.4-1.2-2.8-2.4-4.2-3.6c-0.1-0.1-0.1-0.2-0.1-0.3c0.1-0.1,0.2-0.1,0.3-0.1
				c0.5,0,1,0,1.6,0c7.5,0,15,0,22.5,0C169.4,65,177.9,65,186.4,65z"/>
			<path d="M151.8,184.1c-0.5,0.2-0.9,0.4-1.3,0.5c-2.9,0.8-5.8,1.5-8.7,2.3c-3.2,0.8-6.4,1.7-9.6,2.6c-0.4,0.1-0.8,0.2-1.2,0.2
				s-0.8,0-1.3,0c-28.9,0-57.8,0-86.7,0c-0.5,0-1,0-1.6,0c-0.3,0-0.5-0.2-0.5-0.5c0-1.6,0-3.1,0-4.8c0-0.3,0.3-0.4,0.5-0.5
				c0.1,0,0.3,0,0.4,0c0.3,0,0.6,0,1,0c35.7,0,71.4,0,107.2,0C150.5,184,151.1,183.9,151.8,184.1z"/>
			<path d="M83.1,65c13.4,0,26.8,0,40.2,0c0.5,0,1,0,1.6,0.1c0.2,0,0.4,0.3,0.4,0.4c0,1.9,0,3.7,0,5.5c0,0.2-0.2,0.4-0.4,0.4
				c-0.1,0-0.3,0-0.4,0c-0.4,0-0.8,0-1.1,0c-26.8,0-53.7,0-80.5,0c-0.5,0-1,0-1.6,0c-0.2,0-0.4-0.2-0.4-0.4c0-1.9,0-3.7,0-5.5
				c0-0.1,0-0.1,0-0.1c0.1-0.1,0.1-0.2,0.2-0.3c0.1-0.1,0.2-0.1,0.3-0.1c0.5,0,1,0,1.6,0C56.4,65,69.7,65,83.1,65z"/>
			<path d="M127.7,137c0.1-0.1,0.1-0.2,0.3-0.2c1.2-0.5,2.4-1,3.7-1.5c1.5-0.6,3.1-1.4,4.6-2.1c1.1-0.5,2.1-1.2,3-2
				c0.3-0.3,0.6-0.4,1-0.4s0.8,0,1.1,0c19.7,0,39.4,0,59.1,0c1,0,1.9,0,2.8,0.1c0.1,0,0.3,0.1,0.4,0.1c0.1,0,0.3,0.3,0.2,0.4
				s-0.1,0.3-0.1,0.5c-0.7,1.6-1.4,3.2-2.1,4.8c-0.1,0.1-0.1,0.2-0.1,0.3c-0.1,0.2-0.3,0.3-0.5,0.3c-0.4,0-1,0-1.4,0
				c-5.8,0-11.6,0-17.4,0c-17.4,0-34.8,0-52.3,0c-0.6,0-1.2,0-1.7,0C128,137.1,127.9,137,127.7,137z"/>
			<path d="M278,58.5c-9.7,0-19.5,0-29.2,0c-0.5,0-1,0-1.6-0.1c-0.1,0-0.3-0.3-0.3-0.3c0.2-0.3,0.3-0.6,0.5-1
				c0.9-1.6,1.8-3.2,2.8-4.8c0.2-0.3,0.4-0.6,0.9-0.6c0.3,0,0.6,0,1,0c19.5,0,39.1,0,58.7,0c0.4,0,1-0.1,1.4,0.1
				c0.1,0.1,0.2,0.1,0.1,0.3c0,0.1,0,0.2-0.1,0.3c-1,1.9-1.9,3.8-2.8,5.7c0,0.1-0.1,0.1-0.1,0.1c-0.1,0.2-0.3,0.3-0.5,0.3
				c-0.5,0-1,0-1.6,0C297.5,58.5,287.8,58.5,278,58.5z"/>
			<path d="M240.1,130.7c9.8,0,19.5,0,29.3,0c0.5,0,1-0.1,1.5,0.1c0.1,0.1,0.2,0.1,0.1,0.3c0,0.1,0,0.1,0,0.1c-1,2-1.9,4-2.9,6
				c-0.1,0.2-0.3,0.3-0.5,0.4s-0.4,0.1-0.6,0.1c-0.4,0-0.8,0-1.1,0c-17.3,0-34.5,0-51.8,0c-0.4,0-0.8,0-1.1,0c-0.4,0-0.8-0.2-1-0.6
				c-1-1.9-1.9-3.9-2.9-5.8c-0.1-0.3,0-0.4,0.4-0.5c0.1,0,0.3,0,0.4,0c0.4,0,0.8,0,1.3,0C220.8,130.7,230.4,130.7,240.1,130.7z"/>
			<path d="M271.1,71.5c-9.7,0-19.4,0-29.2,0c-0.5,0-1,0-1.6-0.1c-0.1,0-0.2-0.1-0.1-0.2c0-0.1,0-0.1,0.1-0.1
				c0.9-1.7,1.8-3.5,2.6-5.2c0.1-0.2,0.2-0.4,0.3-0.5c0.1-0.1,0.3-0.2,0.4-0.2c0.4-0.1,1-0.1,1.4-0.1c5.4,0,10.8,0,16.2,0
				c14.1,0,28.2,0,42.3,0c0.5,0,1-0.1,1.5,0.1c0.1,0,0.2,0.1,0.1,0.2c0,0.1-0.1,0.3-0.1,0.4c-0.9,1.7-1.8,3.5-2.7,5.2
				c-0.1,0.3-0.4,0.5-0.8,0.5s-1,0-1.4,0C290.6,71.5,280.8,71.5,271.1,71.5z"/>
			<path d="M295.4,25.4c9.6,0,19.3,0,29,0c0.5,0,1,0,1.6,0.1c0.1,0,0.2,0.1,0.1,0.2c0,0.1-0.1,0.2-0.1,0.3c-0.9,1.6-1.8,3.2-2.8,4.8
				c-0.1,0.1-0.1,0.2-0.2,0.3c-0.3,0.4-0.6,0.6-1.2,0.6c-0.4,0-0.8,0-1.1,0c-19.2,0-38.4,0-57.5,0c-0.5,0-1,0-1.4-0.1
				c-0.3,0-0.4-0.3-0.3-0.6c0.9-1.7,1.8-3.5,2.7-5.2c0.2-0.4,0.5-0.5,0.9-0.5c0.5,0,1,0,1.4,0C276.2,25.4,285.8,25.4,295.4,25.4z"/>
			<path d="M285.2,44.8c-9.7,0-19.4,0-29.1,0c-0.5,0-1,0-1.6-0.1c-0.1,0-0.3-0.2-0.2-0.3c1-1.7,2-3.5,3-5.2c0.2-0.4,0.5-0.5,0.9-0.5
				s0.7,0,1.1,0c19.3,0,38.6,0,58,0c0.5,0,1-0.1,1.5,0.1c0.1,0.1,0.2,0.1,0.1,0.3c0,0.1-0.1,0.2-0.1,0.3c-0.8,1.7-1.6,3.3-2.4,4.9
				c-0.1,0.1-0.1,0.2-0.2,0.3s-0.3,0.2-0.4,0.2c-0.4,0-1,0-1.4,0C304.7,44.8,294.9,44.8,285.2,44.8z"/>
			<path d="M299.6,18.1c-9.6,0-19.2,0-28.9,0c-0.5,0-1,0.1-1.5-0.1c-0.1,0-0.3-0.3-0.2-0.4c0.1-0.1,0.1-0.3,0.2-0.4
				c0.7-1.4,1.4-2.8,2.1-4.2c0.1-0.2,0.2-0.4,0.3-0.5c0.1-0.2,0.3-0.3,0.5-0.3c0.5,0,1,0,1.4,0c8.9,0,17.7,0,26.6,0
				c10.2,0,20.2,0,30.4,0c0.3,0,0.5,0,0.8,0c1.9,0,1.8,0,1,1.5c-0.6,1.2-1.2,2.4-1.9,3.7c-0.1,0.2-0.2,0.4-0.3,0.5
				c-0.1,0.1-0.3,0.3-0.4,0.3c-0.4,0.1-1,0.1-1.4,0.1c-6,0-12.1,0-18.2,0C306.6,18.1,303.1,18.1,299.6,18.1z"/>
			<path d="M240,144c7.3,0,14.7,0,22,0c0.4,0,1,0,1.4,0c0.6,0,0.8,0.2,0.5,0.7c-0.8,1.5-1.6,3.1-2.4,4.6c-0.2,0.3-0.4,0.6-0.6,1
				c-0.1,0.1-0.3,0.2-0.4,0.3c-0.1,0.1-0.2,0-0.3,0c-0.4,0-0.7,0-1.1,0c-12.7,0-25.3,0-38,0c-2.1,0-1.8,0.2-2.8-1.7
				c-0.7-1.3-1.4-2.6-2.1-3.9c-0.1-0.3-0.2-0.5-0.3-0.7c-0.1-0.1,0-0.2,0.1-0.3c0.1,0,0.2-0.1,0.3-0.1c0.4,0,1,0,1.4,0
				C225.3,144,232.7,144,240,144z"/>
			<path d="M240.1,157.3c5.1,0,10.2,0,15.4,0c0.4,0,0.8,0,1.3,0s0.5,0.3,0.3,0.6c-0.2,0.4-0.5,0.8-0.6,1.3c-0.7,1.3-1.4,2.7-2.1,4
				c-0.1,0.2-0.2,0.4-0.3,0.5c-0.1,0.1-0.2,0.1-0.3,0.1c-0.3,0.1-0.6,0.1-1,0.1c-8.3,0-16.6,0-24.9,0c-0.3,0-0.5,0-0.8,0
				c-0.2,0-0.4-0.1-0.5-0.3c-0.1-0.1-0.2-0.3-0.3-0.4c-1-1.7-2-3.5-3-5.2c-0.1-0.2-0.1-0.4-0.2-0.6l0.1-0.1c0.1-0.1,0.2-0.1,0.3-0.1
				c0.4,0,1,0,1.4,0C229.9,157.3,235,157.3,240.1,157.3z"/>
			<path d="M240.4,170.3c3,0,5.9,0,8.9,0c0.3,0,0.6,0,1,0.1c0.1,0,0.2,0.1,0.1,0.3s-0.1,0.3-0.2,0.4c-0.8,1.7-1.7,3.4-2.5,5.1
				c-0.1,0.2-0.2,0.4-0.3,0.5c-0.1,0.1-0.3,0.2-0.4,0.3c-0.2,0.1-0.5,0.1-0.6,0.1c-4,0-7.9,0-11.9,0c-0.2,0-0.4,0-0.6-0.1
				c-0.1-0.1-0.3-0.1-0.4-0.3c-0.3-0.5-0.6-0.9-0.8-1.3c-0.8-1.4-1.5-2.8-2.2-4.2c-0.1-0.2-0.2-0.4-0.3-0.6c0-0.1,0.1-0.2,0.2-0.2
				c0.4,0,0.7-0.1,1.1-0.1C234.4,170.3,237.4,170.3,240.4,170.3z"/>
			<path d="M531.1,105.6c-0.1,2-0.3,4.5-0.7,6.9c-0.3,1.9-0.8,3.6-1.6,5.3c-1.3,2.5-3.2,4.4-6,5.3c-0.7,0.3-1.5,0.4-2.3,0.5
				c-0.9,0-2,0.1-2.9,0c-2.5-0.3-4.8-1.3-6.4-3.4c-1.7-2.3-2.7-4.8-3-7.4c-0.7-4.4-0.8-6.4-0.5-10.7c0.1-2.7,0.5-5.4,1.3-8.1
				c0.4-1.5,1.1-2.8,2-4.1c1.9-2.8,4.5-4,7.7-4.1c1.1,0,2.1,0,3.2,0.3c3.6,0.9,6,3,7.3,6.5c0.8,2,1.3,4.1,1.5,6.4
				c0,1.1,0.3,2.1,0.4,3.2C531,102.9,531.1,104,531.1,105.6z M513,104.7L513,104.7c0,0.8,0,1.5,0,2.3c-0.1,2.3,0.3,4.4,0.7,6.5
				c0.3,1.3,0.8,2.5,1.6,3.6c0.9,1.3,2.1,2.1,3.8,2.1c0.3,0,0.4,0,0.7,0c1.9,0,3.2-0.8,4-2.4c0.4-0.7,0.7-1.3,0.9-2.1
				c0.8-2.5,1.1-5,1.2-7.7c0.1-1.5,0-2.8,0-4.2c0.1-2.3-0.4-4.4-0.7-6.5c-0.1-1.2-0.7-2.3-1.2-3.3c-1.1-1.7-2.5-2.7-4.5-2.7
				c-1.9,0-3.3,0.8-4.4,2.4c-0.5,0.9-1.1,1.9-1.3,2.9c-0.4,1.9-0.9,3.8-0.8,5.8C513,102.4,513,103.5,513,104.7z"/>
			<path d="M488.5,112.6c0.3-0.9,0.7-1.9,0.8-2.8c0.8-3.8,1.6-7.7,2.4-11.5c0.7-2.7,1.1-5.3,1.6-8c0.3-1.2,0.5-2.4,0.8-3.4
				c0-0.1,0.5-0.5,0.8-0.5c1.2,0,2.4,0,3.6,0c0.7,0,1.1,0.7,0.9,1.5c-0.5,2.7-1.1,5.3-1.7,8c-1.1,4.8-2.1,9.5-3.2,14.3
				c-0.8,4-1.7,7.8-2.7,11.8c-0.1,0.3-0.3,0.7-0.4,0.9c-0.3,0.4-0.5,0.7-0.9,0.8c-0.3,0-0.4,0-0.7,0c-1.1,0-2.1,0-3.3,0
				c-1.1,0-1.5-0.5-1.7-1.6c-0.9-4.6-2-9.4-3-14.1c-1.1-4.6-2-9.3-3-14.1c-0.3-1.3-0.7-2.5-0.9-3.8c-0.1-0.7-0.3-1.3-0.4-1.9
				c-0.1-1.2,0.3-1.9,1.6-1.9c0.9,0,2,0,2.9,0.1c0.3,0,0.7,0.4,0.7,0.7c0.4,2,0.9,4,1.3,6.1c1.2,5.6,2.3,11,3.4,16.6
				c0.3,0.9,0.4,1.9,0.7,2.8C488.3,112.5,488.3,112.6,488.5,112.6z"/>
			<path d="M549.7,110.8c-1.2,2.5-2.3,5.2-3.4,7.7c-0.1,0.4-0.3,0.8-0.5,1.2c-1.9,4-0.9,3.3-6,3.2c-0.5,0-0.9-0.8-0.7-1.2
				c0.3-0.7,0.7-1.3,0.9-2.1c1.9-4,3.8-7.8,5.7-11.8c0.5-1.1,0.9-2.1,1.5-3c0-0.9-0.4-1.5-0.7-2c-2.1-4.5-4.4-9-6.5-13.5
				c-0.1-0.4-0.4-0.8-0.5-1.2c-0.4-0.9,0.1-1.7,1.2-1.7c0.4,0,0.9,0,1.3,0c2.8,0,2.4-0.1,3.6,2.4c1.3,3,2.7,6,4,8.9
				c0.1,0.1,0.3,0.3,0.5,0.3c0.1,0,0.4-0.1,0.5-0.3s0.1-0.4,0.3-0.5c1.3-2.9,2.5-5.8,3.8-8.6c0.3-0.5,0.5-0.9,0.7-1.5
				c0.1-0.3,0.4-0.5,0.8-0.5c1.2,0,2.4,0,3.6,0c0.7,0,1.2,0.8,0.9,1.5c-0.1,0.4-0.3,0.8-0.5,1.2c-0.9,1.9-1.9,3.7-2.7,5.6
				c-1.2,2.5-2.3,4.9-3.4,7.4c-1.5,3.2-1.5,2,0.1,5.3c2,4.4,4.1,8.6,6.2,13c0.3,0.5,0.4,1.1,0.7,1.5c0.1,0.3-0.3,0.9-0.5,1.1
				c-0.3,0-0.4,0.1-0.7,0.1c-1.1,0-2.1,0-3.3,0c-0.4,0-0.8-0.3-1.1-0.7c-0.3-0.5-0.5-0.9-0.7-1.5c-1.3-3-2.7-6.2-4.1-9.3
				C550.6,111.2,550.4,110.8,549.7,110.8z"/>
			<path d="M409.6,105.2c0,5.2,0,10.2,0,15.4c0,0.5,0,1.1-0.1,1.6c0,0.1-0.3,0.4-0.4,0.4c-0.3,0.1-0.7,0.1-0.9,0.1
				c-0.4,0-0.8-0.1-1.1-0.7c-0.3-0.5-0.5-0.9-0.7-1.5c-3.6-9-7.2-18-10.7-27c-0.3-0.5-0.4-1.1-0.7-1.5c-0.1-0.1-0.4-0.3-0.5-0.3
				l-0.1,0.1c0,0.9-0.1,1.7-0.1,2.7c0,8,0,15.9,0,23.9c0,0.9,0,2-0.1,2.9c0,0.4-0.4,0.8-0.9,0.8c-0.1,0-0.3,0-0.3,0
				c-0.5,0-0.9-0.4-0.9-0.8c0-0.5-0.1-1.1-0.1-1.6c0-10.1,0-20.3,0-30.4c0-0.5,0-1.1,0-1.6s0.4-0.9,1.1-0.9c0.5,0,1.1,0,1.6,0
				c0.3,0,0.7,0.3,0.8,0.5c0.1,0.4,0.4,0.8,0.5,1.2c3.3,8.5,6.8,17,10.1,25.5c0.1,0.4,0.4,0.8,0.7,1.1c0,0,0.1,0,0.3,0
				c0.1-0.1,0.1-0.1,0.1-0.3c0-0.9,0.1-2,0.1-2.9c0-7.3,0-14.6,0-21.9c0-0.8,0-1.5,0-2.3c0-0.5,0.4-0.9,1.1-0.9c0.3,0,0.4,0,0.7,0
				c0.3,0,0.7,0.4,0.7,0.7c0,0.7,0.1,1.3,0.1,2C409.6,94.9,409.6,100,409.6,105.2z"/>
			<path d="M332.8,104.5c0-5,0-9.9,0-15c0-0.7,0-1.3,0.1-2c0-0.1,0.3-0.4,0.4-0.4c0.1-0.1,0.4-0.1,0.7-0.1c2.7,0,5.2-0.1,7.8,0
				c4.4,0.1,7.6,2.7,8.9,6.4c0.7,2,1.2,4,1.3,6c0.1,3.4,0.3,6.9,0,10.5c-0.1,2.7-0.8,5.2-2,7.6c-0.4,0.9-0.9,1.7-1.7,2.4
				c-1.6,1.6-3.6,2.4-5.8,2.5c-2.9,0.1-5.8,0-8.7,0c-0.4,0-0.8-0.4-0.8-0.8c0-0.9,0-1.7,0-2.7C332.8,114.1,332.8,109.3,332.8,104.5z
				 M335.1,104.5c0,4.4,0,8.7,0,13.1c0,0.7,0,1.3,0,2c0,0.3,0.4,0.7,0.7,0.7c2.1,0,4.1,0.1,6.2,0c3.6-0.4,5.7-2.3,6.6-5.4
				c0.4-1.5,0.8-2.9,0.8-4.5c0-1.5,0.3-2.8,0.3-4.2c0-0.9,0-2,0-2.9c-0.1-1.5-0.3-3-0.4-4.5c0-1.6-0.4-3-0.9-4.5
				c-0.5-1.9-1.7-3.3-3.6-4.1c-0.9-0.4-2.1-0.8-3-0.9c-2.1-0.1-4.1,0-6.2,0c-0.1,0-0.4,0.3-0.4,0.4c-0.1,0.5-0.1,1.1-0.1,1.6
				C335.1,95.7,335.1,100,335.1,104.5z"/>
			<path d="M470.8,121.9c-0.7,0.7-1.5,0.5-2.1,0.3c-0.1,0-0.4-0.3-0.4-0.4c-0.1-0.4-0.4-0.8-0.5-1.2c-0.8-2.7-1.5-5.2-2.3-7.8
				c-0.1-0.5-0.7-0.9-1.2-0.9c-3.3,0-6.8,0-10.1,0c-0.5,0-1.1,0.4-1.2,0.9c-0.5,1.7-1.1,3.3-1.5,5c-0.4,1.2-0.8,2.5-1.2,3.7
				c-0.3,0.8-0.5,0.9-1.5,0.9c-0.3,0-0.4,0-0.7,0s-0.7-0.4-0.5-0.7c1.2-4,2.5-7.8,3.7-11.8c2.3-6.9,4.4-13.9,6.6-20.8
				c0.3-0.8,0.4-1.7,0.9-2.4c0,0,0.1-0.1,0.3-0.1c0.1,0,0.3,0,0.3,0.1c0.1,0.1,0.3,0.4,0.4,0.5c1.5,4.5,2.9,9.1,4.4,13.7
				c2.1,6.4,4.1,12.9,6.2,19.2C470.6,120.6,470.7,121.2,470.8,121.9z M459.3,109.4c1.5,0,3-0.1,4.5-0.1c0.3,0,0.5-0.5,0.5-0.8
				c-1.6-5-3-9.9-4.6-15c0-0.1-0.3-0.3-0.5-0.4c-0.1-0.1-0.3,0.1-0.4,0.4c-1.2,4-2.4,8-3.7,11.8c-0.3,1.1-0.5,2.1-0.9,3.2
				c0,0.3,0.3,0.8,0.5,0.8C456.3,109.3,457.7,109.3,459.3,109.4z"/>
			<path d="M363.6,104.4c0-4.8,0-9.5,0-14.3c0-0.8,0-1.5,0.1-2.3c0-0.4,0.5-0.8,0.9-0.8c0.3,0,0.4,0,0.7,0c4.6,0,9.4,0,14.1,0
				c0.3,0,0.7,0,0.9,0.1c0.1,0,0.5,0.5,0.5,0.7c0,0.7-0.3,1.2-0.8,1.2c-1.1,0-2.1,0-3.3,0.1c-3.3,0-6.8,0-10.1,0.1
				c-0.3,0-0.7,0.4-0.7,0.5s0,0.3,0,0.3c0,4,0,8.1,0,12.1c0,0.8,0.4,1.1,1.3,1.1c2.4,0,4.8,0,7.2,0c0.5,0,1.1,0,1.6,0.1
				c0.3,0,0.7,0.4,0.7,0.7c0,0.3,0,0.7-0.1,0.9c0,0.1-0.3,0.3-0.5,0.4c-0.5,0.1-1.1,0.1-1.6,0.1c-2.5,0-5,0-7.6,0
				c-0.7,0-0.9,0.4-0.9,1.1c0,4.4,0,8.7,0,13c0,0.4,0.4,0.8,0.8,0.8c1.2,0,2.4,0,3.6,0c3,0,6.1,0,9.1,0c0.4,0,0.8,0.1,1.3,0.1
				c0.1,0,0.5,0.5,0.5,0.8c0,0.5-0.3,0.9-0.5,1.1c-0.3,0-0.4,0.1-0.7,0.1c-5,0-10.1,0-15,0c-0.1,0-0.3,0-0.3,0
				c-0.7,0-1.1-0.4-1.1-0.9c0-0.9,0-1.7,0-2.7C363.6,113.9,363.6,109.2,363.6,104.4z"/>
			<path d="M428.6,105.5c0-4.1,0-8.2,0-12.5c0-0.9,0-1.7,0-2.7s-0.1-1.5-1.3-1.5c-1.9,0-3.7,0-5.6,0c-0.8,0-1.5,0-2.3,0
				c-0.5,0-0.9-0.5-0.8-1.2c0-0.3,0.4-0.7,0.5-0.8c0.3,0,0.7-0.1,0.9-0.1c6.5,0,13.1,0,19.6,0c0.3,0,0.4,0,0.7,0
				c0.4,0,0.7,0.5,0.7,0.9s-0.3,0.9-0.7,0.9c-0.5,0-1.1,0.1-1.6,0.1c-2,0-4,0-5.8,0c-1.6,0-1.7,0.1-1.7,1.9c0,4,0,8.1,0,12.1
				c0,5.4,0,10.9,0,16.3c0,0.8,0,1.5-0.1,2.3c0,0.3-0.4,0.7-0.7,0.7c-0.4,0-0.9,0-1.3,0c-0.1,0-0.4-0.3-0.4-0.4
				c-0.1-0.7-0.1-1.3-0.1-2C428.6,115,428.6,110.2,428.6,105.5z"/>
			<path d="M240.2,183.6c1,0,2.1,0.1,3.1,0.1c0.1,0,0.3,0.3,0.2,0.4c-0.1,0.2-0.2,0.4-0.3,0.6c-0.3,0.5-0.5,1-0.8,1.5
				c-0.7,1.3-1.3,2.6-2.1,3.9c-0.1,0.3-0.4,0.3-0.5,0.1c-1.1-2.1-2.2-4-3.3-6.1c-0.1-0.1,0.1-0.3,0.3-0.3c0.2,0,0.5-0.1,0.6-0.1
				C238.4,183.6,239.3,183.6,240.2,183.6L240.2,183.6z"/>
		</g>
	</g>
</g>
<g id="Dentacare" class="st0">
	
		<linearGradient id="SVGID_1_" gradientUnits="userSpaceOnUse" x1="119.73" y1="452" x2="119.73" y2="659.1671" gradientTransform="matrix(1 0 0 1 0 -452)">
		<stop  offset="0" style="stop-color:#2CADE5"/>
		<stop  offset="1" style="stop-color:#23436D"/>
	</linearGradient>
	<path class="st1" d="M119.1,89.6c-10.3-14.4-33.8-22.1-45-4.2c-11.5,18.3,7.3,37.5,19.3,49.7c4,4,14.9,10.7,17.1,16
		c1.7,4.2-1,13.2-1.6,18c-1.7,14.5-7.6,40.2-27.2,37.9c-15.3-1.8-21.8-26.5-26.5-39.2c-4.9-13-8.8-26.5-14.5-39.2
		c-5.2-11.6-13.1-21.9-17.2-34C16,73,17,46.2,28.2,25.9C37.8,8.7,57.6-0.5,76.9,0.1c19.4,0.6,35.1,11,54.7,6.7
		c14.7-3.2,29.3-9.1,44.5-5.9c20.6,4.4,36.5,20.4,41.9,40.4c5.8,21.6,2.5,46.7-7.5,66.7c-5.8,11.5-11.9,21.5-16.5,33.5
		c-4.8,12.3-9.2,24.9-14.3,37.1c-4,9.6-9.8,26.9-21.9,28.2c-21.6,2.3-23.8-23.9-26.3-38.3c-0.9-5.1-4.2-14.1-2.5-18.9
		c2.3-6.4,13.6-13.8,18.4-18.7c11.2-11.4,25.7-26.3,17.6-43.7c-5.3-11.3-21.4-15.7-32.5-10.2C127.2,79.7,123.3,85.3,119.1,89.6z"/>
	<g class="st2">
		<g>
			<g>
				<g>
					
						<linearGradient id="SVGID_2_" gradientUnits="userSpaceOnUse" x1="282.3653" y1="514.2226" x2="282.3653" y2="596.8226" gradientTransform="matrix(1 0 0 1 0 -452)">
						<stop  offset="0" style="stop-color:#2CADE5"/>
						<stop  offset="1" style="stop-color:#23436D"/>
					</linearGradient>
					<path class="st3" d="M309.3,138.8c-7.1,4-15.5,6-25.2,6c-13.7,0-24.6-3.7-32.8-11c-8.2-7.3-12.3-17-12.3-28.9
						c0-12.7,4.2-23,12.5-30.9c8.3-7.9,19.8-11.8,34.3-11.8c8.8,0,16.6,1.9,23.3,5.7c7.4,4.2,12.7,11.6,15.8,22.1l-14.2,6.5
						c-2.2-7.8-5.1-13.1-9-16.1c-3.8-3-9.2-4.4-16.2-4.4c-9.9,0-17.5,2.6-22.9,7.9c-5.3,5.3-8,12.3-8,21c0,8.1,2.5,14.4,7.4,18.9
						c5.2,4.8,12.4,7.3,21.8,7.3c6.6,0,12.3-1.4,17-4.1c4.8-2.7,8.2-8.8,10.1-18l14.9,5.8C322.9,126.2,317.4,134.2,309.3,138.8z"/>
				</g>
				<g>
					
						<linearGradient id="SVGID_3_" gradientUnits="userSpaceOnUse" x1="282.3653" y1="514.2226" x2="282.3653" y2="596.8226" gradientTransform="matrix(1 0 0 1 0 -452)">
						<stop  offset="0" style="stop-color:#2CADE5"/>
						<stop  offset="1" style="stop-color:#23436D"/>
					</linearGradient>
					<path class="st4" d="M309.3,138.8c-7.1,4-15.5,6-25.2,6c-13.7,0-24.6-3.7-32.8-11c-8.2-7.3-12.3-17-12.3-28.9
						c0-12.7,4.2-23,12.5-30.9c8.3-7.9,19.8-11.8,34.3-11.8c8.8,0,16.6,1.9,23.3,5.7c7.4,4.2,12.7,11.6,15.8,22.1l-14.2,6.5
						c-2.2-7.8-5.1-13.1-9-16.1c-3.8-3-9.2-4.4-16.2-4.4c-9.9,0-17.5,2.6-22.9,7.9c-5.3,5.3-8,12.3-8,21c0,8.1,2.5,14.4,7.4,18.9
						c5.2,4.8,12.4,7.3,21.8,7.3c6.6,0,12.3-1.4,17-4.1c4.8-2.7,8.2-8.8,10.1-18l14.9,5.8C322.9,126.2,317.4,134.2,309.3,138.8z"/>
				</g>
			</g>
			<g>
				<g>
					
						<linearGradient id="SVGID_4_" gradientUnits="userSpaceOnUse" x1="367.2653" y1="514.3226" x2="367.2653" y2="596.8226" gradientTransform="matrix(1 0 0 1 0 -452)">
						<stop  offset="0" style="stop-color:#2CADE5"/>
						<stop  offset="1" style="stop-color:#23436D"/>
					</linearGradient>
					<path class="st5" d="M395.9,143.2v-7.4c-7.5,6-17.3,9-29.2,9c-13.6,0-24.3-4-32.3-12.1c-7.4-7.5-11.2-17.2-11.2-28.9
						c0-12.1,3.8-21.9,11.3-29.4c8.1-8.1,19-12.1,32.8-12.1c11.4,0,21,2.9,28.6,8.7v-8.4h15.5v80.6L395.9,143.2L395.9,143.2z
						 M388.4,83.4c-5-5-12.3-7.4-21.9-7.4c-8.8,0-15.8,2.7-20.8,8.1c-4.6,5.1-6.9,11.6-6.9,19.7s2.3,14.5,6.9,19.4
						c5,5.3,11.9,7.9,20.8,7.9s16.1-2.6,21.4-7.8c5.3-5.2,8-11.7,8-19.6C395.9,95.1,393.4,88.4,388.4,83.4z"/>
				</g>
				<g>
					
						<linearGradient id="SVGID_5_" gradientUnits="userSpaceOnUse" x1="367.2653" y1="514.3226" x2="367.2653" y2="596.8226" gradientTransform="matrix(1 0 0 1 0 -452)">
						<stop  offset="0" style="stop-color:#2CADE5"/>
						<stop  offset="1" style="stop-color:#23436D"/>
					</linearGradient>
					<path class="st6" d="M395.9,143.2v-7.4c-7.5,6-17.3,9-29.2,9c-13.6,0-24.3-4-32.3-12.1c-7.4-7.5-11.2-17.2-11.2-28.9
						c0-12.1,3.8-21.9,11.3-29.4c8.1-8.1,19-12.1,32.8-12.1c11.4,0,21,2.9,28.6,8.7v-8.4h15.5v80.6L395.9,143.2L395.9,143.2z
						 M388.4,83.4c-5-5-12.3-7.4-21.9-7.4c-8.8,0-15.8,2.7-20.8,8.1c-4.6,5.1-6.9,11.6-6.9,19.7s2.3,14.5,6.9,19.4
						c5,5.3,11.9,7.9,20.8,7.9s16.1-2.6,21.4-7.8c5.3-5.2,8-11.7,8-19.6C395.9,95.1,393.4,88.4,388.4,83.4z"/>
				</g>
			</g>
			<g>
				<g>
					
						<linearGradient id="SVGID_6_" gradientUnits="userSpaceOnUse" x1="444.1153" y1="514.3226" x2="444.1153" y2="596.8989" gradientTransform="matrix(1 0 0 1 0 -452)">
						<stop  offset="0" style="stop-color:#2CADE5"/>
						<stop  offset="1" style="stop-color:#23436D"/>
					</linearGradient>
					<path class="st7" d="M441.2,86.5c-4.3,6.1-6.5,14.2-6.5,24.1v32.5h-15.5V63.9h15.5v7.3c7.6-5.9,19.1-8.9,34.4-8.9V76
						C455.3,76,446,79.5,441.2,86.5z"/>
				</g>
				<g>
					
						<linearGradient id="SVGID_7_" gradientUnits="userSpaceOnUse" x1="444.1153" y1="514.3226" x2="444.1153" y2="596.8989" gradientTransform="matrix(1 0 0 1 0 -452)">
						<stop  offset="0" style="stop-color:#2CADE5"/>
						<stop  offset="1" style="stop-color:#23436D"/>
					</linearGradient>
					<path class="st8" d="M441.2,86.5c-4.3,6.1-6.5,14.2-6.5,24.1v32.5h-15.5V63.9h15.5v7.3c7.6-5.9,19.1-8.9,34.4-8.9V76
						C455.3,76,446,79.5,441.2,86.5z"/>
				</g>
			</g>
			<g>
				<g>
					
						<linearGradient id="SVGID_8_" gradientUnits="userSpaceOnUse" x1="509.8152" y1="514.2225" x2="509.8152" y2="596.8225" gradientTransform="matrix(1 0 0 1 0 -452)">
						<stop  offset="0" style="stop-color:#2CADE5"/>
						<stop  offset="1" style="stop-color:#23436D"/>
					</linearGradient>
					<path class="st9" d="M481.1,109.7c1.8,14.2,11.3,21.3,28.4,21.3c14,0,23.4-5.9,28.3-17.6h16c-4.5,13-10.9,21.7-19.2,25.9
						c-7.2,3.7-15.7,5.5-25.4,5.5c-14.3,0-25.3-3.8-33-11.5c-7.3-7.2-11-17.1-11-29.6c0-12,4-21.9,12.1-29.7
						c8.1-7.9,19-11.8,32.6-11.8c13.4,0,24.1,3.5,32.3,10.5s12.3,16.4,12.3,28.1v8.7L481.1,109.7z M530.7,82.9
						c-5-4.6-11.9-6.9-20.7-6.9c-8.8,0-15.8,2.3-20.8,6.9c-3.9,3.6-6.4,7.9-7.6,13.1h56.2C536.8,90.8,534.5,86.5,530.7,82.9z"/>
				</g>
				<g>
					
						<linearGradient id="SVGID_9_" gradientUnits="userSpaceOnUse" x1="509.8152" y1="514.2225" x2="509.8152" y2="596.8225" gradientTransform="matrix(1 0 0 1 0 -452)">
						<stop  offset="0" style="stop-color:#2CADE5"/>
						<stop  offset="1" style="stop-color:#23436D"/>
					</linearGradient>
					<path class="st10" d="M481.1,109.7c1.8,14.2,11.3,21.3,28.4,21.3c14,0,23.4-5.9,28.3-17.6h16c-4.5,13-10.9,21.7-19.2,25.9
						c-7.2,3.7-15.7,5.5-25.4,5.5c-14.3,0-25.3-3.8-33-11.5c-7.3-7.2-11-17.1-11-29.6c0-12,4-21.9,12.1-29.7
						c8.1-7.9,19-11.8,32.6-11.8c13.4,0,24.1,3.5,32.3,10.5s12.3,16.4,12.3,28.1v8.7L481.1,109.7z M530.7,82.9
						c-5-4.6-11.9-6.9-20.7-6.9c-8.8,0-15.8,2.3-20.8,6.9c-3.9,3.6-6.4,7.9-7.6,13.1h56.2C536.8,90.8,534.5,86.5,530.7,82.9z"/>
				</g>
			</g>
		</g>
		<g>
			<g>
				<g>
					
						<linearGradient id="SVGID_10_" gradientUnits="userSpaceOnUse" x1="282.3653" y1="514.2226" x2="282.3653" y2="596.8226" gradientTransform="matrix(1 0 0 1 0 -452)">
						<stop  offset="0" style="stop-color:#2CADE5"/>
						<stop  offset="1" style="stop-color:#23436D"/>
					</linearGradient>
					<path class="st11" d="M309.3,138.8c-7.1,4-15.5,6-25.2,6c-13.7,0-24.6-3.7-32.8-11c-8.2-7.3-12.3-17-12.3-28.9
						c0-12.7,4.2-23,12.5-30.9c8.3-7.9,19.8-11.8,34.3-11.8c8.8,0,16.6,1.9,23.3,5.7c7.4,4.2,12.7,11.6,15.8,22.1l-14.2,6.5
						c-2.2-7.8-5.1-13.1-9-16.1c-3.8-3-9.2-4.4-16.2-4.4c-9.9,0-17.5,2.6-22.9,7.9c-5.3,5.3-8,12.3-8,21c0,8.1,2.5,14.4,7.4,18.9
						c5.2,4.8,12.4,7.3,21.8,7.3c6.6,0,12.3-1.4,17-4.1c4.8-2.7,8.2-8.8,10.1-18l14.9,5.8C322.9,126.2,317.4,134.2,309.3,138.8z"/>
				</g>
			</g>
			<g>
				<g>
					
						<linearGradient id="SVGID_11_" gradientUnits="userSpaceOnUse" x1="367.2653" y1="514.3226" x2="367.2653" y2="596.8226" gradientTransform="matrix(1 0 0 1 0 -452)">
						<stop  offset="0" style="stop-color:#2CADE5"/>
						<stop  offset="1" style="stop-color:#23436D"/>
					</linearGradient>
					<path class="st12" d="M395.9,143.2v-7.4c-7.5,6-17.3,9-29.2,9c-13.6,0-24.3-4-32.3-12.1c-7.4-7.5-11.2-17.2-11.2-28.9
						c0-12.1,3.8-21.9,11.3-29.4c8.1-8.1,19-12.1,32.8-12.1c11.4,0,21,2.9,28.6,8.7v-8.4h15.5v80.6L395.9,143.2L395.9,143.2z
						 M388.4,83.4c-5-5-12.3-7.4-21.9-7.4c-8.8,0-15.8,2.7-20.8,8.1c-4.6,5.1-6.9,11.6-6.9,19.7s2.3,14.5,6.9,19.4
						c5,5.3,11.9,7.9,20.8,7.9s16.1-2.6,21.4-7.8c5.3-5.2,8-11.7,8-19.6C395.9,95.1,393.4,88.4,388.4,83.4z"/>
				</g>
			</g>
			<g>
				<g>
					
						<linearGradient id="SVGID_12_" gradientUnits="userSpaceOnUse" x1="444.1153" y1="514.3226" x2="444.1153" y2="595.1226" gradientTransform="matrix(1 0 0 1 0 -452)">
						<stop  offset="0" style="stop-color:#2CADE5"/>
						<stop  offset="1" style="stop-color:#23436D"/>
					</linearGradient>
					<path class="st13" d="M441.2,86.5c-4.3,6.1-6.5,14.2-6.5,24.1v32.5h-15.5V63.9h15.5v7.3c7.6-5.9,19.1-8.9,34.4-8.9V76
						C455.3,76,446,79.5,441.2,86.5z"/>
				</g>
			</g>
			<g>
				<g>
					
						<linearGradient id="SVGID_13_" gradientUnits="userSpaceOnUse" x1="509.8152" y1="514.2225" x2="509.8152" y2="596.8225" gradientTransform="matrix(1 0 0 1 0 -452)">
						<stop  offset="0" style="stop-color:#2CADE5"/>
						<stop  offset="1" style="stop-color:#23436D"/>
					</linearGradient>
					<path class="st14" d="M481.1,109.7c1.8,14.2,11.3,21.3,28.4,21.3c14,0,23.4-5.9,28.3-17.6h16c-4.5,13-10.9,21.7-19.2,25.9
						c-7.2,3.7-15.7,5.5-25.4,5.5c-14.3,0-25.3-3.8-33-11.5c-7.3-7.2-11-17.1-11-29.6c0-12,4-21.9,12.1-29.7
						c8.1-7.9,19-11.8,32.6-11.8c13.4,0,24.1,3.5,32.3,10.5s12.3,16.4,12.3,28.1v8.7L481.1,109.7z M530.7,82.9
						c-5-4.6-11.9-6.9-20.7-6.9c-8.8,0-15.8,2.3-20.8,6.9c-3.9,3.6-6.4,7.9-7.6,13.1h56.2C536.8,90.8,534.5,86.5,530.7,82.9z"/>
				</g>
			</g>
		</g>
	</g>
</g>
<g id="TrustedRev" class="st0">
	<polygon class="st15" points="114.5,12.8 114.5,35.8 154.2,58.7 171.3,45.8 	"/>
	<polygon class="st16" points="102.8,12.8 102.8,35.8 51.9,65.9 31.4,54 	"/>
	<polygon class="st17" points="25.7,64.1 45.4,75.8 45.4,134 25.7,145.6 	"/>
	<polygon class="st18" points="30.2,156 49.9,144.7 102.7,174.9 102.7,198.5 	"/>
	<polygon class="st19" points="114.6,198.5 114.6,175.3 167.5,144.5 187.7,156.3 	"/>
	<polygon class="st20" points="191.7,73.5 191.7,145.3 171.8,133.6 171.8,95.3 	"/>
	<polygon class="st2" points="91.3,90.4 72.9,108.9 109.6,146.7 220.6,22.9 110.1,109.3 	"/>
	<g class="st2">
		
			<linearGradient id="SVGID_14_" gradientUnits="userSpaceOnUse" x1="223.0653" y1="555.6674" x2="223.0653" y2="588.2673" gradientTransform="matrix(1 0 0 1 0 -452)">
			<stop  offset="0" style="stop-color:#0071C9"/>
			<stop  offset="1" style="stop-color:#003B75"/>
		</linearGradient>
		<path class="st21" d="M235.3,109.2h-9v27h-6.4v-27h-9v-5.6h24.4V109.2z"/>
		
			<linearGradient id="SVGID_15_" gradientUnits="userSpaceOnUse" x1="244.1153" y1="564.0674" x2="244.1153" y2="588.2673" gradientTransform="matrix(1 0 0 1 0 -452)">
			<stop  offset="0" style="stop-color:#0071C9"/>
			<stop  offset="1" style="stop-color:#003B75"/>
		</linearGradient>
		<path class="st22" d="M252.6,115l-3.1,5c-0.6-0.6-1.2-1.2-1.9-1.7c-0.7-0.5-1.4-0.7-2.1-0.7c-0.4,0-0.8,0.1-1.2,0.3
			c-0.4,0.2-0.9,0.5-1.3,0.9s-0.7,0.9-1,1.6s-0.4,1.5-0.4,2.5v13.3h-5.9v-23.6h5.9v2.5c0.7-1,1.5-1.8,2.3-2.3
			c0.9-0.5,1.8-0.8,2.9-0.8c1,0,2,0.3,3,0.8C250.8,113.4,251.7,114.1,252.6,115z"/>
		
			<linearGradient id="SVGID_16_" gradientUnits="userSpaceOnUse" x1="264.8153" y1="564.6675" x2="264.8153" y2="588.8257" gradientTransform="matrix(1 0 0 1 0 -452)">
			<stop  offset="0" style="stop-color:#0071C9"/>
			<stop  offset="1" style="stop-color:#003B75"/>
		</linearGradient>
		<path class="st23" d="M275.5,136.2h-5.9v-1.8c-0.4,0.4-0.8,0.7-1.3,1s-1,0.5-1.6,0.7s-1.1,0.4-1.7,0.5s-1.1,0.2-1.7,0.2
			c-1.2,0-2.3-0.2-3.4-0.6s-2.1-1-2.9-1.8s-1.5-1.8-2-3.1c-0.5-1.3-0.8-2.7-0.8-4.4v-14.3h5.9v14c0,0.8,0.1,1.6,0.4,2.2
			s0.6,1.2,1,1.6s0.9,0.7,1.5,0.9c0.6,0.2,1.1,0.3,1.7,0.3c1.9,0,3.6-0.7,4.9-2v-17.1h5.9V136.2z"/>
		
			<linearGradient id="SVGID_17_" gradientUnits="userSpaceOnUse" x1="288.6653" y1="564.0554" x2="288.6653" y2="588.9075" gradientTransform="matrix(1 0 0 1 0 -452)">
			<stop  offset="0" style="stop-color:#0071C9"/>
			<stop  offset="1" style="stop-color:#003B75"/>
		</linearGradient>
		<path class="st24" d="M297.7,129.6c0,1.2-0.3,2.2-0.8,3.1s-1.3,1.7-2.1,2.3c-0.9,0.6-1.9,1.1-2.9,1.4c-1.1,0.3-2.2,0.5-3.2,0.5
			c-1.8,0-3.5-0.3-5-1s-2.8-1.7-4-3.2l3.6-3.6c0.7,0.9,1.5,1.6,2.4,2.1s1.9,0.8,3,0.8c0.9,0,1.7-0.2,2.3-0.5
			c0.6-0.3,0.9-0.8,0.9-1.5s-0.4-1.3-1.3-1.8s-2.1-0.9-3.7-1.4c-0.9-0.3-1.8-0.6-2.7-1c-0.9-0.4-1.6-0.9-2.3-1.6
			c-0.7-0.6-1.2-1.3-1.6-2.1c-0.4-0.8-0.6-1.7-0.6-2.7c0-1.1,0.3-2.2,0.8-3.1s1.2-1.7,2.1-2.3s1.8-1.1,2.9-1.4s2.2-0.5,3.3-0.5
			c3.6,0,6.5,1.4,8.8,4.1l-3.5,3.6c-0.7-0.8-1.5-1.5-2.3-2c-0.9-0.5-1.8-0.7-2.9-0.7c-0.4,0-0.7,0-1.1,0.1s-0.8,0.2-1.1,0.4
			c-0.3,0.2-0.6,0.4-0.8,0.7c-0.2,0.3-0.3,0.6-0.3,1c0,0.6,0.4,1.2,1.2,1.6c0.8,0.5,2,0.9,3.6,1.4c1,0.3,2,0.7,2.9,1.1
			c0.9,0.5,1.7,1,2.4,1.6c0.7,0.6,1.2,1.3,1.6,2.1C297.5,127.7,297.7,128.6,297.7,129.6z"/>
		
			<linearGradient id="SVGID_18_" gradientUnits="userSpaceOnUse" x1="306.9653" y1="557.73" x2="306.9653" y2="588.8666" gradientTransform="matrix(1 0 0 1 0 -452)">
			<stop  offset="0" style="stop-color:#0071C9"/>
			<stop  offset="1" style="stop-color:#003B75"/>
		</linearGradient>
		<path class="st25" d="M314.5,135.7c-0.6,0.4-1.3,0.7-2.1,0.9c-0.8,0.2-1.6,0.3-2.4,0.3c-1.4,0-2.6-0.2-3.5-0.5
			c-1-0.3-1.7-0.9-2.3-1.6c-0.6-0.7-1-1.6-1.2-2.7c-0.3-1.1-0.4-2.4-0.4-3.8V118h-3.1v-2.7c1.9-0.8,3.4-2,4.6-3.5
			c1.2-1.6,2-3.6,2.4-6h1.9v6.9h6v5.3h-6v10.7c0,0.6,0.1,1.1,0.2,1.5s0.3,0.7,0.6,0.9c0.2,0.2,0.5,0.4,0.8,0.4
			c0.3,0.1,0.6,0.1,1,0.1c0.5,0,1-0.1,1.7-0.2c0.7-0.2,1.2-0.4,1.7-0.8L314.5,135.7L314.5,135.7z"/>
		
			<linearGradient id="SVGID_19_" gradientUnits="userSpaceOnUse" x1="329.5653" y1="564.0554" x2="329.5653" y2="588.8553" gradientTransform="matrix(1 0 0 1 0 -452)">
			<stop  offset="0" style="stop-color:#0071C9"/>
			<stop  offset="1" style="stop-color:#003B75"/>
		</linearGradient>
		<path class="st26" d="M342.3,124.4c0,0.4,0,0.8-0.1,1.2s-0.1,0.8-0.1,1.3h-18.9c0.2,0.7,0.5,1.3,0.9,1.9s0.9,1.1,1.4,1.6
			c0.6,0.4,1.2,0.8,1.9,1.1c0.7,0.3,1.5,0.4,2.4,0.4c1.1,0,2.1-0.2,3.2-0.6s1.9-0.9,2.7-1.5l3.7,3.7c-1.6,1.2-3.2,2.1-4.8,2.6
			c-1.6,0.5-3.2,0.8-5,0.8s-3.4-0.3-5-1c-1.5-0.7-2.9-1.5-4-2.7c-1.1-1.1-2-2.4-2.7-3.9s-1-3.1-1-4.8c0-1.7,0.3-3.3,1-4.8
			s1.6-2.8,2.7-3.9s2.5-2,4-2.7s3.2-1,4.9-1c1.7,0,3.3,0.3,4.8,0.9s2.9,1.5,4,2.6c1.2,1.1,2.1,2.4,2.8,3.9
			C342,120.9,342.3,122.5,342.3,124.4z M336.2,122.1c-0.5-1.5-1.3-2.7-2.5-3.6s-2.5-1.4-4-1.4s-2.8,0.5-4,1.4s-2,2.1-2.4,3.6H336.2z
			"/>
		
			<linearGradient id="SVGID_20_" gradientUnits="userSpaceOnUse" x1="356.5153" y1="554.3839" x2="356.5153" y2="588.8257" gradientTransform="matrix(1 0 0 1 0 -452)">
			<stop  offset="0" style="stop-color:#0071C9"/>
			<stop  offset="1" style="stop-color:#003B75"/>
		</linearGradient>
		<path class="st27" d="M367.9,136.2h-6V135c-0.8,0.6-1.6,1.1-2.5,1.4s-1.9,0.4-2.9,0.4c-1.7,0-3.2-0.3-4.6-1s-2.6-1.6-3.6-2.7
			s-1.8-2.4-2.3-3.9c-0.6-1.5-0.8-3.1-0.8-4.7c0-1.8,0.3-3.4,1-4.9c0.6-1.5,1.5-2.8,2.6-3.9s2.3-2,3.6-2.6c1.4-0.6,2.8-1,4.2-1
			c1,0,2,0.1,2.9,0.4c1,0.3,1.8,0.7,2.4,1.1v-11.2h6L367.9,136.2L367.9,136.2z M362,129.9v-11.3c-0.3-0.2-0.6-0.4-0.9-0.6
			c-0.4-0.2-0.7-0.3-1.1-0.4s-0.8-0.2-1.1-0.3c-0.4-0.1-0.7-0.1-1-0.1c-1,0-1.9,0.2-2.7,0.5c-0.8,0.3-1.5,0.8-2.1,1.5
			c-0.6,0.6-1.1,1.4-1.4,2.3s-0.5,1.9-0.5,3s0.2,2,0.5,2.9s0.8,1.6,1.4,2.3c0.6,0.6,1.3,1.1,2.1,1.5c0.8,0.4,1.7,0.5,2.6,0.5
			C359.2,131.6,360.6,131,362,129.9z"/>
	</g>
	<g class="st2">
		
			<linearGradient id="SVGID_21_" gradientUnits="userSpaceOnUse" x1="396.8153" y1="555.6082" x2="396.8153" y2="588.2545" gradientTransform="matrix(1 0 0 1 0 -452)">
			<stop  offset="0" style="stop-color:#5BA1C2"/>
			<stop  offset="1" style="stop-color:#104777"/>
		</linearGradient>
		<path class="st28" d="M409.1,136.2h-7l-2.3-7.4c-0.2-0.8-0.5-1.6-0.9-2.2c-0.4-0.7-0.8-1.3-1.3-1.8s-1.1-0.9-1.9-1.1
			c-0.7-0.3-1.6-0.4-2.5-0.4h-2.4v13h-6.2v-32.6h12.9c1.4,0,2.7,0.2,3.9,0.7c1.2,0.5,2.2,1.1,3.1,2c0.9,0.8,1.5,1.8,2,3
			c0.5,1.1,0.7,2.4,0.7,3.7c0,1-0.1,1.9-0.4,2.8s-0.7,1.7-1.3,2.5c-0.5,0.8-1.2,1.4-1.9,2c-0.7,0.6-1.6,1-2.5,1.3
			c1,0.4,1.9,0.9,2.5,1.7c0.6,0.7,1.2,1.6,1.5,2.6c0.2,0.5,0.4,0.9,0.5,1.4c0.2,0.5,0.3,0.9,0.5,1.4s0.4,1,0.6,1.6s0.4,1.2,0.7,1.9
			c0.3,0.9,0.6,1.7,0.8,2.3C408.6,135.1,408.8,135.7,409.1,136.2z M400.9,113.4c0-0.8-0.1-1.5-0.4-2.1s-0.7-1.2-1.2-1.6
			c-0.5-0.5-1.1-0.8-1.7-1.1c-0.7-0.3-1.4-0.4-2.1-0.4h-4.6v10.2h4.6c0.8,0,1.5-0.1,2.1-0.3c0.7-0.2,1.2-0.6,1.7-1s0.9-1,1.2-1.6
			C400.8,114.8,400.9,114.1,400.9,113.4z"/>
		
			<linearGradient id="SVGID_22_" gradientUnits="userSpaceOnUse" x1="423.8653" y1="564.0554" x2="423.8653" y2="588.8553" gradientTransform="matrix(1 0 0 1 0 -452)">
			<stop  offset="0" style="stop-color:#5BA1C2"/>
			<stop  offset="1" style="stop-color:#104777"/>
		</linearGradient>
		<path class="st29" d="M436.6,124.4c0,0.4,0,0.8-0.1,1.2s-0.1,0.8-0.1,1.3h-18.9c0.2,0.7,0.5,1.3,0.9,1.9s0.9,1.1,1.4,1.6
			c0.6,0.4,1.2,0.8,1.9,1.1c0.7,0.3,1.5,0.4,2.4,0.4c1.1,0,2.1-0.2,3.2-0.6s1.9-0.9,2.7-1.5l3.7,3.7c-1.6,1.2-3.2,2.1-4.8,2.6
			c-1.6,0.5-3.2,0.8-5,0.8s-3.4-0.3-5-1c-1.5-0.7-2.9-1.5-4-2.7c-1.1-1.1-2-2.4-2.7-3.9s-1-3.1-1-4.8c0-1.7,0.3-3.3,1-4.8
			s1.6-2.8,2.7-3.9s2.5-2,4-2.7s3.2-1,4.9-1c1.7,0,3.3,0.3,4.8,0.9s2.9,1.5,4,2.6c1.2,1.1,2.1,2.4,2.8,3.9
			C436.3,120.9,436.6,122.5,436.6,124.4z M430.4,122.1c-0.5-1.5-1.3-2.7-2.5-3.6s-2.5-1.4-4-1.4s-2.8,0.5-4,1.4s-2,2.1-2.4,3.6
			H430.4z"/>
		
			<linearGradient id="SVGID_23_" gradientUnits="userSpaceOnUse" x1="450.1653" y1="564.6674" x2="450.1653" y2="588.2952" gradientTransform="matrix(1 0 0 1 0 -452)">
			<stop  offset="0" style="stop-color:#5BA1C2"/>
			<stop  offset="1" style="stop-color:#104777"/>
		</linearGradient>
		<path class="st30" d="M462,112.6l-8.9,23.6h-5.8l-8.9-23.6h6.4l5.3,15.8l5.3-15.8H462z"/>
		
			<linearGradient id="SVGID_24_" gradientUnits="userSpaceOnUse" x1="467.7153" y1="554.4225" x2="467.7153" y2="588.2225" gradientTransform="matrix(1 0 0 1 0 -452)">
			<stop  offset="0" style="stop-color:#5BA1C2"/>
			<stop  offset="1" style="stop-color:#104777"/>
		</linearGradient>
		<path class="st31" d="M470.8,108.5h-6.1v-6.1h6.1V108.5z M470.7,136.2h-6v-23.6h6V136.2z"/>
		
			<linearGradient id="SVGID_25_" gradientUnits="userSpaceOnUse" x1="487.6654" y1="564.0554" x2="487.6654" y2="588.8553" gradientTransform="matrix(1 0 0 1 0 -452)">
			<stop  offset="0" style="stop-color:#5BA1C2"/>
			<stop  offset="1" style="stop-color:#104777"/>
		</linearGradient>
		<path class="st32" d="M500.4,124.4c0,0.4,0,0.8-0.1,1.2c-0.1,0.4-0.1,0.8-0.1,1.3h-18.9c0.2,0.7,0.5,1.3,0.9,1.9s0.9,1.1,1.4,1.6
			c0.6,0.4,1.2,0.8,1.9,1.1c0.7,0.3,1.5,0.4,2.4,0.4c1.1,0,2.1-0.2,3.2-0.6c1.1-0.4,1.9-0.9,2.7-1.5l3.7,3.7
			c-1.6,1.2-3.2,2.1-4.8,2.6s-3.2,0.8-5,0.8s-3.4-0.3-5-1c-1.5-0.7-2.9-1.5-4-2.7c-1.1-1.1-2-2.4-2.7-3.9s-1-3.1-1-4.8
			c0-1.7,0.3-3.3,1-4.8s1.6-2.8,2.7-3.9c1.1-1.1,2.5-2,4-2.7s3.2-1,4.9-1s3.3,0.3,4.8,0.9s2.9,1.5,4,2.6c1.2,1.1,2.1,2.4,2.8,3.9
			C500.1,120.9,500.4,122.5,500.4,124.4z M494.3,122.1c-0.5-1.5-1.3-2.7-2.5-3.6s-2.5-1.4-4-1.4s-2.8,0.5-4,1.4s-2,2.1-2.4,3.6
			H494.3z"/>
		
			<linearGradient id="SVGID_26_" gradientUnits="userSpaceOnUse" x1="519.9153" y1="564.6226" x2="519.9153" y2="588.2911" gradientTransform="matrix(1 0 0 1 0 -452)">
			<stop  offset="0" style="stop-color:#5BA1C2"/>
			<stop  offset="1" style="stop-color:#104777"/>
		</linearGradient>
		<path class="st33" d="M537.7,112.6l-7.9,23.7h-5.1l-4.7-14.1l-4.7,14.1h-5.1l-8-23.7h6.2l4.4,14.8l4.4-14.8h5.2l4.5,14.8l4.4-14.8
			H537.7z"/>
		
			<linearGradient id="SVGID_27_" gradientUnits="userSpaceOnUse" x1="548.6653" y1="564.0554" x2="548.6653" y2="588.9075" gradientTransform="matrix(1 0 0 1 0 -452)">
			<stop  offset="0" style="stop-color:#5BA1C2"/>
			<stop  offset="1" style="stop-color:#104777"/>
		</linearGradient>
		<path class="st34" d="M557.7,129.6c0,1.2-0.3,2.2-0.8,3.1s-1.3,1.7-2.1,2.3s-1.9,1.1-2.9,1.4c-1.1,0.3-2.2,0.5-3.2,0.5
			c-1.8,0-3.5-0.3-5-1s-2.8-1.7-4-3.2l3.6-3.6c0.7,0.9,1.5,1.6,2.4,2.1s1.9,0.8,3,0.8c0.9,0,1.7-0.2,2.3-0.5s0.9-0.8,0.9-1.5
			s-0.4-1.3-1.3-1.8c-0.9-0.5-2.1-0.9-3.7-1.4c-0.9-0.3-1.8-0.6-2.7-1s-1.6-0.9-2.3-1.6c-0.7-0.6-1.2-1.3-1.6-2.1
			c-0.4-0.8-0.6-1.7-0.6-2.7c0-1.1,0.3-2.2,0.8-3.1s1.2-1.7,2.1-2.3s1.8-1.1,2.9-1.4c1.1-0.3,2.2-0.5,3.3-0.5c3.6,0,6.5,1.4,8.8,4.1
			l-3.5,3.6c-0.7-0.8-1.5-1.5-2.3-2c-0.9-0.5-1.8-0.7-2.9-0.7c-0.4,0-0.7,0-1.1,0.1c-0.4,0.1-0.8,0.2-1.1,0.4
			c-0.3,0.2-0.6,0.4-0.8,0.7c-0.2,0.3-0.3,0.6-0.3,1c0,0.6,0.4,1.2,1.2,1.6c0.8,0.5,2,0.9,3.6,1.4c1,0.3,2,0.7,2.9,1.1
			c0.9,0.5,1.7,1,2.4,1.6s1.2,1.3,1.6,2.1C557.5,127.7,557.7,128.6,557.7,129.6z"/>
	</g>
	<g class="st2">
		<path d="M214.2,84.5c-0.1-0.1-0.1-0.2-0.1-0.3v-2c0-0.2,0-0.3,0.1-0.4s0.2-0.1,0.4-0.1h1.8c0.9,0,1.7-0.2,2.5-0.7
			c0.8-0.4,1.4-1,1.8-1.8c0.4-0.8,0.7-1.6,0.7-2.5s-0.2-1.7-0.7-2.5c-0.4-0.8-1-1.4-1.8-1.8s-1.6-0.7-2.5-0.7h-1.8
			c-0.1,0-0.1,0-0.2,0.1c-0.1,0.1-0.1,0.1-0.1,0.2v1.4c0,0.1,0,0.2-0.1,0.3c-0.1,0.1-0.2,0.1-0.4,0.1h-2c-0.1,0-0.2,0-0.3-0.1
			s-0.1-0.2-0.1-0.3v-4.1c0-0.1,0-0.3,0.1-0.4s0.2-0.1,0.3-0.1h4.6c1.4,0,2.8,0.4,4,1.1s2.2,1.7,2.9,2.9c0.7,1.2,1.1,2.5,1.1,4
			c0,1.4-0.4,2.8-1.1,4c-0.7,1.2-1.7,2.2-2.9,2.9c-1.2,0.7-2.5,1.1-4,1.1h-1.8C214.4,84.6,214.3,84.6,214.2,84.5z"/>
		<path d="M227.6,84.5c-0.1-0.1-0.1-0.2-0.1-0.3v-15c0-0.1,0-0.2,0.1-0.3s0.2-0.1,0.3-0.1h10.2c0.1,0,0.2,0,0.3,0.1s0.1,0.2,0.1,0.3
			v1.9c0,0.1,0,0.2-0.1,0.3s-0.2,0.1-0.3,0.1h-7.3c-0.1,0-0.2,0-0.3,0.1s-0.1,0.2-0.1,0.3v3.3v0.2c0,0.1,0,0.2,0.1,0.3
			c0.1,0.1,0.2,0.1,0.4,0.1h5.7c0.1,0,0.2,0,0.3,0.1s0.1,0.2,0.1,0.3v1.9c0,0.1,0,0.2-0.1,0.3s-0.2,0.1-0.3,0.1h-5.7
			c-0.2,0-0.3,0.1-0.4,0.2s-0.1,0.2-0.1,0.4v2.4c0,0.2,0,0.3,0.1,0.4s0.3,0.2,0.5,0.2h7.3c0.1,0,0.2,0,0.3,0.1
			c0.1,0.1,0.1,0.2,0.1,0.3v1.9c0,0.1,0,0.2-0.1,0.3s-0.2,0.1-0.3,0.1H228C227.8,84.6,227.7,84.5,227.6,84.5z"/>
		<path d="M242.2,84.5c-0.1-0.1-0.1-0.1-0.1-0.2V69.1c0-0.1,0-0.2,0.1-0.2c0.1-0.1,0.1-0.1,0.2-0.1h2.3c0.1,0,0.2,0.1,0.2,0.2
			l5.4,9.1c0.2,0.3,0.3,0.5,0.4,0.5s0.2-0.2,0.2-0.5v-8.9c0-0.1,0-0.2,0.1-0.2c0.1-0.1,0.1-0.1,0.2-0.1h2.4c0.1,0,0.2,0,0.2,0.1
			c0.1,0.1,0.1,0.1,0.1,0.2v15.2c0,0.1,0,0.2-0.1,0.2c-0.1,0.1-0.1,0.1-0.2,0.1H252c-0.3,0-0.5,0-0.6-0.1c-0.1,0-0.2-0.2-0.3-0.4
			l-5.7-9.1c-0.1-0.1-0.2-0.2-0.2-0.2c-0.1,0-0.2,0.1-0.2,0.3v9.1c0,0.1,0,0.2-0.1,0.2c-0.1,0.1-0.1,0.1-0.2,0.1h-2.3
			C242.3,84.6,242.3,84.6,242.2,84.5z"/>
		<path d="M262.2,84.6c-0.1-0.1-0.1-0.1-0.1-0.2V72.1c0-0.1-0.1-0.3-0.2-0.4s-0.2-0.2-0.4-0.2h-3.8c-0.1,0-0.1,0-0.2-0.1
			s-0.1-0.1-0.1-0.2V69c0-0.1,0-0.1,0.1-0.2c0.1,0,0.1-0.1,0.2-0.1h12c0.1,0,0.2,0,0.2,0.1s0.1,0.1,0.1,0.2v2.1c0,0.1,0,0.1-0.1,0.2
			s-0.1,0.1-0.2,0.1h-3.8c-0.2,0-0.3,0.1-0.4,0.2s-0.2,0.2-0.2,0.4v12.4c0,0.1,0,0.1-0.1,0.2s-0.1,0.1-0.2,0.1L262.2,84.6
			C262.3,84.7,262.2,84.6,262.2,84.6z"/>
		<path d="M270.8,84.6c0-0.1-0.1-0.1,0-0.2l4-15.3c0-0.1,0.1-0.2,0.2-0.2c0.1-0.1,0.2-0.1,0.3-0.1h4.7c0.1,0,0.2,0,0.3,0.1
			c0.1,0.1,0.2,0.1,0.2,0.2l4,15.3v0.1c0,0.2-0.1,0.2-0.2,0.2h-2.2c-0.1,0-0.2,0-0.3-0.1c-0.1-0.1-0.2-0.1-0.2-0.2l-1.1-4.2
			c0-0.1-0.1-0.2-0.2-0.3s-0.2-0.1-0.4-0.1h-4.4c-0.1,0-0.3,0-0.4,0.1s-0.2,0.2-0.2,0.3l-1.1,4.2c0,0.1-0.1,0.2-0.2,0.3
			c-0.1,0.1-0.2,0.1-0.3,0.1h-2.2C270.9,84.7,270.8,84.6,270.8,84.6z M279,77.2c0.2,0,0.3-0.1,0.4-0.2s0.1-0.2,0.1-0.4l-1.3-4.7
			c0-0.1-0.1-0.2-0.2-0.3s-0.2-0.1-0.4-0.1h-0.1c-0.1,0-0.3,0-0.4,0.1s-0.2,0.2-0.2,0.3l-1.2,4.7v0.1c0,0.1,0,0.2,0.1,0.3
			s0.2,0.1,0.3,0.1h2.9L279,77.2L279,77.2z"/>
		<path d="M290.1,83.8c-1.2-0.7-2.2-1.7-2.9-3c-0.7-1.2-1.1-2.6-1.1-4.1s0.4-2.8,1.1-4.1c0.7-1.2,1.7-2.2,2.9-3
			c1.2-0.7,2.6-1.1,4-1.1c1.1,0,2.2,0.2,3.2,0.7s1.9,1.1,2.7,2c0.1,0.1,0.1,0.2,0.1,0.3s-0.1,0.2-0.2,0.3c-0.3,0.3-0.6,0.5-1,0.8
			c-0.3,0.3-0.5,0.5-0.7,0.6c-0.1,0.1-0.2,0.1-0.3,0.1c-0.1,0-0.2,0-0.3-0.1c-0.5-0.5-1-0.9-1.7-1.2c-0.6-0.3-1.3-0.4-2-0.4
			c-0.9,0-1.8,0.2-2.5,0.7s-1.4,1.1-1.8,1.9c-0.5,0.8-0.7,1.6-0.7,2.6c0,0.9,0.2,1.8,0.7,2.6c0.5,0.8,1.1,1.4,1.8,1.9
			s1.6,0.7,2.5,0.7c0.7,0,1.3-0.1,1.9-0.4s1.1-0.6,1.6-1.1c0.2-0.1,0.3-0.2,0.5-0.2s0.3,0,0.4,0.1c0.2,0.1,0.4,0.3,0.6,0.5
			c0.3,0.2,0.5,0.4,0.7,0.6c0.2,0.1,0.2,0.3,0.2,0.5c0,0.1,0,0.2-0.1,0.3c-0.8,0.8-1.6,1.4-2.6,1.9c-1,0.4-2.1,0.7-3.2,0.7
			C292.7,84.9,291.4,84.5,290.1,83.8z"/>
		<path d="M304.5,82.2c-0.7-0.8-1.3-1.8-1.6-2.8v-0.1c-0.3-0.8-0.4-1.7-0.4-2.5c0-0.9,0.2-1.9,0.5-2.8s0.8-1.7,1.4-2.5
			c0.8-0.9,1.7-1.6,2.5-2.1c0.9-0.5,1.9-0.8,3.2-0.8h0.1c1.3-0.1,2.5,0.2,3.7,0.7c0.8,0.3,1.5,0.8,2.2,1.5c0.7,0.6,1.2,1.3,1.5,1.9
			c0.7,1.2,1.1,2.6,1.1,4c0,0.8-0.1,1.7-0.4,2.5s-0.6,1.6-1.1,2.3c-0.4,0.5-0.8,1-1.2,1.4c-0.4,0.4-1,0.8-1.6,1.1
			c-1.2,0.6-2.4,0.9-3.8,0.9c-1.2,0-2.2-0.2-3.3-0.7C306.2,83.7,305.3,83,304.5,82.2z M314.4,80.2c0.4-0.5,0.7-0.9,0.9-1.3
			c0.3-0.7,0.5-1.4,0.5-2.1c0-1-0.3-1.9-0.8-2.8s-1.3-1.5-2.2-1.9c-0.7-0.3-1.4-0.5-2.2-0.5c-0.7,0-1.3,0.1-1.9,0.4
			c-0.6,0.2-1.2,0.6-1.6,1.1l-0.4,0.4c-0.4,0.5-0.7,1-0.9,1.6c-0.2,0.6-0.3,1.2-0.3,1.8c0,0.8,0.2,1.5,0.5,2.2s0.8,1.3,1.4,1.8
			c1,0.8,2.1,1.2,3.4,1.2c0.8,0,1.6-0.2,2.3-0.5C313.5,81,314,80.6,314.4,80.2z"/>
		<path d="M322.5,84.5c-0.1-0.1-0.1-0.2-0.1-0.3v-15c0-0.1,0-0.2,0.1-0.3s0.2-0.1,0.3-0.1h2.4c0.1,0,0.2,0,0.3,0.1s0.1,0.2,0.1,0.3
			v15.1c0,0.1,0,0.2-0.1,0.3s-0.2,0.1-0.3,0.1h-2.4C322.7,84.7,322.6,84.6,322.5,84.5z"/>
		<path d="M330.3,84.5c-0.1-0.1-0.1-0.1-0.1-0.2V69.1c0-0.1,0-0.2,0.1-0.2s0.1-0.1,0.2-0.1h2.3c0.1,0,0.2,0.1,0.3,0.2l5.4,9.1
			c0.2,0.3,0.3,0.5,0.4,0.5s0.2-0.2,0.2-0.5v-8.9c0-0.1,0-0.2,0.1-0.2c0.1-0.1,0.1-0.1,0.2-0.1h2.4c0.1,0,0.2,0,0.2,0.1
			c0.1,0.1,0.1,0.1,0.1,0.2v15.2c0,0.1,0,0.2-0.1,0.2c-0.1,0.1-0.1,0.1-0.2,0.1h-1.6c-0.3,0-0.5,0-0.6-0.1c-0.1,0-0.2-0.2-0.3-0.4
			l-5.7-9.1c-0.1-0.1-0.2-0.2-0.2-0.2c-0.1,0-0.2,0.1-0.2,0.3v9.1c0,0.1,0,0.2-0.1,0.2c-0.1,0.1-0.1,0.1-0.2,0.1h-2.3
			C330.4,84.6,330.4,84.6,330.3,84.5z"/>
	</g>
	
		<linearGradient id="SVGID_28_" gradientUnits="userSpaceOnUse" x1="347.1653" y1="527.4225" x2="557.2653" y2="527.4225" gradientTransform="matrix(1 0 0 1 0 -452)">
		<stop  offset="0" style="stop-color:#000000"/>
		<stop  offset="1" style="stop-color:#FFFFFF"/>
	</linearGradient>
	<rect x="347.2" y="74.3" class="st35" width="210.1" height="2.2"/>
</g>
</svg>
