<?xml version="1.0" encoding="utf-8"?>
<!-- Generator: Adobe Illustrator 24.2.0, SVG Export Plug-In . SVG Version: 6.00 Build 0)  -->
<!DOCTYPE svg PUBLIC "-//W3C//DTD SVG 1.1//EN" "http://www.w3.org/Graphics/SVG/1.1/DTD/svg11.dtd" [
	<!ENTITY ns_extend "http://ns.adobe.com/Extensibility/1.0/">
	<!ENTITY ns_ai "http://ns.adobe.com/AdobeIllustrator/10.0/">
	<!ENTITY ns_graphs "http://ns.adobe.com/Graphs/1.0/">
	<!ENTITY ns_vars "http://ns.adobe.com/Variables/1.0/">
	<!ENTITY ns_imrep "http://ns.adobe.com/ImageReplacement/1.0/">
	<!ENTITY ns_sfw "http://ns.adobe.com/SaveForWeb/1.0/">
	<!ENTITY ns_custom "http://ns.adobe.com/GenericCustomNamespace/1.0/">
	<!ENTITY ns_adobe_xpath "http://ns.adobe.com/XPath/1.0/">
]>
<svg version="1.1" id="Layer_1" xmlns:x="&ns_extend;" xmlns:i="&ns_ai;" xmlns:graph="&ns_graphs;"
	 xmlns="http://www.w3.org/2000/svg" xmlns:xlink="http://www.w3.org/1999/xlink" x="0px" y="0px" viewBox="0 0 140.1 140.1"
	 style="enable-background:new 0 0 140.1 140.1;" xml:space="preserve">
<style type="text/css">
	.st0{fill:#00316F;}
	.st1{fill:#FFFFFF;}
</style>
<metadata>
	<sfw  xmlns="&ns_sfw;">
		<slices></slices>
		<sliceSourceBounds  bottomLeftOrigin="true" height="140.1" width="140.1" x="-149" y="-21.3"></sliceSourceBounds>
	</sfw>
</metadata>
<circle class="st0" cx="70" cy="70" r="70"/>
<g>
	<path class="st1" d="M51.4,61.8h0.2c0.2,0,0.5-0.1,0.6-0.3c0.7,1.5,1.5,3,2.5,4.3l0.1,0.1c0.3,0.5,0.7,1.1,1.2,1.7l0.3,0.4l0.1,0.1
		l0.3,0.3l0.1,0.1c2.1,2.6,4.7,4.7,7.7,6.2c4.7,2.2,9.3,1.9,14.4-1.7c1.4-1,2.6-2.2,3.6-3.5h1.3c3.4,0,6.2-2.8,6.2-6.2v-1.9
		c2.2-0.8,3.6-2.9,3.6-5.2v-5.5c0-2-1.1-3.9-2.9-4.9C90,35.1,81.3,26.5,70.5,26c-0.1,0-0.2-0.1-0.2-0.1l0,0c-5-0.1-9.9,1.5-13.9,4.7
		c-4.6,3.8-7.4,9.4-7.6,15.3c-1.8,1-2.9,2.8-2.9,4.9v5.5C45.8,59.3,48.3,61.8,51.4,61.8z M87.8,61.8v1.7c0,2-1.6,3.7-3.6,3.7
		c0.6-0.9,1.2-1.7,1.7-2.7c0.6-1,1-1.9,1.4-2.9C87.5,61.8,87.7,61.8,87.8,61.8L87.8,61.8z M53.9,50.8c0-0.2,0.2-0.4,0.4-0.5
		c4.4-0.7,7.6-3.5,9.4-8.3c0.1-0.3,0.4-0.4,0.7-0.3c0.1,0,0.1,0.1,0.2,0.1c4.6,6.3,9.5,9,21.4,8.5c0.3,0,0.5,0.2,0.5,0.4
		c0.4,4.8-0.6,9.6-3,13.9c-0.5,0.9-1,1.7-1.5,2.5h-7.3v-1.7c0-1.1-0.9-2-2-2h-2.5c-1.1,0-2,0.9-2,2v2.9c0,0.6,0.5,1.1,1.2,1.2h10.7
		c-1.9,2-4.3,3.5-6.9,4.4c-1.2,0.4-2.4,0.5-3.6,0.4c-4.2-0.6-7.9-2.8-10.5-6.1C55.6,64,53.5,57.9,53.9,50.8z"/>
	<path class="st1" d="M75.2,99.4l0.7-1.9c0.1-0.4,0.1-0.8-0.1-1.1l-3.4-5.8c-0.2-0.3-0.1-0.7,0.2-0.9c6.2-5.3,3.6-9.8-2.8-10.2h-0.1
		c-6.4,0.5-9,4.9-2.8,10.2c0.3,0.2,0.3,0.6,0.2,0.9l-3,5.4c-0.2,0.3-0.2,0.7-0.1,1.1l0.9,2.3c0,0.1,0.1,0.1,0.1,0.2
		c1.2,3.5,2.5,6.8,3.3,9.3c0,0.1,0,0.2,0,0.3h3.5c0-0.1,0-0.2,0-0.3c0.9-2.5,2.1-5.8,3.4-9.3C75.2,99.5,75.2,99.5,75.2,99.4z"/>
	<path class="st1" d="M61.4,98.8c-0.1-0.1-0.1-0.1-0.1-0.2l-6.2-16.3c-0.1-0.3-0.5-0.5-0.9-0.4c-6.5,1.8-12.3,3.9-16.4,6.4
		s-5.6,11.2-4.8,16.6v0.1c0.8,2.4,2,3.9,3.7,4.2h0.2h27.7c0.2,0,0.4-0.1,0.4-0.3c0,0,0-0.1,0-0.1C64,106.2,62.7,102.6,61.4,98.8z"/>
	<path class="st1" d="M102.3,88.2c-4.1-2.5-9.9-4.5-16.4-6.4c-0.4-0.1-0.7,0.1-0.9,0.4l-6.2,16.3c0,0.1-0.1,0.1-0.1,0.2
		c-1.4,3.8-2.7,7.4-3.6,9.9c-0.1,0.2,0.1,0.4,0.2,0.4c0,0,0.1,0,0.1,0h27.6h0.2c1.7-0.3,2.9-1.9,3.7-4.2v-0.1
		C107.9,99.4,106.4,90.6,102.3,88.2z"/>
</g>
</svg>
