<?xml version="1.0" encoding="utf-8"?>
<!-- Generator: Adobe Illustrator 24.2.0, SVG Export Plug-In . SVG Version: 6.00 Build 0)  -->
<!DOCTYPE svg PUBLIC "-//W3C//DTD SVG 1.1//EN" "http://www.w3.org/Graphics/SVG/1.1/DTD/svg11.dtd" [
	<!ENTITY ns_extend "http://ns.adobe.com/Extensibility/1.0/">
	<!ENTITY ns_ai "http://ns.adobe.com/AdobeIllustrator/10.0/">
	<!ENTITY ns_graphs "http://ns.adobe.com/Graphs/1.0/">
	<!ENTITY ns_vars "http://ns.adobe.com/Variables/1.0/">
	<!ENTITY ns_imrep "http://ns.adobe.com/ImageReplacement/1.0/">
	<!ENTITY ns_sfw "http://ns.adobe.com/SaveForWeb/1.0/">
	<!ENTITY ns_custom "http://ns.adobe.com/GenericCustomNamespace/1.0/">
	<!ENTITY ns_adobe_xpath "http://ns.adobe.com/XPath/1.0/">
]>
<svg version="1.1" id="Layer_1" xmlns:x="&ns_extend;" xmlns:i="&ns_ai;" xmlns:graph="&ns_graphs;"
	 xmlns="http://www.w3.org/2000/svg" xmlns:xlink="http://www.w3.org/1999/xlink" x="0px" y="0px" viewBox="0 0 140.1 140.1"
	 style="enable-background:new 0 0 140.1 140.1;" xml:space="preserve">
<style type="text/css">
	.st0{fill:#00316F;}
	.st1{fill:#FFFFFF;}
</style>
<metadata>
	<sfw  xmlns="&ns_sfw;">
		<slices></slices>
		<sliceSourceBounds  bottomLeftOrigin="true" height="140.1" width="140.1" x="-149" y="-21.3"></sliceSourceBounds>
	</sfw>
</metadata>
<circle class="st0" cx="70" cy="70" r="70"/>
<g>
	<g>
		<g>
			<g>
				<g>
					<path class="st1" d="M58.9,73l6.3-0.5c3.7-0.3,7.1-2.4,9-5.6c1.4-2.4,3-4.3,3.9-5c0,0,9.7-6.7,12.2-11.5
						c0.3-0.6,1.1-0.9,1.7-0.6c0.8,0.4,1.6,1.3,1.4,3.4c-0.2,2.1-1.2,4.1-2.7,5.6c-2.2,2.2-5.7,5.8-5.9,6.9c0,0,8.7-0.4,11.1,0.2
						c5,1.1,6,2.2,4.5,6.1c-0.2,0.5,0,1.1,0.4,1.4c1.7,1.7,0.1,6.4-2.1,6.5c-0.2,0-0.4,0.2-0.3,0.4c0.7,1.2,2,4.4-2,5.9
						c0,0-0.1,0.2,0,0.3c0.3,1,1,4.5-5.3,4.9c0,0-0.2,0.8-2.3,0.8c0,0-11.6-1.2-15.5-1.9c-3.8-0.7-7.2-0.1-10.1,0.3
						c-0.7,0.1-2.2,0.4-4,0.8c-0.5,0.1-1-0.3-1-0.8V73.8C58.2,73.4,58.5,73.1,58.9,73z"/>
				</g>
				<g>
					<path class="st1" d="M41.2,70.5V93c0,1.4,1.1,2.5,2.5,2.5h10.2c1.4,0,2.5-1.1,2.5-2.5V70.5c0-1.4-1.1-2.5-2.5-2.5H43.7
						C42.3,68,41.2,69.2,41.2,70.5z M46.9,91.6c0-1,0.8-1.9,1.9-1.9c1,0,1.9,0.8,1.9,1.9c0,1-0.8,1.9-1.9,1.9
						C47.7,93.5,46.8,92.6,46.9,91.6z"/>
				</g>
			</g>
			<g>
				<g>
					<path class="st1" d="M71.4,32.6l-2.3,4.7c-0.1,0.1-0.2,0.2-0.4,0.3l-5.2,0.8c-0.4,0.1-0.5,0.5-0.3,0.8l3.7,3.7
						c0.1,0.1,0.2,0.3,0.1,0.4l-0.9,5.2c-0.1,0.4,0.3,0.7,0.7,0.5l4.6-2.4c0.1-0.1,0.3-0.1,0.4,0l4.6,2.4c0.3,0.2,0.8-0.1,0.7-0.5
						l-0.9-5.2c0-0.2,0-0.3,0.1-0.4l3.7-3.7c0.3-0.3,0.1-0.8-0.3-0.8l-5.2-0.8c-0.2,0-0.3-0.1-0.4-0.3l-2.3-4.7
						C72,32.2,71.5,32.2,71.4,32.6z"/>
				</g>
				<g>
					<path class="st1" d="M87.7,36.5l-1.6,3.3c0,0.1-0.1,0.2-0.2,0.2l-3.6,0.5c-0.3,0-0.4,0.4-0.2,0.6l2.6,2.5
						c0.1,0.1,0.1,0.2,0.1,0.3l-0.6,3.6c0,0.3,0.2,0.5,0.5,0.3l3.2-1.7c0.1-0.1,0.2-0.1,0.3,0l3.2,1.7c0.2,0.1,0.5-0.1,0.5-0.3
						l-0.6-3.6c0-0.1,0-0.2,0.1-0.3l2.6-2.5c0.2-0.2,0.1-0.6-0.2-0.6L90.2,40c-0.1,0-0.2-0.1-0.2-0.2l-1.6-3.3
						C88.2,36.3,87.9,36.3,87.7,36.5z"/>
				</g>
				<g>
					<path class="st1" d="M54.5,36.5l-1.6,3.3c0,0.1-0.1,0.2-0.2,0.2l-3.6,0.5c-0.3,0-0.4,0.4-0.2,0.6l2.5,2.5
						c0.1,0.1,0.1,0.2,0.1,0.3l-0.6,3.6c0,0.3,0.2,0.5,0.5,0.3l3.2-1.7c0.1-0.1,0.2-0.1,0.3,0l3.2,1.7c0.2,0.1,0.5-0.1,0.5-0.3
						L58,43.9c0-0.1,0-0.2,0.1-0.3l2.6-2.5c0.2-0.2,0.1-0.5-0.2-0.6L56.9,40c-0.1,0-0.2-0.1-0.2-0.2l-1.6-3.3
						C54.9,36.3,54.6,36.3,54.5,36.5z"/>
				</g>
			</g>
		</g>
	</g>
</g>
</svg>
