<?xml version="1.0" encoding="utf-8"?>
<!-- Generator: Adobe Illustrator 24.2.0, SVG Export Plug-In . SVG Version: 6.00 Build 0)  -->
<!DOCTYPE svg PUBLIC "-//W3C//DTD SVG 1.1//EN" "http://www.w3.org/Graphics/SVG/1.1/DTD/svg11.dtd" [
	<!ENTITY ns_extend "http://ns.adobe.com/Extensibility/1.0/">
	<!ENTITY ns_ai "http://ns.adobe.com/AdobeIllustrator/10.0/">
	<!ENTITY ns_graphs "http://ns.adobe.com/Graphs/1.0/">
	<!ENTITY ns_vars "http://ns.adobe.com/Variables/1.0/">
	<!ENTITY ns_imrep "http://ns.adobe.com/ImageReplacement/1.0/">
	<!ENTITY ns_sfw "http://ns.adobe.com/SaveForWeb/1.0/">
	<!ENTITY ns_custom "http://ns.adobe.com/GenericCustomNamespace/1.0/">
	<!ENTITY ns_adobe_xpath "http://ns.adobe.com/XPath/1.0/">
]>
<svg version="1.1" id="Layer_1" xmlns:x="&ns_extend;" xmlns:i="&ns_ai;" xmlns:graph="&ns_graphs;"
	 xmlns="http://www.w3.org/2000/svg" xmlns:xlink="http://www.w3.org/1999/xlink" x="0px" y="0px" viewBox="0 0 140.1 140.1"
	 style="enable-background:new 0 0 140.1 140.1;" xml:space="preserve">
<style type="text/css">
	.st0{fill:#00316F;}
	.st1{fill:#FFFFFF;}
</style>
<metadata>
	<sfw  xmlns="&ns_sfw;">
		<slices></slices>
		<sliceSourceBounds  bottomLeftOrigin="true" height="140.1" width="140.1" x="-149" y="-21.3"></sliceSourceBounds>
	</sfw>
</metadata>
<circle class="st0" cx="70" cy="70" r="70"/>
<g>
	<path class="st1" d="M87.7,99.2H52.5c-2.4,0-4.4,2.1-4.4,4.6c0,0,0,0,0,0v4.8h44.1v-4.8C92.2,101.2,90.2,99.2,87.7,99.2
		C87.7,99.2,87.7,99.2,87.7,99.2z"/>
	<path class="st1" d="M81.2,91H59c-2,0-3.6,1.7-3.6,3.8c0,0,0,0,0,0v2.6h29.5v-2.6C84.8,92.7,83.2,91,81.2,91z"/>
	<ellipse class="st1" cx="67.8" cy="49.9" rx="5.5" ry="5.7"/>
	<path class="st1" d="M91.6,32.7H88v-1.2H52.2v1.2h-3.3c-7.5-0.1-13.7,6.1-13.8,14S41,60.9,48.5,61.1c0.1,0,0.3,0,0.4,0h3.5
		c0.9,6.4,5.4,11.7,11.4,13.4v14.9h12.7V74.4c6-1.7,10.5-6.9,11.4-13.4h3.7c7.5-0.1,13.5-6.6,13.4-14.4
		C104.9,39,98.9,32.8,91.6,32.7L91.6,32.7z M41.1,46.9c0-4.5,3.5-8.1,7.7-8.1h3.3V55h-3.3C44.6,55,41.1,51.3,41.1,46.9
		C41.1,46.9,41.1,46.9,41.1,46.9z M59.5,49.9c0-4.8,3.7-8.6,8.3-8.6s8.3,3.9,8.3,8.6s-3.7,8.6-8.3,8.6l0,0
		C63.2,58.5,59.5,54.7,59.5,49.9z M80.8,63.5c-0.5,0.6-1.4,0.6-1.9,0l-4-4.1c-0.5-0.6-0.5-1.5,0-2c0.5-0.6,1.4-0.6,1.9,0l4,4.1
		C81.3,62,81.3,62.9,80.8,63.5z M91.6,54.9H88V38.8h3.5c4.3,0,7.8,3.6,7.8,8.1S95.9,55,91.6,54.9L91.6,54.9z"/>
</g>
</svg>
