<?xml version="1.0" encoding="utf-8"?>
<!-- Generator: Adobe Illustrator 24.2.0, SVG Export Plug-In . SVG Version: 6.00 Build 0)  -->
<!DOCTYPE svg PUBLIC "-//W3C//DTD SVG 1.1//EN" "http://www.w3.org/Graphics/SVG/1.1/DTD/svg11.dtd" [
	<!ENTITY ns_extend "http://ns.adobe.com/Extensibility/1.0/">
	<!ENTITY ns_ai "http://ns.adobe.com/AdobeIllustrator/10.0/">
	<!ENTITY ns_graphs "http://ns.adobe.com/Graphs/1.0/">
	<!ENTITY ns_vars "http://ns.adobe.com/Variables/1.0/">
	<!ENTITY ns_imrep "http://ns.adobe.com/ImageReplacement/1.0/">
	<!ENTITY ns_sfw "http://ns.adobe.com/SaveForWeb/1.0/">
	<!ENTITY ns_custom "http://ns.adobe.com/GenericCustomNamespace/1.0/">
	<!ENTITY ns_adobe_xpath "http://ns.adobe.com/XPath/1.0/">
]>
<svg version="1.1" id="Layer_1" xmlns:x="&ns_extend;" xmlns:i="&ns_ai;" xmlns:graph="&ns_graphs;"
	 xmlns="http://www.w3.org/2000/svg" xmlns:xlink="http://www.w3.org/1999/xlink" x="0px" y="0px" viewBox="0 0 140.1 140.1"
	 style="enable-background:new 0 0 140.1 140.1;" xml:space="preserve">
<style type="text/css">
	.st0{fill:#00316F;}
	.st1{fill:#FFFFFF;}
</style>
<metadata>
	<sfw  xmlns="&ns_sfw;">
		<slices></slices>
		<sliceSourceBounds  bottomLeftOrigin="true" height="140.1" width="140.1" x="-149" y="-21.3"></sliceSourceBounds>
	</sfw>
</metadata>
<circle class="st0" cx="70" cy="70" r="70"/>
<g>
	<g>
		<path class="st1" d="M101.1,57.1h-7l0,2.9l0,0L94.3,97H46.9V80.3h-6.3v4c0,0.9-0.6,1.4-1.4,1.4c-0.9,0-1.4-0.6-1.4-1.4v-4h-3.8
			c-0.9,0-1.5-0.6-1.5-1.5V60.8c-0.7,1.1-1,2.4-1,3.8v27.8c0,4.2,3.3,7.4,7.4,7.4h62.4c4.1,0,7.4-3.3,7.4-7.4V64.6
			C108.5,60.6,105.2,57.1,101.1,57.1z M100.7,82.2c-1.7,0-3-1.4-3-3c0-1.7,1.4-3,3-3c1.7,0,3,1.4,3,3
			C103.8,80.9,102.4,82.2,100.7,82.2z"/>
	</g>
	<g>
		<path class="st1" d="M35.5,79h34.9l11,9.9c0.4,0.3,1,0.4,1.6,0.3c0.6-0.3,0.9-0.7,0.9-1.3v-8.7h7.2c0.7,0,1.4-0.6,1.4-1.4V35.2
			c0-0.9-0.7-1.4-1.4-1.4H35.5c-0.9,0-1.4,0.6-1.4,1.4v42.4C34.1,78.4,34.7,79,35.5,79z M47.9,53.1c0-0.6,0.4-1,1-1h5
			c0.4,0,0.9,0.3,1,0.7l0.3-0.1c8.2-2.6,7-8.7,7.2-8.9c0-1.6,1.3-2.9,2.9-2.9c3.4,0,4,5.9,3.1,9.2h7.4c2.6,0,3.9,3.3,1.9,5
			c0.7,1.1,0.4,2.7-0.7,3.6c0.7,1.1,0.4,2.7-0.7,3.6c1.1,1.9-0.3,4.3-2.4,4.3H54.9c0,0.6-0.4,1-1,1h-5c-0.6,0-1-0.4-1-1V53.1z"/>
	</g>
</g>
</svg>
