<?xml version="1.0" encoding="utf-8"?>
<!-- Generator: Adobe Illustrator 24.2.0, SVG Export Plug-In . SVG Version: 6.00 Build 0)  -->
<!DOCTYPE svg PUBLIC "-//W3C//DTD SVG 1.1//EN" "http://www.w3.org/Graphics/SVG/1.1/DTD/svg11.dtd" [
	<!ENTITY ns_extend "http://ns.adobe.com/Extensibility/1.0/">
	<!ENTITY ns_ai "http://ns.adobe.com/AdobeIllustrator/10.0/">
	<!ENTITY ns_graphs "http://ns.adobe.com/Graphs/1.0/">
	<!ENTITY ns_vars "http://ns.adobe.com/Variables/1.0/">
	<!ENTITY ns_imrep "http://ns.adobe.com/ImageReplacement/1.0/">
	<!ENTITY ns_sfw "http://ns.adobe.com/SaveForWeb/1.0/">
	<!ENTITY ns_custom "http://ns.adobe.com/GenericCustomNamespace/1.0/">
	<!ENTITY ns_adobe_xpath "http://ns.adobe.com/XPath/1.0/">
]>
<svg version="1.1" id="Layer_1" xmlns:x="&ns_extend;" xmlns:i="&ns_ai;" xmlns:graph="&ns_graphs;"
	 xmlns="http://www.w3.org/2000/svg" xmlns:xlink="http://www.w3.org/1999/xlink" x="0px" y="0px" viewBox="0 0 140.1 140.1"
	 style="enable-background:new 0 0 140.1 140.1;" xml:space="preserve">
<style type="text/css">
	.st0{fill:#00316F;}
	.st1{fill:#FFFFFF;}
</style>
<metadata>
	<sfw  xmlns="&ns_sfw;">
		<slices></slices>
		<sliceSourceBounds  bottomLeftOrigin="true" height="140.1" width="140.1" x="-149" y="-21.3"></sliceSourceBounds>
	</sfw>
</metadata>
<circle class="st0" cx="70" cy="70" r="70"/>
<g>
	<path class="st1" d="M65.7,60.7c-0.1-0.1-0.2-0.1-0.2-0.2c-1-0.7-1.6-1.7-2-2.7v15.8c0.7,0.4,1.3,0.8,2,1.1
		c1.9,0.8,3.8,1.3,5.8,1.4V61.3C69.5,62,67.3,61.8,65.7,60.7z M110.8,86.1L90,65.2c-0.7-0.7-1-1.7-0.8-2.7c0.9-4.1,0.3-8.5-1.8-12.2
		c-0.6-1-1.2-1.9-2-2.8c-0.6-0.7-1.3-1.3-2-2c-0.2-0.2-0.4-0.3-0.6-0.5c-2.2-1.6-4.7-2.6-7.2-3.1c-0.7-0.1-1.4-0.2-2-0.2
		c-0.7,0-1.4,0-2,0c-3.4,0.2-6.8,1.5-9.6,3.7c-2.5,2-4.3,4.5-5.3,7.2c-0.3,0.8-0.6,1.6-0.7,2.4c-0.2,0.8-0.3,1.6-0.4,2.4
		c-0.4,4.9,1.2,9.9,5,13.6c0.4,0.4,0.8,0.7,1.2,1.1c0.6,0.5,1.3,1,2,1.5c0.7,0.4,1.3,0.8,2,1.1c1.9,0.8,3.8,1.3,5.8,1.4
		c0.7,0,1.4,0,2,0c0.7,0,1.4-0.1,2-0.2c0.5-0.1,1-0.2,1.5-0.3c1-0.3,2,0.1,2.7,0.8l1.2,1.2l2.4-1.2l2-1l-2,3.8L83,79.6l0.1,0.1
		l0.3,0.3l0.7-0.4l1.1-0.6l0.9-0.5l0.4-0.2l0.7-0.4l0.4-0.2l-0.4,0.9l-1.1,2.2l-0.7,1.3l0.4,0.4l0.2-0.1l1.1-0.6l3.1-1.6l-2.2,3.9
		L88,84.6l0.5,0.5l5-2l-2.4,4.6l0.5,0.5l4.5-2.2l-0.5,0.9l-1.8,3.4l0.3,0.3l0.2,0.2l4.5-2.3l-1.1,2.2L96.4,93l0.6,0.6l0.2-0.1
		l4.3-2.1l-1.3,2.4l-1.1,2l0.4,0.4l0.9-0.4l3.6-1.8l-1.7,3.5l-0.3,0.7c0.5,0.3,1.1,0.5,1.7,0.7c3.1,0.9,6.6-0.3,8.6-3.5
		C113.9,92.3,113.2,88.5,110.8,86.1z M72.6,60.7c-0.4,0.3-0.8,0.5-1.3,0.7c-1.8,0.7-4,0.5-5.6-0.7c-0.1-0.1-0.2-0.1-0.2-0.2
		c-1-0.7-1.6-1.7-2-2.7C63.1,56.9,62.9,56,63,55c0.1-0.8,0.3-1.6,0.7-2.4c0.5-0.9,1.1-1.7,2-2.3c1.6-1.1,3.8-1.3,5.6-0.7
		c0.4,0.2,0.9,0.4,1.3,0.7c0.3,0.2,0.5,0.4,0.8,0.6c0.4,0.3,0.7,0.7,0.9,1.1c0.1,0.1,0.1,0.1,0.1,0.2c0,0,0,0,0,0
		c1.5,2.5,1.1,5.7-1,7.7C73.1,60.3,72.8,60.5,72.6,60.7z"/>
	<g>
		<path class="st1" d="M90,96h-1.8v2.1c0,0.1,0,0.2,0,0.3H90h-1.8c0,0,0,0,0,0c-0.1,1.2-1,2.1-2,2.1h-12c-1,0-1.9-0.9-2-2.1
			c0,0,0,0,0,0h-5.9c0,0,0,0,0,0c-0.1,1.2-1,2.1-2,2.1h-12c-1,0-1.9-0.9-2-2.1c0,0,0,0,0,0h-5.5c0,0,0,0,0,0c-0.3,0.9-1,1.5-1.9,1.5
			H31c-0.9,0-1.6-0.6-1.9-1.5c0,0,0,0,0,0H29h0.2C29,98.2,29,97.9,29,97.5V96c-1.1,0-2,1.1-2,2.4c0,1.3,0.9,2.4,2,2.4H90
			c1.1,0,2-1.1,2-2.4C92.1,97.1,91.1,96,90,96z"/>
		<path class="st1" d="M66.3,98.4h5.9c0-0.1,0-0.2,0-0.3V96h-5.8v2.1C66.4,98.2,66.3,98.3,66.3,98.4z"/>
		<path class="st1" d="M44.8,98.4h5.5c0-0.1,0-0.2,0-0.3V96H45v1.5C45,97.9,44.9,98.2,44.8,98.4z"/>
		<rect x="33" y="75.7" class="st1" width="7.9" height="19.5"/>
		<path class="st1" d="M31,96V73.3h12V96h2V73.3c0-1.3-0.9-2.4-2-2.4H31c-1.1,0-2,1.1-2,2.4V96c0,0,0,0,0,0H31z"/>
		<path class="st1" d="M29.1,98.4c0.3,0.9,1,1.5,1.9,1.5h12c0.9,0,1.6-0.6,1.9-1.5c0,0,0,0,0,0L29.1,98.4
			C29.1,98.4,29.1,98.4,29.1,98.4z"/>
		<path class="st1" d="M29.1,98.4h15.7c0.1-0.3,0.2-0.6,0.2-0.9V96h-2v1.5H31V96h-2c0,0,0,0,0,0v1.5C29,97.9,29,98.2,29.1,98.4z"/>
		<path class="st1" d="M31,73.3V96h12V73.3H31z M33,95.2V75.7h7.9v19.5H33z"/>
		<rect x="31" y="96" class="st1" width="12" height="1.5"/>
		<path class="st1" d="M62.3,95.7V76c0,0,0,0,0,0c-0.8-0.5-1.6-1-2.3-1.6c-0.5-0.4-0.9-0.8-1.3-1.2c-1.9-1.9-3.3-4.1-4.3-6.4v29
			H62.3z"/>
		<path class="st1" d="M66.4,96V77.9c-0.6-0.2-1.2-0.4-1.8-0.7c-0.1,0-0.1-0.1-0.2-0.1v19H66.4z"/>
		<path class="st1" d="M52.4,56.2h0.9c0.1-0.3,0.1-0.7,0.2-1c0.1-0.5,0.2-0.9,0.4-1.4h-1.5c-1.1,0-2,1.1-2,2.4V96h2V56.2z"/>
		<path class="st1" d="M50.3,98.4h16c0-0.1,0-0.2,0-0.3V96h-2v2.1h-12V96h-2v2.1C50.3,98.2,50.3,98.3,50.3,98.4z"/>
		<path class="st1" d="M50.3,98.4c0.1,1.2,1,2.1,2,2.1h12c1,0,1.9-0.9,2-2.1c0,0,0,0,0,0L50.3,98.4C50.3,98.4,50.3,98.4,50.3,98.4z"
			/>
		<path class="st1" d="M52.4,96h12v-19c-0.7-0.3-1.4-0.7-2-1.1v19.7h-7.9v-29c-1.1-2.8-1.6-5.9-1.3-8.9c0-0.6,0.1-1.1,0.2-1.7h-0.9
			V96z"/>
		<rect x="52.4" y="96" class="st1" width="12" height="2.1"/>
		<path class="st1" d="M79.4,40.9c1.6,0.6,3.1,1.4,4.4,2.4c0.1,0.1,0.2,0.2,0.3,0.2v-2.7H79.4z"/>
		<path class="st1" d="M84.2,95.7v-13l-2.3-2.4L80.5,79c-0.8-0.8-1.9-1.1-3.1-0.9c-0.4,0.1-0.8,0.2-1.1,0.3v17.4H84.2z"/>
		<path class="st1" d="M74.2,39.7v-1.2h12v6.9c0.2,0.2,0.4,0.5,0.7,0.7c0.5,0.6,1,1.1,1.4,1.7v-9.4c0-1.3-0.9-2.4-2-2.4h-12
			c-1.1,0-2,1.1-2,2.4v1.1c0.4,0,0.8,0,1.2,0C73.7,39.6,74,39.7,74.2,39.7z"/>
		<polygon class="st1" points="86.2,96 88.2,96 88.2,86.9 86.2,84.8 		"/>
		<path class="st1" d="M74.2,78.7c-0.3,0-0.6,0.1-0.8,0.1c-0.4,0-0.8,0-1.2,0V96h2V78.7z"/>
		<path class="st1" d="M72.2,98.4h16c0-0.1,0-0.2,0-0.3V96h-2v2.1h-12V96h-2v2.1C72.2,98.2,72.2,98.3,72.2,98.4z"/>
		<path class="st1" d="M72.2,98.4c0.1,1.2,1,2.1,2,2.1h12c1,0,1.9-0.9,2-2.1c0,0,0,0,0,0L72.2,98.4C72.2,98.4,72.2,98.4,72.2,98.4z"
			/>
		<path class="st1" d="M74.2,38.5v1.2c0.5,0,1,0.1,1.5,0.2c1.3,0.2,2.5,0.6,3.7,1h4.8v2.7c0.1,0.1,0.3,0.2,0.4,0.3
			c0.6,0.5,1.1,1,1.6,1.5v-6.9H74.2z"/>
		<path class="st1" d="M86.2,96V84.8l-2-2.1v13h-7.9V78.4c-0.2,0-0.4,0.1-0.6,0.1c-0.5,0.1-1,0.2-1.5,0.2V96H86.2z"/>
		<rect x="74.2" y="96" class="st1" width="12" height="2.1"/>
	</g>
</g>
</svg>
