<?xml version="1.0" encoding="utf-8"?>
<!-- Generator: Adobe Illustrator 24.2.0, SVG Export Plug-In . SVG Version: 6.00 Build 0)  -->
<!DOCTYPE svg PUBLIC "-//W3C//DTD SVG 1.1//EN" "http://www.w3.org/Graphics/SVG/1.1/DTD/svg11.dtd" [
	<!ENTITY ns_extend "http://ns.adobe.com/Extensibility/1.0/">
	<!ENTITY ns_ai "http://ns.adobe.com/AdobeIllustrator/10.0/">
	<!ENTITY ns_graphs "http://ns.adobe.com/Graphs/1.0/">
	<!ENTITY ns_vars "http://ns.adobe.com/Variables/1.0/">
	<!ENTITY ns_imrep "http://ns.adobe.com/ImageReplacement/1.0/">
	<!ENTITY ns_sfw "http://ns.adobe.com/SaveForWeb/1.0/">
	<!ENTITY ns_custom "http://ns.adobe.com/GenericCustomNamespace/1.0/">
	<!ENTITY ns_adobe_xpath "http://ns.adobe.com/XPath/1.0/">
]>
<svg version="1.1" id="Layer_1" xmlns:x="&ns_extend;" xmlns:i="&ns_ai;" xmlns:graph="&ns_graphs;"
	 xmlns="http://www.w3.org/2000/svg" xmlns:xlink="http://www.w3.org/1999/xlink" x="0px" y="0px" viewBox="0 0 140.1 140.1"
	 style="enable-background:new 0 0 140.1 140.1;" xml:space="preserve">
<style type="text/css">
	.st0{fill:#00316F;}
	.st1{fill:#FFFFFF;}
</style>
<metadata>
	<sfw  xmlns="&ns_sfw;">
		<slices></slices>
		<sliceSourceBounds  bottomLeftOrigin="true" height="140.1" width="140.1" x="-149" y="-21.3"></sliceSourceBounds>
	</sfw>
</metadata>
<circle class="st0" cx="70" cy="70" r="70"/>
<g>
	<g>
		<circle class="st1" cx="89.1" cy="81.5" r="5.7"/>
		<path class="st1" d="M68,28.7c-8.3,0-15.1,6.7-15.1,15.1c0,4.6,2.1,8.8,5.3,11.6h8.5v-1.8c-0.7-0.1-1.3-0.1-2.1-0.4
			c-0.9-0.1-1.7-0.5-2.4-1c-0.2-0.1-0.2-0.2-0.1-0.4c0.2-0.6,0.4-1.1,0.6-1.7c0.1,0.1,0.4,0.1,0.5,0.2c1.3,0.7,2.7,1.1,4.3,1.1
			c0.6,0,1.1-0.1,1.7-0.4c2.3-1,2.6-3.6,0.6-5.2c-0.7-0.6-1.7-1-2.6-1.3c-1.1-0.5-2.2-1-3.2-1.8c-2.3-1.8-2.1-5.5,0.2-7.2
			c0.7-0.6,1.6-1,2.6-1.2c0.1,0,0.2,0,0.4-0.1V32h1.9V34c0.7,0.1,1.5,0.2,2.2,0.4c0.6,0.1,1.1,0.5,1.7,0.7c0.1,0,0.1,0.2,0.1,0.2
			c-0.2,0.6-0.5,1.2-0.7,1.8c-0.7-0.5-1.6-0.7-2.4-0.9c-1-0.1-1.9-0.2-3,0.1c-1,0.4-1.7,1-1.8,2.1c-0.1,1.1,0.1,1.9,1.1,2.6
			c0.7,0.5,1.6,0.9,2.4,1.2c1.1,0.5,2.1,1,3,1.6c1.7,1.2,2.4,2.9,2.2,5c-0.2,1.9-1.5,3.3-3.3,4c-0.5,0.2-1.1,0.4-1.6,0.5v1.9h8.8
			c3.3-2.8,5.3-6.9,5.3-11.6C83.1,35.4,76.3,28.7,68,28.7z"/>
		<g>
			<g>
				<path class="st1" d="M93.9,50.9L93.9,50.9c0-1.1-0.9-1.8-1.8-1.8h-7.2c-0.4,1.2-1,2.4-1.6,3.6h8.8
					C93.2,52.6,93.9,51.8,93.9,50.9z"/>
				<path class="st1" d="M85.4,70.9c5,0,9.8,0,14.8,0c2.1,0,2.9-0.9,2.9-2.9c0-1.9,0-3.9,0-6c0-3-1.3-4.5-4.4-4.5
					c-6.6,0-13.1,0-19.7,0h-8.9l0,0H57.1H41.3c-0.4,0-0.6,0-0.9,0v-3.3c0-1,0.7-1.7,1.8-1.8l0,0h10.5c-0.6-1.1-1.2-2.3-1.6-3.6H42
					c-2.9,0.1-5.1,2.6-5.1,5.5v7.5v0.1v38.8c0,3.3,1.3,4.6,4.7,4.6h30.3c9,0,18,0,27,0c2.7,0,4.1-1.6,4.3-4c0-2.2,0-4.4,0-6.4
					c0-1.9-0.9-2.8-2.7-2.8c-5.1,0-10.1-0.1-15.2,0c-3.4,0-5.5-1.8-5.5-5.3c0-3.4,0-6.8,0-10.3C79.7,72.9,81.6,70.9,85.4,70.9z
					 M66.6,84.7c-2.1,3-4.3,5.6-6.6,7.9c-0.5,0.5-1.1,0.9-1.7,0.9s-1.2-0.2-1.7-0.9c-2.3-2.3-4.4-5-6.6-7.9
					c-0.2-0.4-0.4-0.9-0.4-1.2c0-0.2,0.1-0.5,0.2-0.9c0.2-0.5,0.7-1,1.8-1H55c0-0.5-0.1-1.2-0.2-2.1c-0.2-1.8-0.5-4.1-0.6-5.3
					c-0.1-1.3,0.4-2.6,1.2-3.4c0.9-0.9,1.9-1.2,3-1.2c2.4,0,4.4,2.2,4.3,4.6c-0.1,1.2-0.4,3.3-0.6,5c-0.1,0.9-0.2,1.7-0.2,2.3h0.6
					c0.9,0,1.7,0,2.6,0c0.9,0,1.5,0.4,1.8,1C67.1,83.3,66.9,83.9,66.6,84.7z"/>
			</g>
		</g>
	</g>
	<polygon class="st1" points="58.3,55.4 77.9,55.2 78.7,43.8 75.9,34.1 71.3,30.9 64,31.5 58.6,36.8 56.6,43.8 	"/>
	<path class="st0" d="M62.4,46.9l-2.7,4c0,0,1.1,1.3,4.2,2.4l1.5-3.7l1-2.5l1.1-2.7c0,0,0.4-0.9,0.4-0.9l0.1-0.1c0,0,0,0,0,0l0,0
		l0,0c0,0,0,0,0,0l0,0l0,0l0,0.1l0.1,0.3l0.2,0.5l0.7,2l0.6,1.7l1,2.6l0.8,1.9l0.4,1c0,0,2.4-0.6,4.5-2.4l-1.5-2l-1-1.5l-1-1.7
		l-0.8-1.5L71.5,43L71,41.6l-0.5-1.3L70,38.8l-0.5-1.6L69,35.7l-0.5-1.7l-0.3-0.9l-0.6,1.6L66.8,37l-0.6,1.7l-0.7,2l-0.6,1.6
		l-0.7,1.5l-0.8,1.5L62.4,46.9z"/>
</g>
</svg>
