<?xml version="1.0" encoding="utf-8"?>
<!-- Generator: Adobe Illustrator 23.0.1, SVG Export Plug-In . SVG Version: 6.00 Build 0)  -->
<svg version="1.1" id="Layer_1" xmlns="http://www.w3.org/2000/svg" xmlns:xlink="http://www.w3.org/1999/xlink" x="0px" y="0px"
	 viewBox="0 0 88.7 89.3" style="enable-background:new 0 0 88.7 89.3;" xml:space="preserve">
<style type="text/css">
	.st0{fill-rule:evenodd;clip-rule:evenodd;fill:#002248;}
	.st1{fill:#002248;}
</style>
<g>
	<path class="st0" d="M38.4,20.7c5.7-0.1,14.5,0.6,19.8,2.8c1.6,0.7,6.4,3.5,7.6,4.2c0.5,0.1,4.1-0.6,5.4-0.5c0.6,0,1.2,0.3,1.4,0.6
		c0.4,0.3,1.1,1.6,0.5,2.5c-0.5,0.6-1.2,3-0.6,4.2c1.4,2.6,3.9,9.1,4.8,12.1c0.6,1.8,0.5,3.7,1.7,4.6c0.6,0.4,1.5,0.8,1.9,0.9
		c2.1,0.3,4.9-1.3,6.5-0.2c2.8,3.1-0.1,10.9-2.3,12.1c-1.9,1.1-4.2,0-4.5,2.8c1.1,0.8,2.1,2.8,1.9,4.3c-0.2,1-1.6,2.1-2.7,1.6
		c-4.7-3.3-11.7,5.6-13.8,7.6c0.7,1.8,2.3,6.1,1,7.8c-0.6,0.6-2.9,0.7-4.4,0.8c-2.1,0.2-4.5,0.1-5.9-0.5c-1.5-0.7-2.5-3.5-4.3-4
		c-1.9,0-3.6,0.6-5.5,0.6c-5.2,0-11.8,0.1-15.4-0.2c-2.1-0.5-3.6-0.6-4.7-0.1c-1.8,0.8-2.9,2.8-4.6,3.5c-2.3,1-7.3,0.2-9,0
		c-0.4-0.2-0.7-0.6-0.8-1.1c0.1-2.9,0.6-7.6,0.3-8.8c-1.1-3.9-4.5-7.1-5.9-11c-1-2.6-1.3-5.7-2-8.5c-0.1-1.3-0.2-2.6-0.3-4
		c-0.9-2.1-3.7-2.5-4.5-4.8c1.4-0.9,4.2-2.1,4.8-3.7c0.6-1.4,0.9-4.1,1.7-5.9c1.9-4.5,5.3-9.7,9-12.4C23.1,22.8,33.9,20.8,38.4,20.7
		z"/>
	<path class="st0" d="M22.3,81.9c2.4,0.9,4.6,1.5,6.1,1.7c6.1,0.8,15.5,0.9,20,0.5c3-0.3,5.4-0.9,7.2-1.5c2.5-0.8,4.7-2.1,7-3.3
		c-2.2,1.7-4.3,3.6-6.9,4.6c-3.1,1.1-5.2,1.6-8.5,1.8c-3.8,0.2-10.3,0-13.7-0.2c-2.7-0.2-7.7-0.6-10.6-2.1c-2.2-1.1-4.6-2.9-6.3-4.6
		C17,78.7,21.3,81.5,22.3,81.9z"/>
	<path class="st0" d="M15.7,85.5c-0.1,0.9,0.9,1,1,0.3c0.1-0.8,1.8-4.4,2.4-5.2c-1-0.6-1.5-0.9-2.1-1.5
		C16.4,80.6,15.8,84.9,15.7,85.5z"/>
	<path class="st0" d="M61.9,86.9c0.1,0.9-0.9,1-1,0.3c-0.1-0.8-1.8-4.4-2.4-5.2c1-0.6,1.5-0.9,2.1-1.5C61.2,82,61.9,86.3,61.9,86.9z
		"/>
	<path class="st0" d="M60,35.3c0.5,0.5,4,5.8,4.3,6.7c0.3,0.9,1.5,0.6,1.6-0.6s2.6-8.5,3-9.4c0.4-0.9-0.6-2.3-1.3-0.4
		c-0.8,1.8-2.5,6.5-2.9,6.6c-0.4,0.1-3-3.5-4-4C59.8,33.7,59,34.3,60,35.3z"/>
	<path class="st1" d="M31.9,24.3c-0.1,0-0.2-0.1-0.3-0.2c-0.1-0.1,0-0.3,0.2-0.4c1.2-0.4,4.9-1.1,8.7-1.2c3.1-0.1,6.2,0.4,8.1,0.9
		c0.2,0,0.2,0.2,0.2,0.3c0,0.2-0.2,0.2-0.3,0.2C44,22.9,33.9,23.6,31.9,24.3C32,24.3,32,24.3,31.9,24.3z"/>
	<path class="st0" d="M2.5,52.9c0.8-0.1,1.6-0.6,1.8-1.8C4.5,50.5,5,49.7,5,50.7s-0.2,3-0.8,3.3C3.7,54.4,2.5,52.9,2.5,52.9z"/>
	<path class="st0" d="M82.4,70c0.2,1.1-3.7-2.2-4.2-3.7c-0.1-0.2-0.2-0.9,0.1-1.1c0.8-0.6,1.8,0.1,3.4,0c-0.8,0.4-1,1.4-0.8,1.7
		C82.3,68.8,82.4,69.6,82.4,70z"/>
</g>
<g>
	<path class="st1" d="M48.2,8.3c0,4.6-3.7,8.3-8.3,8.3c-4.6,0-8.3-3.7-8.3-8.3S35.2,0,39.8,0C44.4,0,48.2,3.7,48.2,8.3z"/>
	<circle class="st1" cx="39.8" cy="8.3" r="7.3"/>
	<circle class="st1" cx="39.8" cy="8.3" r="6.6"/>
</g>
</svg>
