<?xml version="1.0" encoding="utf-8"?>
<!-- Generator: Adobe Illustrator 23.0.1, SVG Export Plug-In . SVG Version: 6.00 Build 0)  -->
<svg version="1.1" id="Layer_1" xmlns="http://www.w3.org/2000/svg" xmlns:xlink="http://www.w3.org/1999/xlink" x="0px" y="0px"
	 viewBox="0 0 47.8 52.8" style="enable-background:new 0 0 47.8 52.8;" xml:space="preserve">
<style type="text/css">
	.st0{fill:#002248;}
</style>
<path class="st0" d="M32.1,14.6c-0.3-0.4-0.7-0.6-1-0.8c0-0.3-0.1-0.6-0.2-0.9c0-0.1,0.1-0.2,0.1-0.3c0.2-0.2,0.2-0.6,0.3-1.1
	c0-0.2,0-0.3,0-0.5c0-0.5-0.1-0.9-0.2-1.4c0-3.5,0.2-5.9,0.2-5.9S27.3,0,20.1,0S9,3.6,9,3.6l0.2,6.1C9,10.2,9,10.8,9,11.3
	c0,0.2,0,0.3,0,0.5l0,0c0,0,0,0,0,0.1c0,0.4,0.1,0.7,0.2,0.7c0,0.1,0.1,0.3,0.1,0.5c-0.1,0.3-0.1,0.5-0.1,0.8
	c-0.4,0.1-0.7,0.4-1,0.8c-0.5,0.7-0.5,1.7-0.5,2.5c0,0.2,0,0.3,0,0.4c0,1.7,0.9,3.2,2.2,3.7c1.7,5.4,5.7,9,10.3,9s8.6-3.6,10.3-9
	c1.3-0.5,2.2-2,2.2-3.7c0-0.1,0-0.3,0-0.4C32.6,16.4,32.7,15.4,32.1,14.6z M16.6,3.5h2.6V0.9H21v2.6h2.6v1.8H21v2.6h-1.8V5.3h-2.6
	V3.5z M31.3,17.6c0,1.4-0.9,2.5-1.9,2.6c-1.3,5.1-5,8.8-9.2,8.8s-7.9-3.7-9.2-8.8c-1.2,0-2-1.2-2-2.6c0-0.7-0.1-1.7,0.2-2.2
	c0.1-0.1,0.2-0.2,0.3-0.2c0.2,1,0.5,1.8,1.7,1.8c0,0-0.1-5,0.8-6.4c0-0.1,0.1-0.1,0.1-0.2c0.7-0.2,1.4-0.5,2.3-0.7
	c0.8,0.2,1.8,0.7,3.1,1.6c3.1,2.1,5.3-0.3,6.4-1.1s4.5-0.6,4.5,6.8c1.2,0.2,1.9-0.8,2.2-1.8c0.2,0.1,0.3,0.1,0.4,0.3
	C31.4,15.9,31.3,16.9,31.3,17.6z"/>
<path class="st0" d="M30.9,38.2c0.1-0.3,0.1-0.7,0.2-1c-1.1-2.8-1.5-5.3-1.6-7.2c-1.1-0.3-2.2-0.5-3.2-0.7
	c-0.4,6.3-1.9,19.4-6.4,20.3c-4.5-0.8-5.9-13.9-6.4-20.2c-1.9,0.3-4.1,0.9-6.2,1.8c-0.6,0.2-0.9,0.5-1.4,0.7c-2,1-4,2.4-5.9,4.2
	c-0.2,3.6,0.2,8.4,1.7,10.5c1.4,1.9,3.8,5.4,14.5,6.1c0,0,3.8,0.4,7.6,0c2.4-0.1,4.4-0.4,6.1-0.8C29.4,46,30.4,41,30.9,38.2z"/>
<g>
	<path class="st0" d="M47.6,28.2c-0.2-0.7-0.7-2.5-3.5-2.5s-4.2,1.2-4.6,1.1c-0.4,0.1-1.8-1.1-4.6-1.1s-3.2,1.8-3.5,2.5
		c-0.2,0.7-0.5,4.2,1.5,8.7c0,1.2-2,7.9-1.2,15.3c0.2,2,3.4-1.2,4.2-4.2c0.8-2.9,1.9-6.5,3.6-6.9c1.7,0.4,2.8,3.9,3.6,6.9
		c0.8,2.9,4,6.2,4.2,4.2c0.8-7.5-1.2-14.1-1.2-15.3C48.1,32.4,47.9,28.9,47.6,28.2z"/>
</g>
</svg>
