<?xml version="1.0" encoding="utf-8"?>
<!-- Generator: Adobe Illustrator 23.0.3, SVG Export Plug-In . SVG Version: 6.00 Build 0)  -->
<!DOCTYPE svg PUBLIC "-//W3C//DTD SVG 1.1//EN" "http://www.w3.org/Graphics/SVG/1.1/DTD/svg11.dtd" [
	<!ENTITY ns_extend "http://ns.adobe.com/Extensibility/1.0/">
	<!ENTITY ns_ai "http://ns.adobe.com/AdobeIllustrator/10.0/">
	<!ENTITY ns_graphs "http://ns.adobe.com/Graphs/1.0/">
	<!ENTITY ns_vars "http://ns.adobe.com/Variables/1.0/">
	<!ENTITY ns_imrep "http://ns.adobe.com/ImageReplacement/1.0/">
	<!ENTITY ns_sfw "http://ns.adobe.com/SaveForWeb/1.0/">
	<!ENTITY ns_custom "http://ns.adobe.com/GenericCustomNamespace/1.0/">
	<!ENTITY ns_adobe_xpath "http://ns.adobe.com/XPath/1.0/">
]>
<svg version="1.1" id="Layer_1" xmlns:x="&ns_extend;" xmlns:i="&ns_ai;" xmlns:graph="&ns_graphs;"
	 xmlns="http://www.w3.org/2000/svg" xmlns:xlink="http://www.w3.org/1999/xlink" x="0px" y="0px" viewBox="0 0 499.2 145.1"
	 style="enable-background:new 0 0 499.2 145.1;" xml:space="preserve">
<style type="text/css">
	.st0{fill:#77CBED;}
	.st1{fill:#4BB8E3;}
	.st2{fill:#0096C8;}
	.st3{fill:#1C77BD;}
	.st4{fill:#205DB0;}
	.st5{fill:#152D73;}
	.st6{fill:url(#SVGID_1_);}
	.st7{fill:url(#SVGID_2_);}
	.st8{fill:url(#SVGID_3_);}
	.st9{fill:url(#SVGID_4_);}
	.st10{fill:url(#SVGID_5_);}
	.st11{fill:url(#SVGID_6_);}
	.st12{fill:url(#SVGID_7_);}
	.st13{fill:url(#SVGID_8_);}
	.st14{fill:url(#SVGID_9_);}
	.st15{fill:url(#SVGID_10_);}
	.st16{fill:url(#SVGID_11_);}
	.st17{fill:url(#SVGID_12_);}
	.st18{fill:url(#SVGID_13_);}
	.st19{fill:url(#SVGID_14_);}
	.st20{fill:url(#SVGID_15_);}
	.st21{fill:#010101;}
</style>
<metadata>
	<sfw  xmlns="&ns_sfw;">
		<slices></slices>
		<sliceSourceBounds  bottomLeftOrigin="true" height="145.1" width="499.2" x="55.5" y="86"></sliceSourceBounds>
	</sfw>
</metadata>
<polygon class="st0" points="69.4,0 69.4,18 100.4,35.9 113.8,25.8 "/>
<polygon class="st1" points="60.3,0 60.3,18 20.5,41.5 4.5,32.2 "/>
<polygon class="st2" points="0,40.1 15.4,49.2 15.4,94.7 0,103.8 "/>
<polygon class="st3" points="3.5,111.9 18.9,103.1 60.2,126.7 60.2,145.1 "/>
<polygon class="st4" points="69.5,145.1 69.5,127 110.8,102.9 126.6,112.1 "/>
<polygon class="st5" points="129.7,47.4 129.7,103.5 114.2,94.4 114.2,64.5 "/>
<polygon points="51.3,60.6 36.9,75.1 65.6,104.6 152.3,7.9 66,75.4 "/>
<g>
	
		<linearGradient id="SVGID_1_" gradientUnits="userSpaceOnUse" x1="164.6" y1="836.41" x2="164.6" y2="869.01" gradientTransform="matrix(1 0 0 1 0 -780.11)">
		<stop  offset="0" style="stop-color:#0071C9"/>
		<stop  offset="1" style="stop-color:#003B75"/>
	</linearGradient>
	<path class="st6" d="M176.8,61.9h-9v27h-6.4v-27h-9v-5.6h24.4V61.9z"/>
	
		<linearGradient id="SVGID_2_" gradientUnits="userSpaceOnUse" x1="185.65" y1="844.81" x2="185.65" y2="869.01" gradientTransform="matrix(1 0 0 1 0 -780.11)">
		<stop  offset="0" style="stop-color:#0071C9"/>
		<stop  offset="1" style="stop-color:#003B75"/>
	</linearGradient>
	<path class="st7" d="M194.1,67.7l-3.1,5c-0.6-0.6-1.2-1.2-1.9-1.7s-1.4-0.7-2.1-0.7c-0.4,0-0.8,0.1-1.2,0.3s-0.9,0.5-1.3,0.9
		c-0.4,0.4-0.7,0.9-1,1.6c-0.3,0.7-0.4,1.5-0.4,2.5v13.3h-5.9V65.3h5.9v2.5c0.7-1,1.5-1.8,2.3-2.3c0.9-0.5,1.8-0.8,2.9-0.8
		c1,0,2,0.3,3,0.8C192.3,66.1,193.2,66.8,194.1,67.7z"/>
	
		<linearGradient id="SVGID_3_" gradientUnits="userSpaceOnUse" x1="206.35" y1="845.4101" x2="206.35" y2="869.5684" gradientTransform="matrix(1 0 0 1 0 -780.11)">
		<stop  offset="0" style="stop-color:#0071C9"/>
		<stop  offset="1" style="stop-color:#003B75"/>
	</linearGradient>
	<path class="st8" d="M217,88.9h-5.9v-1.8c-0.4,0.4-0.8,0.7-1.3,1s-1,0.5-1.6,0.7s-1.1,0.4-1.7,0.5s-1.1,0.2-1.7,0.2
		c-1.2,0-2.3-0.2-3.4-0.6c-1.1-0.4-2.1-1-2.9-1.8c-0.8-0.8-1.5-1.8-2-3.1s-0.8-2.7-0.8-4.4V65.3h5.9v14c0,0.8,0.1,1.6,0.4,2.2
		c0.3,0.6,0.6,1.2,1,1.6c0.4,0.4,0.9,0.7,1.5,0.9s1.1,0.3,1.7,0.3c1.9,0,3.6-0.7,4.9-2V65.2h5.9V88.9z"/>
	
		<linearGradient id="SVGID_4_" gradientUnits="userSpaceOnUse" x1="230.2" y1="844.798" x2="230.2" y2="869.6501" gradientTransform="matrix(1 0 0 1 0 -780.11)">
		<stop  offset="0" style="stop-color:#0071C9"/>
		<stop  offset="1" style="stop-color:#003B75"/>
	</linearGradient>
	<path class="st9" d="M239.2,82.3c0,1.2-0.3,2.2-0.8,3.1c-0.5,0.9-1.3,1.7-2.1,2.3c-0.9,0.6-1.9,1.1-2.9,1.4
		c-1.1,0.3-2.2,0.5-3.2,0.5c-1.8,0-3.5-0.3-5-1s-2.8-1.7-4-3.2l3.6-3.6c0.7,0.9,1.5,1.6,2.4,2.1s1.9,0.8,3,0.8
		c0.9,0,1.7-0.2,2.3-0.5c0.6-0.3,0.9-0.8,0.9-1.5s-0.4-1.3-1.3-1.8s-2.1-0.9-3.7-1.4c-0.9-0.3-1.8-0.6-2.7-1
		c-0.9-0.4-1.6-0.9-2.3-1.6c-0.7-0.6-1.2-1.3-1.6-2.1s-0.6-1.7-0.6-2.7c0-1.1,0.3-2.2,0.8-3.1c0.5-0.9,1.2-1.7,2.1-2.3
		s1.8-1.1,2.9-1.4c1.1-0.3,2.2-0.5,3.3-0.5c3.6,0,6.5,1.4,8.8,4.1l-3.5,3.6c-0.7-0.8-1.5-1.5-2.3-2c-0.9-0.5-1.8-0.7-2.9-0.7
		c-0.4,0-0.7,0-1.1,0.1s-0.8,0.2-1.1,0.4c-0.3,0.2-0.6,0.4-0.8,0.7c-0.2,0.3-0.3,0.6-0.3,1c0,0.6,0.4,1.2,1.2,1.6
		c0.8,0.5,2,0.9,3.6,1.4c1,0.3,2,0.7,2.9,1.1c0.9,0.5,1.7,1,2.4,1.6c0.7,0.6,1.2,1.3,1.6,2.1C239,80.4,239.2,81.3,239.2,82.3z"/>
	
		<linearGradient id="SVGID_5_" gradientUnits="userSpaceOnUse" x1="248.5" y1="838.4727" x2="248.5" y2="869.6092" gradientTransform="matrix(1 0 0 1 0 -780.11)">
		<stop  offset="0" style="stop-color:#0071C9"/>
		<stop  offset="1" style="stop-color:#003B75"/>
	</linearGradient>
	<path class="st10" d="M256,88.4c-0.6,0.4-1.3,0.7-2.1,0.9c-0.8,0.2-1.6,0.3-2.4,0.3c-1.4,0-2.6-0.2-3.5-0.5c-1-0.3-1.7-0.9-2.3-1.6
		c-0.6-0.7-1-1.6-1.2-2.7c-0.3-1.1-0.4-2.4-0.4-3.8V70.7H241V68c1.9-0.8,3.4-2,4.6-3.5c1.2-1.6,2-3.6,2.4-6h1.9v6.9h6v5.3h-6v10.7
		c0,0.6,0.1,1.1,0.2,1.5s0.3,0.7,0.6,0.9c0.2,0.2,0.5,0.4,0.8,0.4c0.3,0.1,0.6,0.1,1,0.1c0.5,0,1-0.1,1.7-0.2
		c0.7-0.2,1.2-0.4,1.7-0.8L256,88.4L256,88.4z"/>
	
		<linearGradient id="SVGID_6_" gradientUnits="userSpaceOnUse" x1="271.1" y1="844.798" x2="271.1" y2="869.598" gradientTransform="matrix(1 0 0 1 0 -780.11)">
		<stop  offset="0" style="stop-color:#0071C9"/>
		<stop  offset="1" style="stop-color:#003B75"/>
	</linearGradient>
	<path class="st11" d="M283.8,77.1c0,0.4,0,0.8-0.1,1.2s-0.1,0.8-0.1,1.3h-18.9c0.2,0.7,0.5,1.3,0.9,1.9c0.4,0.6,0.9,1.1,1.4,1.6
		c0.6,0.4,1.2,0.8,1.9,1.1c0.7,0.3,1.5,0.4,2.4,0.4c1.1,0,2.1-0.2,3.2-0.6c1.1-0.4,1.9-0.9,2.7-1.5l3.7,3.7
		c-1.6,1.2-3.2,2.1-4.8,2.6c-1.6,0.5-3.2,0.8-5,0.8s-3.4-0.3-5-1c-1.5-0.7-2.9-1.5-4-2.7c-1.1-1.1-2-2.4-2.7-3.9s-1-3.1-1-4.8
		s0.3-3.3,1-4.8s1.6-2.8,2.7-3.9c1.1-1.1,2.5-2,4-2.7s3.2-1,4.9-1c1.7,0,3.3,0.3,4.8,0.9c1.5,0.6,2.9,1.5,4,2.6
		c1.2,1.1,2.1,2.4,2.8,3.9C283.5,73.6,283.8,75.2,283.8,77.1z M277.7,74.8c-0.5-1.5-1.3-2.7-2.5-3.6c-1.2-0.9-2.5-1.4-4-1.4
		s-2.8,0.5-4,1.4s-2,2.1-2.4,3.6H277.7z"/>
	
		<linearGradient id="SVGID_7_" gradientUnits="userSpaceOnUse" x1="298.05" y1="835.1265" x2="298.05" y2="869.5684" gradientTransform="matrix(1 0 0 1 0 -780.11)">
		<stop  offset="0" style="stop-color:#0071C9"/>
		<stop  offset="1" style="stop-color:#003B75"/>
	</linearGradient>
	<path class="st12" d="M309.4,88.9h-6v-1.2c-0.8,0.6-1.6,1.1-2.5,1.4c-0.9,0.3-1.9,0.4-2.9,0.4c-1.7,0-3.2-0.3-4.6-1
		s-2.6-1.6-3.6-2.7c-1-1.1-1.8-2.4-2.3-3.9c-0.6-1.5-0.8-3.1-0.8-4.7c0-1.8,0.3-3.4,1-4.9c0.6-1.5,1.5-2.8,2.6-3.9
		c1.1-1.1,2.3-2,3.6-2.6c1.4-0.6,2.8-1,4.2-1c1,0,2,0.1,2.9,0.4c1,0.3,1.8,0.7,2.4,1.1V55.1h6L309.4,88.9L309.4,88.9z M303.5,82.6
		V71.3c-0.3-0.2-0.6-0.4-0.9-0.6c-0.4-0.2-0.7-0.3-1.1-0.4c-0.4-0.1-0.8-0.2-1.1-0.3c-0.4-0.1-0.7-0.1-1-0.1c-1,0-1.9,0.2-2.7,0.5
		c-0.8,0.3-1.5,0.8-2.1,1.5c-0.6,0.6-1.1,1.4-1.4,2.3c-0.3,0.9-0.5,1.9-0.5,3s0.2,2,0.5,2.9s0.8,1.6,1.4,2.3
		c0.6,0.6,1.3,1.1,2.1,1.5c0.8,0.4,1.7,0.5,2.6,0.5C300.7,84.3,302.1,83.7,303.5,82.6z"/>
</g>
<g>
	
		<linearGradient id="SVGID_8_" gradientUnits="userSpaceOnUse" x1="338.35" y1="836.3507" x2="338.35" y2="868.9971" gradientTransform="matrix(1 0 0 1 0 -780.11)">
		<stop  offset="0" style="stop-color:#5BA1C2"/>
		<stop  offset="1" style="stop-color:#104777"/>
	</linearGradient>
	<path class="st13" d="M350.6,88.9h-7l-2.3-7.4c-0.2-0.8-0.5-1.6-0.9-2.2c-0.4-0.7-0.8-1.3-1.3-1.8s-1.1-0.9-1.9-1.1
		c-0.7-0.3-1.6-0.4-2.5-0.4h-2.4v13h-6.2V56.4H339c1.4,0,2.7,0.2,3.9,0.7c1.2,0.5,2.2,1.1,3.1,2c0.9,0.8,1.5,1.8,2,3
		c0.5,1.1,0.7,2.4,0.7,3.7c0,1-0.1,1.9-0.4,2.8c-0.3,0.9-0.7,1.7-1.3,2.5c-0.5,0.8-1.2,1.4-1.9,2c-0.7,0.6-1.6,1-2.5,1.3
		c1,0.4,1.9,0.9,2.5,1.7c0.6,0.7,1.2,1.6,1.5,2.6c0.2,0.5,0.4,0.9,0.5,1.4c0.2,0.5,0.3,0.9,0.5,1.4s0.4,1,0.6,1.6s0.4,1.2,0.7,1.9
		c0.3,0.9,0.6,1.7,0.8,2.3C350.1,87.8,350.3,88.4,350.6,88.9z M342.4,66.1c0-0.8-0.1-1.5-0.4-2.1s-0.7-1.2-1.2-1.6
		c-0.5-0.5-1.1-0.8-1.7-1.1c-0.7-0.3-1.4-0.4-2.1-0.4h-4.6v10.2h4.6c0.8,0,1.5-0.1,2.1-0.3c0.7-0.2,1.2-0.6,1.7-1s0.9-1,1.2-1.6
		C342.3,67.5,342.4,66.8,342.4,66.1z"/>
	
		<linearGradient id="SVGID_9_" gradientUnits="userSpaceOnUse" x1="365.4" y1="844.798" x2="365.4" y2="869.598" gradientTransform="matrix(1 0 0 1 0 -780.11)">
		<stop  offset="0" style="stop-color:#5BA1C2"/>
		<stop  offset="1" style="stop-color:#104777"/>
	</linearGradient>
	<path class="st14" d="M378.1,77.1c0,0.4,0,0.8-0.1,1.2s-0.1,0.8-0.1,1.3H359c0.2,0.7,0.5,1.3,0.9,1.9c0.4,0.6,0.9,1.1,1.4,1.6
		c0.6,0.4,1.2,0.8,1.9,1.1c0.7,0.3,1.5,0.4,2.4,0.4c1.1,0,2.1-0.2,3.2-0.6c1.1-0.4,1.9-0.9,2.7-1.5l3.7,3.7
		c-1.6,1.2-3.2,2.1-4.8,2.6c-1.6,0.5-3.2,0.8-5,0.8s-3.4-0.3-5-1c-1.5-0.7-2.9-1.5-4-2.7c-1.1-1.1-2-2.4-2.7-3.9s-1-3.1-1-4.8
		s0.3-3.3,1-4.8s1.6-2.8,2.7-3.9c1.1-1.1,2.5-2,4-2.7s3.2-1,4.9-1c1.7,0,3.3,0.3,4.8,0.9c1.5,0.6,2.9,1.5,4,2.6
		c1.2,1.1,2.1,2.4,2.8,3.9C377.8,73.6,378.1,75.2,378.1,77.1z M371.9,74.8c-0.5-1.5-1.3-2.7-2.5-3.6c-1.2-0.9-2.5-1.4-4-1.4
		s-2.8,0.5-4,1.4s-2,2.1-2.4,3.6H371.9z"/>
	
		<linearGradient id="SVGID_10_" gradientUnits="userSpaceOnUse" x1="391.7" y1="845.41" x2="391.7" y2="869.0378" gradientTransform="matrix(1 0 0 1 0 -780.11)">
		<stop  offset="0" style="stop-color:#5BA1C2"/>
		<stop  offset="1" style="stop-color:#104777"/>
	</linearGradient>
	<path class="st15" d="M403.5,65.3l-8.9,23.6h-5.8l-8.9-23.6h6.4l5.3,15.8l5.3-15.8H403.5z"/>
	
		<linearGradient id="SVGID_11_" gradientUnits="userSpaceOnUse" x1="409.25" y1="835.1673" x2="409.25" y2="868.9673" gradientTransform="matrix(1 0 0 1 0 -780.11)">
		<stop  offset="0" style="stop-color:#5BA1C2"/>
		<stop  offset="1" style="stop-color:#104777"/>
	</linearGradient>
	<path class="st16" d="M412.3,61.2h-6.1v-6.1h6.1V61.2z M412.2,88.9h-6V65.3h6V88.9z"/>
	
		<linearGradient id="SVGID_12_" gradientUnits="userSpaceOnUse" x1="429.2" y1="844.798" x2="429.2" y2="869.598" gradientTransform="matrix(1 0 0 1 0 -780.11)">
		<stop  offset="0" style="stop-color:#5BA1C2"/>
		<stop  offset="1" style="stop-color:#104777"/>
	</linearGradient>
	<path class="st17" d="M441.9,77.1c0,0.4,0,0.8-0.1,1.2s-0.1,0.8-0.1,1.3h-18.9c0.2,0.7,0.5,1.3,0.9,1.9c0.4,0.6,0.9,1.1,1.4,1.6
		c0.6,0.4,1.2,0.8,1.9,1.1c0.7,0.3,1.5,0.4,2.4,0.4c1.1,0,2.1-0.2,3.2-0.6c1.1-0.4,1.9-0.9,2.7-1.5l3.7,3.7
		c-1.6,1.2-3.2,2.1-4.8,2.6c-1.6,0.5-3.2,0.8-5,0.8s-3.4-0.3-5-1c-1.5-0.7-2.9-1.5-4-2.7c-1.1-1.1-2-2.4-2.7-3.9s-1-3.1-1-4.8
		s0.3-3.3,1-4.8s1.6-2.8,2.7-3.9c1.1-1.1,2.5-2,4-2.7s3.2-1,4.9-1c1.7,0,3.3,0.3,4.8,0.9c1.5,0.6,2.9,1.5,4,2.6
		c1.2,1.1,2.1,2.4,2.8,3.9C441.6,73.6,441.9,75.2,441.9,77.1z M435.8,74.8c-0.5-1.5-1.3-2.7-2.5-3.6c-1.2-0.9-2.5-1.4-4-1.4
		s-2.8,0.5-4,1.4s-2,2.1-2.4,3.6H435.8z"/>
	
		<linearGradient id="SVGID_13_" gradientUnits="userSpaceOnUse" x1="461.45" y1="845.3693" x2="461.45" y2="869.0379" gradientTransform="matrix(1 0 0 1 0 -780.11)">
		<stop  offset="0" style="stop-color:#5BA1C2"/>
		<stop  offset="1" style="stop-color:#104777"/>
	</linearGradient>
	<path class="st18" d="M479.2,65.3L471.3,89h-5.1l-4.7-14.1L456.8,89h-5.1l-8-23.7h6.2l4.4,14.8l4.4-14.8h5.2l4.5,14.8l4.4-14.8
		H479.2z"/>
	
		<linearGradient id="SVGID_14_" gradientUnits="userSpaceOnUse" x1="490.2" y1="844.798" x2="490.2" y2="869.6501" gradientTransform="matrix(1 0 0 1 0 -780.11)">
		<stop  offset="0" style="stop-color:#5BA1C2"/>
		<stop  offset="1" style="stop-color:#104777"/>
	</linearGradient>
	<path class="st19" d="M499.2,82.3c0,1.2-0.3,2.2-0.8,3.1c-0.5,0.9-1.3,1.7-2.1,2.3s-1.9,1.1-2.9,1.4c-1.1,0.3-2.2,0.5-3.2,0.5
		c-1.8,0-3.5-0.3-5-1s-2.8-1.7-4-3.2l3.6-3.6c0.7,0.9,1.5,1.6,2.4,2.1s1.9,0.8,3,0.8c0.9,0,1.7-0.2,2.3-0.5s0.9-0.8,0.9-1.5
		s-0.4-1.3-1.3-1.8c-0.9-0.5-2.1-0.9-3.7-1.4c-0.9-0.3-1.8-0.6-2.7-1s-1.6-0.9-2.3-1.6c-0.7-0.6-1.2-1.3-1.6-2.1
		c-0.4-0.8-0.6-1.7-0.6-2.7c0-1.1,0.3-2.2,0.8-3.1c0.5-0.9,1.2-1.7,2.1-2.3s1.8-1.1,2.9-1.4c1.1-0.3,2.2-0.5,3.3-0.5
		c3.6,0,6.5,1.4,8.8,4.1l-3.5,3.6c-0.7-0.8-1.5-1.5-2.3-2c-0.9-0.5-1.8-0.7-2.9-0.7c-0.4,0-0.7,0-1.1,0.1c-0.4,0.1-0.8,0.2-1.1,0.4
		s-0.6,0.4-0.8,0.7s-0.3,0.6-0.3,1c0,0.6,0.4,1.2,1.2,1.6c0.8,0.5,2,0.9,3.6,1.4c1,0.3,2,0.7,2.9,1.1c0.9,0.5,1.7,1,2.4,1.6
		s1.2,1.3,1.6,2.1C499,80.4,499.2,81.3,499.2,82.3z"/>
</g>
<linearGradient id="SVGID_15_" gradientUnits="userSpaceOnUse" x1="288.7" y1="808.21" x2="498.8" y2="808.21" gradientTransform="matrix(1 0 0 1 0 -780.11)">
	<stop  offset="0" style="stop-color:#000000"/>
	<stop  offset="1" style="stop-color:#FFFFFF"/>
</linearGradient>
<rect x="288.7" y="27" class="st20" width="210.1" height="2.2"/>
<g>
	<g>
		<path class="st21" d="M167.3,25.5c-0.4-1-1-1.9-1.7-2.6c-0.8-0.8-1.6-1.3-2.7-1.7c-1-0.4-2.2-0.6-3.5-0.6h-6.1
			c-0.2,0-0.3,0.1-0.3,0.3v5.9c0,0.2,0.1,0.3,0.3,0.3h3c0.2,0,0.3-0.1,0.3-0.3v-3.2c0-0.2,0.1-0.3,0.3-0.3h2.7
			c0.8,0,1.5,0.1,2.1,0.4c0.6,0.2,1.2,0.6,1.6,1.1c0.4,0.5,0.8,1,1,1.8c0.2,0.7,0.3,1.5,0.3,2.4s-0.1,1.7-0.3,2.4
			c-0.2,0.7-0.6,1.3-1,1.8s-0.9,0.9-1.6,1.1c-0.6,0.2-1.3,0.4-2.1,0.4h-2.7c-0.2,0-0.3-0.1-0.3-0.3v-3.2c0-0.2-0.1-0.3-0.3-0.3h-3
			c-0.2,0-0.3,0.1-0.3,0.3v5.7c0,0.2,0.1,0.3,0.3,0.3h6.1c1.3,0,2.4-0.2,3.5-0.6c1-0.4,2-1,2.7-1.7c0.8-0.8,1.3-1.6,1.7-2.6
			s0.6-2.1,0.6-3.4S167.7,26.5,167.3,25.5z"/>
		<path class="st21" d="M174.1,23.2h6.6c0.2,0,0.3-0.1,0.3-0.3v-2.1c0-0.2-0.1-0.3-0.3-0.3h-10.1c-0.2,0-0.3,0.1-0.3,0.3v16.1
			c0,0.2,0.1,0.3,0.3,0.3h10.1c0.2,0,0.3-0.1,0.3-0.3v-2.1c0-0.2-0.1-0.3-0.3-0.3h-6.6c-0.2,0-0.3-0.1-0.3-0.3v-3.8
			c0-0.2,0.1-0.3,0.3-0.3h5c0.2,0,0.3-0.1,0.3-0.3v-2.1c0-0.2-0.1-0.3-0.3-0.3h-5c-0.2,0-0.3-0.1-0.3-0.3v-3.8
			C173.9,23.3,174,23.2,174.1,23.2z"/>
		<path class="st21" d="M197.6,20.6h-2.5c-0.2,0-0.3,0.1-0.3,0.3v9.2c0,0.2,0,0.5,0,0.8s0.1,0.6,0.1,0.9l-8.4-10.7
			c-0.1-0.1-0.2-0.2-0.2-0.3c-0.1-0.1-0.2-0.1-0.2-0.2c-0.1-0.1-0.2-0.1-0.3-0.1s-0.2,0-0.3,0h-1.6c-0.2,0-0.3,0.1-0.3,0.3v16
			c0,0.2,0.1,0.3,0.3,0.3h2.5c0.2,0,0.3-0.1,0.3-0.3v-9.3c0-0.2,0-0.5,0-0.7c0-0.3,0-0.5-0.1-0.8l8.3,10.5c0.2,0.2,0.3,0.3,0.5,0.5
			c0.2,0.1,0.4,0.1,0.7,0.1h1.5c0.2,0,0.3-0.1,0.3-0.3v-16C197.9,20.7,197.7,20.6,197.6,20.6z"/>
		<path class="st21" d="M212.9,20.6h-12.6c-0.2,0-0.3,0.1-0.3,0.3v2.2c0,0.2,0.1,0.3,0.3,0.3h4.3c0.2,0,0.3,0.1,0.3,0.3V37
			c0,0.2,0.1,0.3,0.3,0.3h2.9c0.2,0,0.3-0.1,0.3-0.3V23.6c0-0.2,0.1-0.3,0.3-0.3h4.3c0.2,0,0.3-0.1,0.3-0.3v-2.3
			C213.2,20.7,213,20.6,212.9,20.6z"/>
		<path class="st21" d="M228,36.8l-6.3-16.1c-0.1-0.1-0.1-0.2-0.2-0.2h-3.1c-0.1,0-0.2,0.1-0.2,0.2l-6.3,16.1
			c-0.1,0.2,0.1,0.3,0.2,0.3h2.3c0.3,0,0.5-0.1,0.7-0.2c0.2-0.2,0.3-0.3,0.4-0.5l1-3c0.1-0.1,0.1-0.2,0.2-0.2h6.3
			c0.1,0,0.2,0.1,0.2,0.2l1,3c0.1,0.2,0.2,0.4,0.4,0.5c0.2,0.1,0.4,0.2,0.8,0.2h2.3C227.9,37.2,228.1,37,228,36.8z M222,30.9h-4.2
			c-0.2,0-0.3-0.2-0.2-0.3l1.7-4.7c0.1-0.3,0.2-0.6,0.3-0.9c0-0.1,0.1-0.2,0.1-0.3c0.1-0.2,0.4-0.2,0.5,0c0,0.1,0.1,0.2,0.1,0.2
			c0.1,0.3,0.2,0.7,0.3,0.9l1.7,4.8C222.3,30.7,222.2,30.9,222,30.9z"/>
		<path class="st21" d="M242.2,34.6l-1.2-1.3c-0.1-0.1-0.3-0.2-0.5-0.2c-0.1,0-0.2,0-0.3,0.1c-0.1,0.1-0.2,0.1-0.3,0.2
			c-0.2,0.2-0.5,0.4-0.8,0.5c-0.2,0.2-0.5,0.3-0.8,0.3c-0.3,0.1-0.6,0.2-0.9,0.2c-0.3,0.1-0.7,0.1-1,0.1c-0.6,0-1.3-0.1-1.9-0.3
			s-1.1-0.6-1.5-1.1s-0.8-1.1-1-1.8c-0.2-0.7-0.3-1.5-0.3-2.4s0.1-1.7,0.3-2.4c0.2-0.7,0.6-1.3,1-1.7c0.4-0.5,0.9-0.9,1.5-1.1
			s1.2-0.4,1.9-0.4c0.6,0,1.2,0.1,1.6,0.2s0.8,0.3,1,0.5c0.3,0.2,0.5,0.3,0.7,0.4s0.3,0.2,0.6,0.2c0.2,0,0.3-0.1,0.4-0.1
			c0.1-0.1,0.2-0.2,0.3-0.3l1-1.4c0.1-0.1,0.1-0.3-0.1-0.3c-0.3-0.3-0.6-0.5-0.9-0.8c-0.4-0.3-0.8-0.5-1.3-0.7s-1-0.3-1.5-0.5
			c-0.5-0.1-1.1-0.2-1.7-0.2c-0.8,0-1.6,0.1-2.3,0.3c-0.7,0.2-1.4,0.5-2,0.8s-1.2,0.8-1.6,1.3c-0.5,0.5-0.9,1-1.2,1.7
			c-0.3,0.6-0.6,1.3-0.8,2.1c-0.2,0.8-0.3,1.5-0.3,2.4c0,1.2,0.2,2.4,0.6,3.4s0.9,1.9,1.6,2.7c0.7,0.8,1.6,1.3,2.6,1.8
			c1,0.4,2.1,0.6,3.4,0.6c1.4,0,2.6-0.2,3.5-0.6s1.7-1,2.4-1.7C242.3,34.8,242.3,34.7,242.2,34.6z"/>
		<path class="st21" d="M259.4,25.5c-0.4-1-1-1.9-1.7-2.7s-1.6-1.3-2.7-1.8c-1-0.4-2.2-0.6-3.5-0.6s-2.4,0.2-3.5,0.6s-2,1-2.7,1.8
			s-1.3,1.7-1.7,2.7c-0.4,1-0.6,2.1-0.6,3.4c0,1.2,0.2,2.3,0.6,3.4c0.4,1,1,1.9,1.7,2.7c0.8,0.8,1.6,1.3,2.7,1.8
			c1,0.4,2.2,0.6,3.5,0.6s2.4-0.2,3.5-0.6c1-0.4,2-1,2.7-1.8c0.8-0.8,1.3-1.7,1.7-2.7c0.4-1,0.6-2.1,0.6-3.4S259.8,26.5,259.4,25.5z
			 M256.2,31.2c-0.2,0.7-0.6,1.3-1,1.7c-0.4,0.5-1,0.9-1.6,1.1s-1.3,0.4-2.1,0.4s-1.5-0.1-2.1-0.4c-0.6-0.2-1.2-0.6-1.6-1.1
			s-0.8-1-1-1.7s-0.3-1.5-0.3-2.4s0.1-1.7,0.3-2.4c0.2-0.7,0.6-1.3,1-1.7c0.4-0.5,1-0.9,1.6-1.1s1.3-0.4,2.1-0.4s1.4,0.1,2.1,0.4
			c0.6,0.2,1.2,0.6,1.6,1.1s0.8,1.1,1,1.7c0.2,0.7,0.3,1.4,0.3,2.4C256.5,29.7,256.4,30.5,256.2,31.2z"/>
		<path class="st21" d="M265.7,20.6h-3c-0.2,0-0.3,0.1-0.3,0.3V37c0,0.2,0.1,0.3,0.3,0.3h3c0.2,0,0.3-0.1,0.3-0.3V20.8
			C266,20.7,265.9,20.6,265.7,20.6z"/>
		<path class="st21" d="M283.5,20.6H281c-0.2,0-0.3,0.1-0.3,0.3v9.2c0,0.2,0,0.5,0,0.8s0.1,0.6,0.1,0.9l-8.4-10.7
			c-0.1-0.1-0.2-0.2-0.2-0.3c-0.1-0.1-0.2-0.1-0.2-0.2c-0.1-0.1-0.2-0.1-0.3-0.1c-0.1,0-0.2,0-0.3,0h-1.6c-0.2,0-0.3,0.1-0.3,0.3v16
			c0,0.2,0.1,0.3,0.3,0.3h2.5c0.2,0,0.3-0.1,0.3-0.3v-9.3c0-0.2,0-0.5,0-0.7c0-0.3,0-0.5-0.1-0.8l8.3,10.5c0.2,0.2,0.3,0.3,0.5,0.5
			c0.2,0.1,0.4,0.1,0.7,0.1h1.5c0.2,0,0.3-0.1,0.3-0.3v-16C283.7,20.7,283.6,20.6,283.5,20.6z"/>
	</g>
</g>
</svg>
