<?xml version="1.0" encoding="utf-8"?>
<!-- Generator: Adobe Illustrator 23.0.1, SVG Export Plug-In . SVG Version: 6.00 Build 0)  -->
<svg version="1.1" id="Layer_1" xmlns="http://www.w3.org/2000/svg" xmlns:xlink="http://www.w3.org/1999/xlink" x="0px" y="0px"
	 viewBox="0 0 170.9 328" style="enable-background:new 0 0 170.9 328;" xml:space="preserve">
<style type="text/css">
	.st0{fill:#FFFFFF;}
	.st1{fill:#C4CCD5;}
	.st2{fill:#576D86;}
</style>
<polygon class="st0" points="170.9,0 169.9,0.9 0,167 0,0 "/>
<g>
	<polygon class="st1" points="-15.1,164 -29.1,164 4.9,132.6 148.6,0 158,0 4.9,145 	"/>
	<polygon class="st2" points="4.9,163 170.9,0 170.9,0 4.9,163 3.9,164 3.9,164 	"/>
	<polygon class="st2" points="3.9,164 -15.1,164 4.9,145 158,0 170.9,0 4.9,163 	"/>
</g>
<polygon class="st0" points="0,328 0,164.9 169.9,327 170.9,328 "/>
<g>
	<polygon class="st1" points="-15.1,164 -29.1,164 4.9,195.4 148.6,328 158,328 4.9,183 	"/>
	<polygon class="st2" points="4.9,165 170.9,328 170.9,328 4.9,165 3.9,164 3.9,164 	"/>
	<polygon class="st2" points="3.9,164 -15.1,164 4.9,183 158,328 170.9,328 4.9,165 	"/>
</g>
</svg>
