<?xml version="1.0" encoding="utf-8"?>
<!-- Generator: Adobe Illustrator 23.0.1, SVG Export Plug-In . SVG Version: 6.00 Build 0)  -->
<svg version="1.1" id="Layer_1" xmlns="http://www.w3.org/2000/svg" xmlns:xlink="http://www.w3.org/1999/xlink" x="0px" y="0px"
	 viewBox="0 0 170.9 328" style="enable-background:new 0 0 170.9 328;" xml:space="preserve">
<style type="text/css">
	.st0{fill:#FFFFFF;}
	.st1{fill:#C4CCD5;}
	.st2{fill:#576D86;}
</style>
<polygon class="st0" points="170.9,0 170.9,167 1,0.9 0,0 "/>
<g>
	<polygon class="st1" points="186,164 200,164 166,132.6 22.3,0 12.9,0 166,145 	"/>
	<polygon class="st2" points="166,163 0,0 0,0 166,163 167,164 167,164 	"/>
	<polygon class="st2" points="167,164 186,164 166,145 12.9,0 0,0 166,163 	"/>
</g>
<polygon class="st0" points="0,328 1,327 170.9,164.9 170.9,328 "/>
<g>
	<polygon class="st1" points="186,164 200,164 166,195.4 22.3,328 12.9,328 166,183 	"/>
	<polygon class="st2" points="166,165 0,328 0,328 166,165 167,164 167,164 	"/>
	<polygon class="st2" points="167,164 186,164 166,183 12.9,328 0,328 166,165 	"/>
</g>
</svg>
