<?xml version="1.0" encoding="utf-8"?>
<!-- Generator: Adobe Illustrator 23.0.1, SVG Export Plug-In . SVG Version: 6.00 Build 0)  -->
<svg version="1.1" id="Layer_1" xmlns="http://www.w3.org/2000/svg" xmlns:xlink="http://www.w3.org/1999/xlink" x="0px" y="0px"
	 viewBox="0 0 22.8 64.7" style="enable-background:new 0 0 22.8 64.7;" xml:space="preserve">
<style type="text/css">
	.st0{fill:none;stroke:#000000;stroke-width:2;stroke-linecap:round;stroke-linejoin:round;stroke-miterlimit:10;}
	.st1{fill:#FFFFFF;stroke:#020202;stroke-width:1.9843;stroke-miterlimit:10;}
	.st2{fill:#020202;}
</style>
<g>
	<path class="st0" d="M1.4,52.9c3.3,3.5,6.6,7.1,10,10.7c3.4-3.7,6.7-7.2,10-10.7"/>
	<path class="st0" d="M1.4,43.9c3.4,3.1,6.7,6.3,10,9.3c3.3-3,6.6-6.2,10-9.3"/>
</g>
<path class="st1" d="M11.4,39.4L11.4,39.4C5.7,39.4,1,34.7,1,29V11.5C1,5.8,5.7,1.1,11.4,1.1h0c5.7,0,10.4,4.7,10.4,10.4V29
	C21.8,34.7,17.2,39.4,11.4,39.4z"/>
<ellipse class="st2" cx="11.2" cy="11.2" rx="1.8" ry="3.5"/>
</svg>
